<svg width="308" height="250" viewBox="0 0 308 250" fill="none" xmlns="http://www.w3.org/2000/svg">
<path d="M242.501 194.221C242.433 194.108 242.327 194.028 242.2 193.996C242.073 193.963 241.94 193.981 241.827 194.049L240.196 195.013L239.232 193.382C239.165 193.269 239.058 193.189 238.931 193.156C238.804 193.124 238.671 193.142 238.559 193.21C238.446 193.277 238.367 193.384 238.334 193.511C238.301 193.637 238.319 193.77 238.387 193.883L239.351 195.514L237.72 196.479C237.607 196.546 237.527 196.653 237.495 196.779C237.462 196.906 237.48 197.039 237.548 197.152C237.615 197.265 237.722 197.344 237.849 197.377C237.976 197.41 238.109 197.391 238.221 197.324L239.852 196.36L240.816 197.991C240.925 198.175 241.136 198.261 241.334 198.223C241.387 198.212 241.438 198.192 241.488 198.163C241.721 198.026 241.799 197.723 241.662 197.49L240.698 195.858L242.329 194.894C242.562 194.757 242.64 194.454 242.503 194.221H242.501Z" fill="#DEDEDE"/>
<path d="M246.633 205.024C245.452 205.024 244.492 204.064 244.492 202.883C244.492 201.702 245.452 200.742 246.633 200.742C247.814 200.742 248.774 201.702 248.774 202.883C248.774 204.064 247.814 205.024 246.633 205.024ZM246.633 201.888C246.085 201.888 245.637 202.335 245.637 202.885C245.637 203.436 246.083 203.882 246.633 203.882C247.184 203.882 247.63 203.436 247.63 202.885C247.63 202.335 247.184 201.888 246.633 201.888Z" fill="#DEDEDE"/>
<path d="M30.464 236.431C29.2831 236.431 28.3232 235.471 28.3232 234.29C28.3232 233.108 29.2831 232.148 30.464 232.148C31.6449 232.148 32.6047 233.108 32.6047 234.29C32.6047 235.471 31.6449 236.431 30.464 236.431ZM30.464 233.295C29.9155 233.295 29.4673 233.741 29.4673 234.292C29.4673 234.842 29.9134 235.288 30.464 235.288C31.0145 235.288 31.4607 234.842 31.4607 234.292C31.4607 233.741 31.0145 233.295 30.464 233.295Z" fill="#DEDEDE"/>
<path d="M267.47 6.2353C266.289 6.2353 265.329 5.27529 265.329 4.09421C265.329 2.91314 266.289 1.95312 267.47 1.95312C268.651 1.95312 269.61 2.91314 269.61 4.09421C269.61 5.27529 268.651 6.2353 267.47 6.2353ZM267.47 3.09941C266.921 3.09941 266.473 3.54564 266.473 4.09626C266.473 4.64688 266.919 5.09311 267.47 5.09311C268.02 5.09311 268.466 4.64688 268.466 4.09626C268.466 3.54564 268.02 3.09941 267.47 3.09941Z" fill="#DEDEDE"/>
<path d="M304.106 60.4459C303.987 60.5032 303.899 60.6035 303.856 60.7284C303.813 60.8532 303.821 60.9863 303.879 61.1029L304.708 62.806L303.005 63.635C302.886 63.6923 302.798 63.7926 302.755 63.9175C302.712 64.0423 302.72 64.1754 302.778 64.292C302.835 64.4108 302.935 64.4988 303.06 64.5418C303.185 64.5848 303.318 64.5766 303.435 64.5193L305.137 63.6902L305.966 65.3933C306.024 65.512 306.124 65.6 306.249 65.643C306.374 65.686 306.507 65.6778 306.623 65.6205C306.742 65.5632 306.83 65.4629 306.873 65.338C306.916 65.2132 306.908 65.0801 306.85 64.9634L306.022 63.2604L307.724 62.4314C307.917 62.3372 308.021 62.1346 307.996 61.934C307.99 61.8808 307.976 61.8276 307.949 61.7764C307.831 61.5328 307.536 61.4305 307.292 61.5492L305.59 62.3782L304.761 60.6751C304.642 60.4315 304.347 60.3292 304.104 60.4479L304.106 60.4459Z" fill="#DEDEDE"/>
<path d="M273.183 101.188C272.003 101.188 271.043 100.228 271.043 99.0473C271.043 97.8662 272.003 96.9062 273.183 96.9062C274.364 96.9062 275.324 97.8662 275.324 99.0473C275.324 100.228 274.364 101.188 273.183 101.188ZM273.183 98.0525C272.635 98.0525 272.187 98.4988 272.187 99.0494C272.187 99.6 272.633 100.046 273.183 100.046C273.734 100.046 274.18 99.6 274.18 99.0494C274.18 98.4988 273.734 98.0525 273.183 98.0525Z" fill="#DEDEDE"/>
<path d="M0.264241 131.039C0.168051 131.129 0.112815 131.25 0.108722 131.381C0.104629 131.512 0.151681 131.636 0.241732 131.733L1.53725 133.114L0.15579 134.41C0.0595997 134.5 0.00433931 134.621 0.000246096 134.752C-0.00384712 134.883 0.0432299 135.008 0.133281 135.104C0.223331 135.2 0.344065 135.255 0.475048 135.26C0.606031 135.264 0.730868 135.217 0.827059 135.126L2.20852 133.831L3.50404 135.212C3.59409 135.309 3.71482 135.364 3.8458 135.368C3.97679 135.372 4.10165 135.325 4.19784 135.235C4.29403 135.145 4.34929 135.024 4.35338 134.893C4.35748 134.762 4.3104 134.637 4.22035 134.541L2.92483 133.159L4.30629 131.864C4.46183 131.718 4.50073 131.493 4.41886 131.307C4.39635 131.258 4.36771 131.211 4.32678 131.17C4.14054 130.971 3.82945 130.963 3.63297 131.147L2.25151 132.443L0.955996 131.061C0.769755 130.863 0.458692 130.855 0.262218 131.039H0.264241Z" fill="#DEDEDE"/>
<path d="M21.3544 154.595C20.1735 154.595 19.2136 153.635 19.2136 152.454C19.2136 151.272 20.1735 150.312 21.3544 150.312C22.5353 150.312 23.4951 151.272 23.4951 152.454C23.4951 153.635 22.5353 154.595 21.3544 154.595ZM21.3544 151.459C20.8059 151.459 20.3577 151.905 20.3577 152.456C20.3577 153.006 20.8038 153.452 21.3544 153.452C21.9049 153.452 22.3511 153.006 22.3511 152.456C22.3511 151.905 21.9049 151.459 21.3544 151.459Z" fill="#DEDEDE"/>
<path d="M58.2013 221.848C57.9721 221.848 57.7797 221.668 57.7674 221.437C57.7531 221.198 57.9373 220.991 58.1788 220.979C59.6155 220.899 61.0686 220.753 62.4992 220.553C62.7366 220.52 62.9576 220.686 62.9904 220.923C63.0231 221.161 62.8573 221.382 62.6199 221.415C61.1648 221.619 59.6872 221.767 58.2259 221.848C58.2177 221.848 58.2095 221.848 58.2013 221.848ZM52.0758 221.83C52.0758 221.83 52.0574 221.83 52.0472 221.83C50.5838 221.738 49.1062 221.582 47.6572 221.367C47.4198 221.333 47.256 221.11 47.2908 220.872C47.3256 220.635 47.5487 220.471 47.7861 220.506C49.2106 220.719 50.6637 220.87 52.1024 220.96C52.3419 220.974 52.524 221.181 52.5097 221.423C52.4954 221.654 52.303 221.832 52.0758 221.832V221.83ZM68.5654 220.211C68.373 220.211 68.1949 220.082 68.1437 219.886C68.0823 219.652 68.2215 219.415 68.4548 219.353C69.8506 218.987 71.2464 218.557 72.6033 218.076C72.8305 217.996 73.0781 218.115 73.16 218.34C73.2418 218.565 73.1211 218.815 72.896 218.897C71.5165 219.386 70.0983 219.824 68.6779 220.197C68.6411 220.207 68.6042 220.211 68.5674 220.211H68.5654ZM41.7241 220.111C41.6852 220.111 41.6483 220.107 41.6095 220.094C40.1952 219.707 38.7811 219.257 37.4037 218.752C37.1786 218.67 37.0619 218.418 37.1438 218.193C37.2256 217.968 37.4774 217.851 37.7025 217.933C39.0573 218.428 40.447 218.872 41.8387 219.253C42.0699 219.317 42.2071 219.556 42.1436 219.787C42.0904 219.982 41.9144 220.109 41.7241 220.109V220.111ZM78.3911 216.537C78.2315 216.537 78.0759 216.449 78.0002 216.295C77.8938 216.08 77.9818 215.818 78.1967 215.712C79.4881 215.071 80.7672 214.369 82.0013 213.622C82.208 213.497 82.4741 213.563 82.599 213.77C82.7238 213.976 82.6583 214.242 82.4516 214.367C81.199 215.127 79.8974 215.841 78.5835 216.492C78.5221 216.523 78.4546 216.537 78.3911 216.537ZM31.9331 216.336C31.8676 216.336 31.8001 216.322 31.7366 216.289C30.4309 215.626 29.1354 214.899 27.887 214.13C27.6823 214.003 27.6188 213.735 27.7457 213.53C27.8726 213.325 28.1407 213.262 28.3454 213.389C29.5734 214.146 30.8463 214.863 32.1316 215.514C32.3465 215.622 32.4325 215.884 32.324 216.099C32.2462 216.25 32.0948 216.338 31.9351 216.338L31.9331 216.336ZM87.2652 210.951C87.1363 210.951 87.0073 210.894 86.9214 210.783C86.774 210.593 86.8068 210.321 86.9971 210.171C88.133 209.283 89.2443 208.335 90.3003 207.355C90.4763 207.191 90.7526 207.201 90.9164 207.377C91.0801 207.553 91.0698 207.83 90.8938 207.993C89.8194 208.99 88.6896 209.954 87.5354 210.857C87.4555 210.918 87.3614 210.949 87.2672 210.949L87.2652 210.951ZM23.0999 210.673C23.0058 210.673 22.9096 210.642 22.8298 210.579C21.6816 209.668 20.558 208.695 19.4897 207.69C19.3137 207.525 19.3055 207.25 19.4713 207.074C19.6371 206.898 19.9113 206.89 20.0873 207.056C21.1372 208.042 22.2424 208.998 23.3721 209.895C23.5604 210.044 23.5911 210.319 23.4417 210.507C23.3557 210.615 23.2289 210.673 23.0999 210.673ZM94.8315 203.685C94.7312 203.685 94.631 203.65 94.5491 203.58C94.3649 203.425 94.3444 203.151 94.5 202.966C95.4332 201.867 96.3317 200.717 97.1708 199.544C97.31 199.347 97.5822 199.302 97.7786 199.444C97.9751 199.583 98.0201 199.855 97.8789 200.052C97.0255 201.245 96.1127 202.416 95.1631 203.531C95.0771 203.634 94.9543 203.685 94.8315 203.685ZM15.5827 203.357C15.4579 203.357 15.3351 203.304 15.2491 203.202C14.3057 202.078 13.4011 200.901 12.5579 199.702C12.4187 199.505 12.4658 199.233 12.6643 199.094C12.8608 198.954 13.1329 199.002 13.2721 199.2C14.101 200.379 14.9913 201.536 15.9184 202.641C16.0739 202.825 16.0494 203.099 15.8652 203.255C15.7833 203.322 15.6851 203.357 15.5848 203.357H15.5827ZM100.789 195.049C100.718 195.049 100.646 195.031 100.58 194.996C100.37 194.879 100.294 194.615 100.409 194.404C101.104 193.141 101.753 191.833 102.341 190.515C102.439 190.296 102.697 190.196 102.916 190.294C103.135 190.392 103.235 190.65 103.137 190.869C102.541 192.208 101.88 193.538 101.172 194.824C101.092 194.967 100.943 195.049 100.789 195.049ZM9.6926 194.675C9.53706 194.675 9.38765 194.591 9.30784 194.445C8.61199 193.156 7.96525 191.819 7.38197 190.472C7.28578 190.251 7.38811 189.995 7.60914 189.899C7.83018 189.803 8.08601 189.905 8.1822 190.126C8.75525 191.449 9.39175 192.763 10.0753 194.032C10.1899 194.243 10.1101 194.509 9.89931 194.621C9.83382 194.656 9.76218 194.672 9.6926 194.672V194.675ZM104.897 185.392C104.854 185.392 104.811 185.386 104.768 185.372C104.539 185.3 104.41 185.056 104.481 184.827C104.909 183.45 105.281 182.037 105.591 180.629C105.642 180.394 105.875 180.246 106.108 180.297C106.344 180.349 106.491 180.582 106.44 180.815C106.127 182.246 105.746 183.683 105.312 185.083C105.255 185.269 105.083 185.39 104.897 185.39V185.392ZM5.6833 184.981C5.49501 184.981 5.32309 184.858 5.26578 184.67C4.84623 183.269 4.48192 181.831 4.17902 180.392C4.1299 180.156 4.27931 179.925 4.51672 179.876C4.75208 179.827 4.98335 179.978 5.03247 180.214C5.32923 181.628 5.68942 183.044 6.10079 184.422C6.17038 184.653 6.03941 184.895 5.80814 184.964C5.76721 184.977 5.72423 184.983 5.6833 184.983V184.981ZM106.97 175.105C106.956 175.105 106.941 175.105 106.927 175.103C106.688 175.08 106.512 174.867 106.536 174.628C106.675 173.193 106.755 171.735 106.771 170.292C106.773 170.053 106.972 169.856 107.211 169.863C107.453 169.865 107.645 170.063 107.641 170.303C107.625 171.77 107.543 173.252 107.402 174.712C107.379 174.937 107.191 175.105 106.968 175.105H106.97ZM3.69603 174.677C3.47295 174.677 3.28261 174.507 3.26215 174.28C3.12912 172.818 3.0575 171.334 3.04932 169.869C3.04932 169.629 3.2417 169.433 3.4832 169.431H3.48525C3.7247 169.431 3.9191 169.623 3.92115 169.865C3.92934 171.306 3.99892 172.763 4.12991 174.202C4.15242 174.441 3.97438 174.652 3.73493 174.675C3.7206 174.675 3.70831 174.675 3.69603 174.675V174.677ZM106.917 164.61C106.698 164.61 106.507 164.445 106.485 164.221C106.331 162.791 106.117 161.346 105.844 159.927L105.834 159.872C105.789 159.637 105.943 159.407 106.178 159.362C106.415 159.317 106.643 159.471 106.688 159.706L106.698 159.763C106.976 161.209 107.195 162.676 107.351 164.131C107.375 164.371 107.203 164.586 106.964 164.61C106.947 164.61 106.933 164.612 106.917 164.612V164.61ZM3.81679 164.181C3.80042 164.181 3.78403 164.181 3.76765 164.178C3.5282 164.152 3.35629 163.935 3.38494 163.697C3.55071 162.24 3.782 160.773 4.07057 159.336C4.11764 159.1 4.34687 158.947 4.58427 158.994C4.81963 159.041 4.97311 159.27 4.92604 159.508C4.64156 160.922 4.41441 162.365 4.25272 163.796C4.22816 164.019 4.03985 164.183 3.82087 164.183L3.81679 164.181ZM104.749 154.288C104.565 154.288 104.393 154.169 104.334 153.985C103.896 152.61 103.397 151.238 102.846 149.908C102.754 149.685 102.86 149.431 103.081 149.339C103.304 149.247 103.558 149.353 103.65 149.574C104.211 150.927 104.719 152.321 105.165 153.721C105.238 153.95 105.112 154.196 104.882 154.268C104.839 154.282 104.794 154.288 104.749 154.288ZM6.05987 153.93C6.01484 153.93 5.96981 153.924 5.92479 153.907C5.69557 153.832 5.57277 153.586 5.64645 153.357C6.10284 151.965 6.62677 150.573 7.19982 149.224C7.29396 149.003 7.5498 148.899 7.77083 148.993C7.99187 149.087 8.09624 149.343 8.0021 149.564C7.43724 150.892 6.92354 152.26 6.47534 153.627C6.41599 153.811 6.24407 153.926 6.06192 153.926L6.05987 153.93ZM100.572 144.666C100.421 144.666 100.271 144.586 100.192 144.443C99.4855 143.186 98.718 141.944 97.9076 140.752C97.7725 140.554 97.8237 140.281 98.0222 140.146C98.2207 140.011 98.4929 140.062 98.628 140.261C99.4507 141.475 100.233 142.738 100.951 144.015C101.07 144.224 100.994 144.49 100.785 144.609C100.718 144.645 100.644 144.664 100.572 144.664V144.666ZM10.3229 144.342C10.2493 144.342 10.1756 144.324 10.1081 144.285C9.89931 144.166 9.82767 143.9 9.94638 143.692C10.6729 142.418 11.465 141.162 12.2959 139.954C12.433 139.755 12.7031 139.706 12.9017 139.843C13.1002 139.981 13.1493 140.251 13.0122 140.449C12.1936 141.637 11.4158 142.873 10.7016 144.125C10.6217 144.267 10.4744 144.344 10.3229 144.344V144.342ZM94.5347 136.09C94.414 136.09 94.2912 136.038 94.2053 135.94C93.2597 134.853 92.2569 133.791 91.2234 132.786C91.0514 132.618 91.0473 132.342 91.2151 132.17C91.383 131.998 91.6593 131.994 91.8312 132.162C92.8831 133.183 93.9024 134.264 94.8643 135.369C95.0219 135.551 95.0034 135.826 94.8213 135.983C94.7394 136.055 94.6371 136.09 94.5368 136.09H94.5347ZM16.4219 135.803C16.3195 135.803 16.2172 135.768 16.1353 135.695C15.9552 135.535 15.9368 135.261 16.0964 135.08C17.0645 133.979 18.0919 132.905 19.1479 131.889C19.3219 131.724 19.5961 131.728 19.764 131.902C19.9297 132.076 19.9256 132.35 19.7517 132.518C18.712 133.517 17.703 134.573 16.7514 135.656C16.6654 135.754 16.5446 135.803 16.4239 135.803H16.4219ZM86.8907 128.903C86.7986 128.903 86.7044 128.874 86.6267 128.813C85.4826 127.937 84.2853 127.098 83.0717 126.32C82.8691 126.191 82.8097 125.921 82.9407 125.718C83.0697 125.516 83.3398 125.456 83.5424 125.587C84.7765 126.377 85.9922 127.231 87.1567 128.121C87.347 128.266 87.3839 128.541 87.2386 128.731C87.1526 128.844 87.0237 128.901 86.8927 128.901L86.8907 128.903ZM24.1048 128.662C23.9738 128.662 23.8428 128.602 23.7569 128.49C23.6116 128.297 23.6505 128.025 23.8408 127.88C25.0115 126.995 26.2312 126.15 27.4715 125.37C27.6741 125.241 27.9442 125.303 28.0732 125.507C28.2021 125.71 28.1407 125.98 27.9361 126.109C26.7163 126.877 25.5149 127.708 24.3668 128.578C24.289 128.637 24.1969 128.666 24.1048 128.666V128.662ZM77.9613 123.393C77.8979 123.393 77.8324 123.379 77.771 123.35C76.4734 122.72 75.135 122.138 73.7904 121.62C73.5652 121.534 73.4547 121.283 73.5407 121.057C73.6266 120.832 73.8784 120.722 74.1035 120.808C75.4706 121.334 76.8336 121.927 78.1516 122.568C78.3686 122.672 78.4587 122.934 78.3522 123.149C78.2765 123.305 78.1209 123.395 77.9593 123.395L77.9613 123.393ZM33.0751 123.221C32.9114 123.221 32.7558 123.129 32.6821 122.971C32.5798 122.754 32.6719 122.494 32.8889 122.39C34.213 121.762 35.5801 121.182 36.9534 120.669C37.1785 120.585 37.4303 120.699 37.5142 120.924C37.5981 121.15 37.4835 121.401 37.2584 121.485C35.9076 121.991 34.563 122.56 33.2614 123.178C33.202 123.207 33.1365 123.221 33.0751 123.221ZM68.109 119.788C68.0742 119.788 68.0373 119.784 68.0005 119.774C66.6026 119.418 65.1741 119.119 63.7517 118.884C63.5143 118.845 63.3547 118.62 63.3936 118.382C63.4325 118.145 63.6576 117.985 63.895 118.024C65.3399 118.264 66.795 118.569 68.2154 118.931C68.4487 118.99 68.5899 119.228 68.5305 119.461C68.4814 119.657 68.3034 119.788 68.109 119.788ZM42.9582 119.709C42.7617 119.709 42.5836 119.576 42.5345 119.377C42.4772 119.144 42.6205 118.908 42.8538 118.851C43.7195 118.638 44.6036 118.446 45.4837 118.276C46.0445 118.167 46.6155 118.067 47.1803 117.979C47.4177 117.942 47.6408 118.104 47.6797 118.341C47.7165 118.579 47.5549 118.802 47.3174 118.841C46.7628 118.929 46.2 119.027 45.6474 119.133C44.7817 119.299 43.9119 119.49 43.0605 119.698C43.0257 119.707 42.9909 119.711 42.9561 119.711L42.9582 119.709ZM57.7265 118.249C57.7265 118.249 57.7142 118.249 57.706 118.249C56.9426 118.214 56.169 118.198 55.4056 118.198C54.7282 118.198 54.0426 118.212 53.3652 118.239C53.1278 118.249 52.9231 118.061 52.9129 117.821C52.9026 117.582 53.0909 117.379 53.3304 117.369C54.0201 117.342 54.718 117.328 55.4056 117.328C56.1813 117.328 56.9693 117.347 57.7449 117.381C57.9844 117.392 58.1706 117.596 58.1604 117.836C58.1501 118.069 57.9578 118.251 57.7265 118.251V118.249Z" fill="#DEDEDE"/>
<path d="M214.763 182.274C214.511 182.29 214.262 182.305 214.012 182.319C213.772 182.333 213.566 182.149 213.553 181.91C213.539 181.67 213.721 181.466 213.961 181.451C213.961 181.451 213.963 181.451 213.965 181.451C215.389 181.371 216.83 181.255 218.25 181.107C218.49 181.081 218.705 181.257 218.729 181.496C218.754 181.736 218.58 181.951 218.34 181.975C217.155 182.098 215.952 182.2 214.765 182.276L214.763 182.274ZM207.97 182.46C207.96 182.46 207.948 182.46 207.938 182.46C206.497 182.446 205.037 182.397 203.601 182.313C203.361 182.299 203.177 182.094 203.191 181.852C203.206 181.613 203.412 181.429 203.652 181.443C205.076 181.525 206.521 181.574 207.948 181.588C208.187 181.59 208.382 181.787 208.38 182.028C208.378 182.258 208.197 182.444 207.972 182.458L207.97 182.46ZM224.314 181.152C224.096 181.167 223.895 181.013 223.858 180.79C223.817 180.553 223.977 180.328 224.214 180.287C225.624 180.047 227.043 179.769 228.434 179.464C228.67 179.413 228.901 179.56 228.954 179.795C229.005 180.031 228.858 180.262 228.623 180.313C227.219 180.622 225.786 180.901 224.364 181.144C224.349 181.146 224.333 181.148 224.319 181.15L224.314 181.152ZM197.633 181.762C197.606 181.762 197.578 181.762 197.551 181.76C196.12 181.58 194.676 181.365 193.259 181.118C193.022 181.077 192.864 180.852 192.905 180.614C192.946 180.377 193.173 180.219 193.409 180.26C194.813 180.506 196.243 180.718 197.659 180.897C197.899 180.927 198.067 181.144 198.038 181.384C198.011 181.595 197.84 181.75 197.635 181.764L197.633 181.762ZM234.414 178.833C234.216 178.846 234.026 178.721 233.968 178.52C233.901 178.289 234.034 178.047 234.265 177.98C235.636 177.583 237.014 177.145 238.362 176.682C238.59 176.604 238.837 176.725 238.915 176.952C238.993 177.18 238.872 177.427 238.645 177.505C237.282 177.972 235.89 178.414 234.507 178.815C234.476 178.823 234.443 178.829 234.412 178.831L234.414 178.833ZM187.435 179.881C187.392 179.883 187.347 179.881 187.304 179.869C185.904 179.527 184.492 179.144 183.106 178.735C182.875 178.668 182.744 178.424 182.811 178.195C182.879 177.963 183.122 177.832 183.352 177.9C184.723 178.305 186.123 178.684 187.51 179.024C187.744 179.081 187.887 179.316 187.83 179.55C187.783 179.74 187.619 179.869 187.435 179.881ZM244.185 175.378C244.005 175.391 243.829 175.288 243.755 175.112C243.661 174.891 243.765 174.635 243.989 174.541C245.304 173.989 246.625 173.397 247.912 172.783C248.129 172.679 248.389 172.771 248.493 172.988C248.597 173.205 248.505 173.465 248.288 173.569C246.989 174.189 245.657 174.787 244.328 175.346C244.283 175.364 244.234 175.376 244.187 175.378H244.185ZM177.515 176.84C177.455 176.844 177.394 176.836 177.335 176.813C175.984 176.312 174.625 175.771 173.297 175.206C173.076 175.112 172.973 174.856 173.067 174.635C173.162 174.414 173.417 174.31 173.638 174.406C174.954 174.967 176.299 175.501 177.637 175.999C177.863 176.082 177.977 176.332 177.895 176.559C177.834 176.725 177.68 176.832 177.515 176.842V176.84ZM253.487 170.828C253.325 170.838 253.163 170.759 253.08 170.607C252.961 170.398 253.037 170.132 253.245 170.014C254.486 169.316 255.726 168.579 256.933 167.821C257.138 167.695 257.406 167.756 257.533 167.959C257.66 168.163 257.598 168.431 257.396 168.558C256.178 169.322 254.926 170.067 253.673 170.773C253.614 170.806 253.55 170.824 253.489 170.828H253.487ZM168.01 172.685C167.934 172.689 167.857 172.674 167.785 172.638C166.5 171.985 165.212 171.293 163.958 170.583C163.749 170.464 163.676 170.198 163.794 169.989C163.913 169.78 164.179 169.707 164.388 169.825C165.628 170.531 166.903 171.215 168.178 171.862C168.393 171.97 168.479 172.232 168.37 172.447C168.299 172.591 168.158 172.674 168.01 172.685ZM262.199 165.244C262.054 165.255 261.909 165.191 261.819 165.064C261.677 164.87 261.72 164.598 261.915 164.456C263.069 163.619 264.217 162.745 265.331 161.855C265.519 161.706 265.793 161.734 265.942 161.922C266.092 162.111 266.063 162.385 265.875 162.534C264.751 163.433 263.591 164.317 262.426 165.161C262.357 165.21 262.279 165.238 262.199 165.242V165.244ZM159.044 167.476C158.952 167.482 158.858 167.459 158.776 167.404C157.573 166.61 156.373 165.777 155.209 164.927C155.014 164.786 154.971 164.514 155.115 164.319C155.256 164.125 155.528 164.082 155.722 164.225C156.875 165.066 158.064 165.891 159.255 166.677C159.455 166.81 159.511 167.08 159.378 167.281C159.3 167.4 159.173 167.467 159.042 167.476H159.044ZM270.222 158.699C270.095 158.707 269.964 158.66 269.872 158.557C269.71 158.379 269.723 158.105 269.899 157.941C270.951 156.979 271.992 155.978 272.999 154.965C273.169 154.795 273.445 154.793 273.615 154.965C273.785 155.135 273.787 155.412 273.615 155.581C272.6 156.603 271.548 157.614 270.486 158.586C270.41 158.656 270.316 158.693 270.22 158.699H270.222ZM150.729 161.286C150.62 161.292 150.51 161.259 150.422 161.186C149.317 160.262 148.22 159.298 147.159 158.324C146.983 158.16 146.971 157.886 147.135 157.708C147.299 157.532 147.573 157.52 147.751 157.684C148.801 158.65 149.888 159.603 150.982 160.518C151.167 160.672 151.191 160.948 151.038 161.132C150.958 161.229 150.847 161.28 150.731 161.288L150.729 161.286ZM277.453 151.281C277.342 151.287 277.23 151.252 277.139 151.175C276.957 151.017 276.939 150.741 277.097 150.561C278.034 149.484 278.957 148.37 279.841 147.251C279.99 147.062 280.265 147.03 280.453 147.179C280.641 147.329 280.674 147.603 280.525 147.791C279.632 148.921 278.699 150.045 277.753 151.132C277.674 151.224 277.565 151.273 277.453 151.281ZM143.173 154.198C143.048 154.206 142.921 154.161 142.829 154.063C141.836 153.019 140.856 151.938 139.914 150.851C139.757 150.669 139.777 150.395 139.959 150.237C140.142 150.08 140.416 150.1 140.573 150.282C141.507 151.361 142.477 152.431 143.459 153.465C143.625 153.639 143.619 153.915 143.445 154.081C143.367 154.155 143.271 154.194 143.173 154.2V154.198ZM283.801 143.09C283.707 143.096 283.611 143.071 283.527 143.014C283.328 142.877 283.279 142.607 283.414 142.408C284.223 141.231 285.015 140.019 285.766 138.808C285.893 138.603 286.161 138.54 286.366 138.666C286.57 138.793 286.634 139.061 286.507 139.266C285.748 140.49 284.949 141.714 284.133 142.901C284.055 143.016 283.93 143.081 283.801 143.09ZM136.474 146.301C136.333 146.309 136.19 146.25 136.097 146.129C135.232 144.981 134.38 143.796 133.57 142.609C133.435 142.41 133.486 142.14 133.685 142.003C133.883 141.868 134.155 141.919 134.29 142.117C135.095 143.294 135.936 144.467 136.793 145.605C136.939 145.798 136.9 146.07 136.707 146.215C136.638 146.268 136.556 146.297 136.474 146.303V146.301ZM289.182 134.227C289.104 134.231 289.024 134.217 288.95 134.176C288.738 134.063 288.658 133.799 288.77 133.586C289.442 132.323 290.09 131.03 290.7 129.74C290.803 129.523 291.063 129.429 291.28 129.531C291.496 129.634 291.591 129.894 291.488 130.111C290.874 131.412 290.217 132.72 289.54 133.994C289.466 134.133 289.329 134.215 289.184 134.223L289.182 134.227ZM130.723 137.694C130.563 137.704 130.406 137.627 130.32 137.481C129.591 136.243 128.881 134.97 128.214 133.697C128.101 133.484 128.183 133.22 128.396 133.109C128.609 132.997 128.873 133.079 128.983 133.291C129.647 134.552 130.349 135.813 131.071 137.039C131.194 137.246 131.124 137.514 130.917 137.635C130.856 137.67 130.791 137.69 130.725 137.694H130.723ZM293.521 124.805C293.459 124.809 293.396 124.799 293.334 124.777C293.111 124.689 293.001 124.437 293.089 124.212C293.613 122.881 294.11 121.52 294.566 120.167C294.644 119.94 294.89 119.817 295.119 119.895C295.346 119.973 295.469 120.22 295.391 120.448C294.929 121.813 294.427 123.186 293.899 124.531C293.836 124.693 293.684 124.795 293.523 124.807L293.521 124.805ZM125.991 128.483C125.815 128.496 125.641 128.397 125.566 128.226C124.982 126.909 124.424 125.559 123.904 124.216C123.818 123.991 123.928 123.739 124.153 123.653C124.379 123.565 124.63 123.677 124.716 123.903C125.232 125.233 125.785 126.57 126.362 127.873C126.46 128.093 126.362 128.35 126.141 128.449C126.092 128.469 126.042 128.481 125.993 128.486L125.991 128.483ZM296.756 114.946C296.711 114.948 296.664 114.946 296.617 114.931C296.384 114.87 296.247 114.631 296.308 114.399C296.674 113.016 297.014 111.607 297.313 110.209C297.364 109.974 297.595 109.825 297.831 109.876C298.066 109.927 298.215 110.158 298.164 110.394C297.861 111.804 297.52 113.226 297.149 114.624C297.1 114.811 296.938 114.936 296.756 114.948V114.946ZM122.346 118.781C122.15 118.794 121.964 118.673 121.902 118.477C121.474 117.101 121.073 115.697 120.711 114.303C120.65 114.07 120.791 113.832 121.022 113.771C121.255 113.709 121.493 113.851 121.554 114.082C121.914 115.464 122.312 116.853 122.735 118.217C122.807 118.446 122.678 118.689 122.449 118.761C122.414 118.771 122.381 118.777 122.346 118.779V118.781ZM298.838 104.783C298.807 104.783 298.776 104.783 298.746 104.779C298.508 104.744 298.342 104.523 298.377 104.286C298.582 102.876 298.756 101.439 298.893 100.018C298.915 99.7788 299.13 99.6027 299.368 99.6273C299.607 99.6498 299.783 99.8627 299.759 100.102C299.619 101.537 299.443 102.986 299.237 104.411C299.206 104.617 299.036 104.769 298.834 104.783H298.838ZM119.833 108.727C119.616 108.742 119.42 108.592 119.377 108.373C119.109 106.961 118.869 105.52 118.664 104.091C118.63 103.854 118.795 103.633 119.035 103.598C119.274 103.565 119.493 103.729 119.528 103.969C119.729 105.383 119.966 106.812 120.232 108.212C120.277 108.447 120.122 108.676 119.886 108.721C119.868 108.725 119.849 108.727 119.833 108.727ZM299.738 94.459C299.724 94.459 299.712 94.459 299.697 94.459C299.458 94.4529 299.267 94.2503 299.276 94.0108C299.319 92.5841 299.327 91.1391 299.3 89.7124C299.296 89.4709 299.488 89.2744 299.728 89.2683C299.969 89.2642 300.168 89.4545 300.172 89.6961C300.199 91.137 300.19 92.5964 300.147 94.0374C300.141 94.2646 299.963 94.4447 299.74 94.459H299.738ZM118.47 98.4524C118.233 98.4688 118.026 98.2886 118.007 98.0512C117.981 97.7114 117.958 97.3717 117.936 97.0339C117.864 95.9327 117.813 94.8172 117.782 93.716C117.776 93.4766 117.962 93.276 118.206 93.2678C118.445 93.2616 118.646 93.45 118.654 93.6915C118.685 94.7824 118.736 95.8877 118.808 96.9766C118.83 97.3123 118.853 97.648 118.879 97.9837C118.898 98.2232 118.718 98.4319 118.478 98.4504H118.474L118.47 98.4524ZM299.452 84.1001C299.216 84.1144 299.01 83.9383 298.989 83.7029C298.868 82.2845 298.715 80.8456 298.527 79.4271L298.508 79.29C298.475 79.0526 298.643 78.8336 298.883 78.8008C299.122 78.7681 299.341 78.9359 299.372 79.1754L299.39 79.3146C299.578 80.7453 299.736 82.1965 299.857 83.6293C299.877 83.8688 299.699 84.0796 299.46 84.1001C299.458 84.1001 299.454 84.1001 299.452 84.1001ZM118.274 88.0914C118.259 88.0914 118.243 88.0914 118.229 88.0914C117.989 88.0811 117.801 87.8805 117.809 87.639C117.864 86.198 117.954 84.7407 118.079 83.3059C118.1 83.0664 118.31 82.8883 118.55 82.9088C118.789 82.9293 118.967 83.1401 118.947 83.3796C118.824 84.8001 118.734 86.2451 118.681 87.6697C118.673 87.8949 118.495 88.0729 118.274 88.0873V88.0914ZM297.972 73.7001C297.757 73.7144 297.561 73.5671 297.518 73.3522C297.237 71.9521 296.918 70.5419 296.572 69.1582C296.513 68.9249 296.656 68.6874 296.889 68.6301C297.123 68.5708 297.36 68.714 297.417 68.9474C297.767 70.3433 298.089 71.7679 298.373 73.1823C298.42 73.4176 298.269 73.6469 298.031 73.696C298.013 73.7001 297.992 73.7022 297.974 73.7042L297.972 73.7001ZM119.262 77.7753C119.231 77.7753 119.199 77.7753 119.168 77.7712C118.931 77.7344 118.767 77.5113 118.804 77.2739C119.025 75.8472 119.283 74.4063 119.571 72.9899C119.618 72.7545 119.849 72.603 120.085 72.6501C120.32 72.6972 120.472 72.9285 120.425 73.1638C120.138 74.5659 119.882 75.9926 119.665 77.4069C119.632 77.6116 119.463 77.7631 119.264 77.7753H119.262ZM295.356 63.6727C295.162 63.685 294.976 63.5663 294.914 63.3718C294.476 62.0127 293.999 60.6475 293.496 59.313C293.412 59.0878 293.525 58.8361 293.75 58.7521C293.975 58.6682 294.227 58.7808 294.311 59.0059C294.818 60.3548 295.299 61.7323 295.743 63.1037C295.817 63.3329 295.692 63.5786 295.463 63.6522C295.428 63.6645 295.391 63.6707 295.356 63.6727ZM121.434 67.6231C121.386 67.6251 121.337 67.6231 121.29 67.6088C121.059 67.5453 120.922 67.3058 120.985 67.0725C121.368 65.6806 121.79 64.2806 122.238 62.9092C122.314 62.68 122.559 62.5551 122.786 62.6309C123.016 62.7066 123.14 62.9522 123.065 63.1794C122.621 64.5385 122.203 65.9263 121.824 67.3038C121.773 67.488 121.614 67.6108 121.434 67.6231ZM291.613 54.0096C291.437 54.0219 291.265 53.9257 291.189 53.7558C290.598 52.4561 289.968 51.1543 289.315 49.8873C289.204 49.6745 289.288 49.4104 289.503 49.2999C289.718 49.1894 289.98 49.2733 290.09 49.4882C290.749 50.7695 291.386 52.0836 291.984 53.3956C292.084 53.6146 291.986 53.8725 291.769 53.9728C291.72 53.9953 291.668 54.0076 291.617 54.0117L291.613 54.0096ZM124.755 57.7922C124.692 57.7963 124.626 57.786 124.565 57.7615C124.342 57.6714 124.233 57.4176 124.323 57.1945C124.862 55.8579 125.441 54.5152 126.045 53.2032C126.145 52.9842 126.403 52.888 126.622 52.9903C126.841 53.0906 126.937 53.3485 126.835 53.5675C126.237 54.8652 125.664 56.1956 125.13 57.5199C125.064 57.6796 124.915 57.7819 124.753 57.7922H124.755ZM286.787 44.846C286.63 44.8562 286.472 44.7805 286.386 44.6352C285.651 43.4152 284.878 42.1974 284.084 41.0123C283.951 40.8117 284.004 40.5415 284.202 40.4085C284.403 40.2754 284.673 40.3286 284.806 40.5272C285.606 41.7225 286.388 42.9527 287.129 44.1849C287.254 44.3916 287.186 44.6577 286.982 44.7825C286.92 44.8194 286.853 44.8398 286.785 44.8439L286.787 44.846ZM129.176 48.4095C129.096 48.4156 129.016 48.3972 128.94 48.3583C128.73 48.2437 128.65 47.9797 128.767 47.7668C129.454 46.4998 130.181 45.2328 130.93 44.0006C131.055 43.796 131.323 43.7284 131.527 43.8533C131.734 43.9781 131.8 44.2463 131.675 44.451C130.934 45.6729 130.213 46.9276 129.534 48.1823C129.46 48.3195 129.323 48.3993 129.18 48.4095H129.176ZM280.948 36.2984C280.809 36.3066 280.666 36.2493 280.576 36.1306C279.706 35.0007 278.795 33.8791 277.874 32.7922C277.719 32.608 277.741 32.3337 277.923 32.1782C278.108 32.0226 278.382 32.0451 278.537 32.2273C279.469 33.3244 280.385 34.4583 281.265 35.5984C281.413 35.7888 281.378 36.063 281.186 36.2084C281.114 36.2636 281.032 36.2923 280.948 36.2984ZM134.632 39.5938C134.536 39.6 134.44 39.5754 134.354 39.5161C134.157 39.3789 134.108 39.1067 134.247 38.9102C135.074 37.7312 135.94 36.5543 136.822 35.4142C136.969 35.2238 137.244 35.189 137.434 35.3364C137.624 35.4838 137.659 35.7581 137.512 35.9484C136.638 37.0762 135.78 38.2429 134.962 39.4117C134.882 39.5242 134.761 39.5877 134.632 39.5959V39.5938ZM274.168 28.4714C274.045 28.4796 273.92 28.4345 273.826 28.3404C272.833 27.317 271.802 26.3038 270.76 25.3295C270.584 25.1657 270.576 24.8894 270.74 24.7134C270.903 24.5374 271.18 24.5292 271.356 24.6929C272.406 25.6774 273.447 26.7009 274.45 27.7325C274.618 27.9044 274.614 28.1807 274.442 28.3486C274.364 28.4243 274.266 28.4652 274.168 28.4714ZM141.05 31.4577C140.938 31.4659 140.823 31.429 140.733 31.3492C140.553 31.1896 140.537 30.9153 140.696 30.7352C141.65 29.6565 142.645 28.586 143.649 27.5544C143.817 27.3825 144.094 27.3784 144.265 27.5462C144.437 27.714 144.441 27.9904 144.274 28.1623C143.279 29.1837 142.295 30.2439 141.349 31.3124C141.269 31.4024 141.161 31.4515 141.05 31.4577ZM266.538 21.461C266.432 21.4671 266.323 21.4364 266.233 21.3627C265.13 20.458 263.99 19.5677 262.844 18.7162C262.652 18.5729 262.611 18.3007 262.754 18.1062C262.897 17.9138 263.169 17.8729 263.364 18.0162C264.52 18.8758 265.67 19.7744 266.786 20.6873C266.972 20.8387 266.999 21.1151 266.847 21.2993C266.767 21.3955 266.655 21.4507 266.538 21.4569V21.461ZM148.346 24.1034C148.218 24.1116 148.086 24.0625 147.994 23.9602C147.833 23.7821 147.849 23.5058 148.027 23.3441C149.098 22.3821 150.205 21.4323 151.32 20.5215C151.506 20.37 151.781 20.3966 151.932 20.5829C152.084 20.7692 152.057 21.0434 151.871 21.1949C150.768 22.0955 149.671 23.037 148.61 23.9909C148.535 24.0584 148.443 24.0953 148.348 24.1014L148.346 24.1034ZM258.161 15.3553C258.071 15.3614 257.979 15.3389 257.897 15.2857C256.698 14.512 255.464 13.7567 254.23 13.0403C254.021 12.9196 253.951 12.6535 254.072 12.4447C254.193 12.2359 254.459 12.1663 254.668 12.2871C255.914 13.0096 257.16 13.7731 258.372 14.555C258.575 14.686 258.632 14.9541 258.501 15.1568C258.423 15.2775 258.296 15.3471 258.163 15.3553H258.161ZM156.428 17.6273C156.283 17.6375 156.136 17.572 156.046 17.4451C155.907 17.2486 155.952 16.9764 156.148 16.8372C157.321 16.0041 158.528 15.1875 159.738 14.4097C159.94 14.2787 160.211 14.338 160.34 14.5407C160.468 14.7433 160.411 15.0135 160.209 15.1424C159.009 15.912 157.814 16.7205 156.654 17.5454C156.586 17.5945 156.508 17.6191 156.431 17.6252L156.428 17.6273ZM249.144 10.2382C249.07 10.2423 248.995 10.23 248.923 10.1932C247.644 9.56073 246.33 8.94873 245.02 8.37766C244.799 8.28146 244.699 8.0256 244.795 7.80454C244.891 7.58348 245.147 7.48319 245.368 7.5794C246.69 8.1566 248.014 8.7727 249.308 9.41131C249.523 9.51774 249.613 9.77973 249.504 9.99465C249.432 10.14 249.291 10.2259 249.142 10.2362L249.144 10.2382ZM165.19 12.1213C165.026 12.1315 164.865 12.0497 164.781 11.8962C164.664 11.6853 164.742 11.4213 164.953 11.3046C166.215 10.6087 167.511 9.93529 168.804 9.30077C169.021 9.19434 169.281 9.2844 169.388 9.49932C169.494 9.71628 169.404 9.97623 169.189 10.0827C167.908 10.711 166.625 11.3783 165.374 12.066C165.317 12.0988 165.253 12.1152 165.192 12.1193L165.19 12.1213ZM239.599 6.17936C239.541 6.18345 239.482 6.17527 239.423 6.1548C238.078 5.67175 236.703 5.2153 235.338 4.79775C235.108 4.72816 234.977 4.48459 235.049 4.2533C235.119 4.02406 235.362 3.89306 235.593 3.9647C236.973 4.38635 238.36 4.84688 239.719 5.33607C239.946 5.41794 240.063 5.66766 239.981 5.89281C239.92 6.06065 239.766 6.16913 239.599 6.17936ZM174.539 7.64899C174.357 7.66127 174.181 7.55688 174.107 7.37881C174.015 7.15571 174.123 6.90189 174.344 6.80979C175.677 6.26533 177.042 5.74339 178.399 5.26239C178.626 5.18256 178.874 5.30128 178.955 5.52643C179.035 5.75363 178.917 6.00129 178.691 6.08317C177.347 6.56008 175.994 7.07587 174.676 7.61624C174.631 7.63466 174.586 7.6449 174.539 7.64694V7.64899ZM229.648 3.23807C229.607 3.24012 229.564 3.23807 229.521 3.22784C228.127 2.90239 226.709 2.60561 225.303 2.34771C225.066 2.30472 224.91 2.07753 224.953 1.8401C224.996 1.60266 225.223 1.4471 225.461 1.49008C226.881 1.75003 228.314 2.04887 229.72 2.37841C229.953 2.43368 230.1 2.66701 230.045 2.9024C230 3.09275 229.836 3.22579 229.65 3.23807H229.648ZM184.336 4.27991C184.135 4.29219 183.945 4.16529 183.89 3.96266C183.824 3.73136 183.959 3.48984 184.191 3.42639C185.576 3.03749 186.99 2.6752 188.397 2.3518C188.632 2.29859 188.865 2.44391 188.918 2.67929C188.972 2.91468 188.826 3.14801 188.591 3.20123C187.199 3.52053 185.797 3.87873 184.426 4.26558C184.395 4.27377 184.367 4.27991 184.336 4.28196V4.27991ZM219.429 1.46143C219.403 1.46143 219.378 1.46143 219.351 1.46143C217.935 1.29768 216.494 1.16874 215.07 1.07254C214.83 1.05616 214.648 0.849427 214.665 0.607902C214.681 0.366376 214.888 0.186259 215.129 0.202634C216.568 0.298835 218.021 0.429828 219.452 0.595621C219.691 0.62223 219.863 0.839191 219.834 1.07867C219.81 1.29154 219.636 1.45119 219.431 1.46347L219.429 1.46143ZM194.456 2.05091C194.235 2.06524 194.035 1.90969 193.998 1.68658C193.959 1.44915 194.121 1.22605 194.358 1.18716C195.244 1.04388 196.147 0.910827 197.039 0.794158C197.578 0.722519 198.122 0.657026 198.658 0.595621C198.896 0.569013 199.113 0.740945 199.141 0.978377C199.168 1.21786 198.996 1.43277 198.758 1.46143C198.226 1.52283 197.688 1.58833 197.156 1.65793C196.272 1.77459 195.377 1.9056 194.499 2.04683C194.485 2.04887 194.471 2.05091 194.459 2.05091H194.456ZM209.086 0.869902C209.086 0.869902 209.067 0.869902 209.057 0.869902C207.633 0.869902 206.186 0.904698 204.759 0.972243C204.52 0.984524 204.315 0.798259 204.303 0.55878C204.29 0.321348 204.473 0.118706 204.71 0.104378C204.712 0.104378 204.714 0.104378 204.718 0.104378C206.159 0.0347856 207.618 0 209.057 0C209.299 0 209.493 0.194437 209.493 0.435963C209.493 0.667254 209.313 0.855574 209.086 0.869902Z" fill="#DEDEDE"/>
<path d="M223.396 54.1645V204.021H223.003L211.659 192.98L200.314 204.021H199.132L187.787 192.98L176.441 204.021H175.276L163.95 193.001L152.626 204.021H151.466L140.13 192.989L128.792 204.021H127.596L116.258 192.989L104.92 204.021H103.737L92.4214 193.009L81.1057 204.021H80.3586V12.5156H181.752L223.396 54.1645Z" fill="#F2F2F2"/>
<path d="M223.396 54.1664H181.752V12.5156L223.396 54.1664Z" fill="#DEDEDE"/>
<path d="M118.851 132.154V126.55H103.727C101.82 126.55 100.387 126.118 99.4332 125.254C98.4795 124.39 98.0026 123.216 98.0026 121.729C98.0026 121.349 98.0722 120.962 98.2134 120.569C98.3546 120.178 98.5654 119.766 98.8458 119.333C99.1262 118.901 99.4188 118.485 99.7197 118.082C100.021 117.681 100.393 117.187 100.835 116.606L116.803 95.2422C117.846 93.836 118.706 92.8167 119.379 92.1842C120.053 91.5517 120.861 91.2344 121.805 91.2344C124.858 91.2344 126.385 92.9824 126.385 96.4765V119.799H127.68C129.228 119.799 130.468 120.01 131.401 120.432C132.334 120.853 132.803 121.779 132.803 123.203C132.803 124.368 132.42 125.217 131.659 125.75C130.896 126.282 129.752 126.548 128.225 126.548H126.387V132.152C126.387 133.7 126.045 134.848 125.364 135.601C124.68 136.355 123.767 136.731 122.621 136.731C121.475 136.731 120.587 136.344 119.895 135.571C119.201 134.797 118.855 133.657 118.855 132.15L118.851 132.154ZM105.896 119.801H118.851V102.294L105.896 119.801Z" fill="#1984E5"/>
<path d="M167.657 114.301C167.657 117.596 167.456 120.427 167.055 122.797C166.654 125.168 165.911 127.317 164.826 129.245C163.461 131.615 161.693 133.443 159.523 134.729C157.354 136.014 154.943 136.657 152.293 136.657C149.239 136.657 146.503 135.793 144.084 134.066C141.663 132.338 139.841 129.947 138.615 126.895C137.993 125.229 137.535 123.385 137.244 121.367C136.953 119.348 136.808 117.164 136.808 114.812C136.808 111.779 136.968 109.048 137.291 106.616C137.612 104.187 138.114 102.097 138.797 100.349C139.982 97.4564 141.706 95.2519 143.965 93.7351C146.225 92.2183 148.922 91.4609 152.053 91.4609C154.122 91.4609 155.999 91.7966 157.688 92.4701C159.374 93.1435 160.856 94.1281 162.131 95.4238C163.406 96.7195 164.486 98.3222 165.369 100.23C166.895 103.544 167.659 108.235 167.659 114.301H167.657ZM159.403 113.699C159.403 110.022 159.182 107.016 158.74 104.674C158.297 102.334 157.555 100.566 156.511 99.3703C155.467 98.1749 154.02 97.5771 152.172 97.5771C149.522 97.5771 147.678 98.9138 146.644 101.585C145.609 104.256 145.093 108.375 145.093 113.938C145.093 117.715 145.314 120.808 145.756 123.219C146.198 125.63 146.941 127.452 147.985 128.688C149.028 129.925 150.445 130.541 152.233 130.541C154.022 130.541 155.526 129.898 156.572 128.613C157.616 127.327 158.351 125.489 158.772 123.098C159.194 120.707 159.405 117.574 159.405 113.697L159.403 113.699Z" fill="#1984E5"/>
<path d="M192.182 132.154V126.55H177.057C175.15 126.55 173.717 126.118 172.763 125.254C171.81 124.39 171.333 123.216 171.333 121.729C171.333 121.349 171.402 120.962 171.544 120.569C171.685 120.178 171.896 119.766 172.176 119.333C172.456 118.901 172.749 118.485 173.05 118.082C173.351 117.681 173.723 117.187 174.165 116.606L190.133 95.2422C191.177 93.836 192.036 92.8167 192.71 92.1842C193.383 91.5517 194.191 91.2344 195.135 91.2344C198.188 91.2344 199.715 92.9824 199.715 96.4765V119.799H201.011C202.558 119.799 203.798 120.01 204.731 120.432C205.665 120.853 206.133 121.779 206.133 123.203C206.133 124.368 205.751 125.217 204.989 125.75C204.226 126.282 203.082 126.548 201.555 126.548H199.717V132.152C199.717 133.7 199.375 134.848 198.692 135.601C198.008 136.355 197.095 136.731 195.949 136.731C194.803 136.731 193.915 136.344 193.223 135.571C192.529 134.797 192.184 133.657 192.184 132.15L192.182 132.154ZM179.227 119.801H192.182V102.294L179.227 119.801Z" fill="#1984E5"/>
<path d="M150.764 248.001C148.793 249.972 145.598 249.972 143.629 248.001L112.998 217.365L109.105 213.472C111.939 211.601 114.369 209.169 116.239 206.336L150.764 240.865C152.734 242.837 152.734 246.03 150.764 248.001Z" fill="#9C9C9C"/>
<path d="M117.791 207.859L125.773 215.844C123.903 218.679 121.473 221.109 118.641 222.98L114.552 218.888L110.659 214.995C113.493 213.124 115.923 210.692 117.793 207.859H117.791Z" fill="#5E5E5E"/>
<path d="M125.744 191.225C125.691 189.934 125.554 188.662 125.343 187.416C124.144 180.334 120.499 174.084 115.304 169.567C109.961 164.916 102.98 162.102 95.3418 162.102C78.5371 162.102 64.9128 175.728 64.9128 192.537C64.9128 193.7 64.9783 194.848 65.1052 195.978C65.5043 199.519 66.5092 202.876 68.0176 205.943C70.1829 210.35 73.3817 214.157 77.2989 217.045C77.9354 217.516 78.5924 217.96 79.2657 218.382C83.932 221.29 89.4414 222.971 95.3418 222.971C101.924 222.971 108.016 220.881 112.994 217.33C115.749 215.365 118.161 212.951 120.128 210.196C122.103 207.427 123.626 204.313 124.588 200.962C125.355 198.287 125.767 195.462 125.767 192.541C125.767 192.101 125.756 191.663 125.738 191.229L125.744 191.225ZM95.3438 217.557C89.8692 217.557 84.8079 215.799 80.6881 212.816C76.6911 209.922 73.5823 205.873 71.8509 201.157C70.8644 198.469 70.3282 195.567 70.3282 192.537C70.3282 191.397 70.4039 190.275 70.5533 189.176C71.7976 179.898 78.1278 172.232 86.6458 169.071C89.3555 168.066 92.2862 167.518 95.3459 167.518C96.4531 167.518 97.5419 167.589 98.6103 167.729C103.682 168.388 108.276 170.568 111.923 173.798C117.101 178.381 120.364 185.078 120.364 192.537C120.364 192.918 120.355 193.297 120.337 193.673C120.255 195.509 119.975 197.294 119.518 199.008C118.818 201.634 117.701 204.088 116.244 206.299C114.373 209.134 111.944 211.565 109.109 213.434C108.413 213.893 107.695 214.317 106.952 214.705C105.368 215.537 103.684 216.202 101.922 216.681C99.8259 217.25 97.6238 217.555 95.3479 217.555L95.3438 217.557Z" fill="#B8B8B8"/>
<path d="M76.4005 195.291C75.1112 195.291 74.0653 194.245 74.0653 192.955C74.0653 187.16 76.3227 181.711 80.42 177.614C84.5173 173.516 89.9654 171.258 95.7594 171.258C97.0487 171.258 98.0946 172.304 98.0946 173.593C98.0946 174.883 97.0487 175.929 95.7594 175.929C91.2118 175.929 86.9385 177.699 83.7233 180.915C80.5081 184.131 78.7377 188.405 78.7377 192.953C78.7377 194.243 77.6919 195.289 76.4026 195.289L76.4005 195.291Z" fill="white"/>
</svg>
