<svg width="1440" height="166" viewBox="0 0 1440 166" fill="none" xmlns="http://www.w3.org/2000/svg">
<path d="M311.649 140.392C191.968 126.265 0 14.1275 0 14.1275L1440 0C1440 0 1412.23 82.5577 1338.51 124.057C1264.79 165.557 1023.03 93.5949 874.628 93.5949C726.223 93.5949 431.33 154.52 311.649 140.392Z" stroke="#1984E5" stroke-linecap="round"/>
<path d="M0 52.0963C0 52.0963 148.883 45.0325 294.894 107.282C440.904 169.531 707.074 179.686 878.936 146.133C1050.8 112.58 1253.78 91.3885 1326.54 91.3885C1399.31 91.3885 1440 37.9688 1440 37.9688L0 52.0963Z" stroke="#47C0AC" stroke-linecap="round"/>
<path d="M0 22.0728C0 22.0728 148.883 15.0091 294.894 77.2585C440.904 139.508 707.074 149.662 878.936 116.109C1050.8 82.5563 1253.78 61.365 1326.54 61.365C1399.31 61.365 1440 7.94531 1440 7.94531L0 22.0728Z" stroke="#FFE539" stroke-linecap="round"/>
</svg>
