<svg width="54" height="54" viewBox="0 0 54 54" fill="none" xmlns="http://www.w3.org/2000/svg">
<circle cx="27" cy="27" r="24.9167" stroke="#47C0AC" stroke-width="3.83333"/>
<path d="M24.5692 36.5918C24.3426 36.5923 24.1182 36.5435 23.9088 36.4482C23.6994 36.3529 23.5092 36.213 23.349 36.0365L16.0278 27.9679C15.8628 27.7926 15.7312 27.5829 15.6406 27.351C15.55 27.119 15.5022 26.8696 15.5001 26.6171C15.4979 26.3646 15.5414 26.1141 15.6281 25.8804C15.7147 25.6466 15.8427 25.4342 16.0046 25.2555C16.1666 25.0768 16.3592 24.9355 16.5712 24.8397C16.7833 24.7439 17.0105 24.6956 17.2396 24.6976C17.4688 24.6997 17.6953 24.7519 17.9059 24.8514C18.1166 24.9509 18.3071 25.0956 18.4664 25.2771L24.5674 31.9994L35.5527 19.8994C35.8763 19.5425 36.3153 19.342 36.7732 19.3418C37.231 19.3416 37.6701 19.5418 37.994 19.8984C38.3178 20.255 38.4998 20.7387 38.5 21.2431C38.5002 21.7476 38.3184 22.2314 37.9948 22.5883L25.7894 36.0365C25.6292 36.213 25.4389 36.3529 25.2295 36.4482C25.0201 36.5435 24.7957 36.5923 24.5692 36.5918Z" fill="#47C0AC"/>
</svg>
