<svg width="64" height="64" viewBox="0 0 64 64" fill="none" xmlns="http://www.w3.org/2000/svg">
<path d="M32.0006 58.6663C17.2727 58.6663 5.33398 46.7277 5.33398 31.9997C5.33398 17.2717 17.2727 5.33301 32.0006 5.33301C46.7286 5.33301 58.6673 17.2717 58.6673 31.9997C58.6673 46.7277 46.7286 58.6663 32.0006 58.6663ZM32.0006 53.333C37.6586 53.333 43.0848 51.0854 47.0856 47.0846C51.0864 43.0838 53.334 37.6576 53.334 31.9997C53.334 26.3417 51.0864 20.9155 47.0856 16.9147C43.0848 12.914 37.6586 10.6663 32.0006 10.6663C26.3427 10.6663 20.9165 12.914 16.9157 16.9147C12.9149 20.9155 10.6673 26.3417 10.6673 31.9997C10.6673 37.6576 12.9149 43.0838 16.9157 47.0846C20.9165 51.0854 26.3427 53.333 32.0006 53.333V53.333ZM32.0006 18.6663C32.7079 18.6663 33.3862 18.9473 33.8863 19.4474C34.3864 19.9475 34.6673 20.6258 34.6673 21.333V34.6663C34.6673 35.3736 34.3864 36.0519 33.8863 36.552C33.3862 37.0521 32.7079 37.333 32.0006 37.333C31.2934 37.333 30.6151 37.0521 30.115 36.552C29.6149 36.0519 29.334 35.3736 29.334 34.6663V21.333C29.334 20.6258 29.6149 19.9475 30.115 19.4474C30.6151 18.9473 31.2934 18.6663 32.0006 18.6663V18.6663ZM32.0006 45.333C31.2934 45.333 30.6151 45.0521 30.115 44.552C29.6149 44.0519 29.334 43.3736 29.334 42.6663C29.334 41.9591 29.6149 41.2808 30.115 40.7807C30.6151 40.2806 31.2934 39.9997 32.0006 39.9997C32.7079 39.9997 33.3862 40.2806 33.8863 40.7807C34.3864 41.2808 34.6673 41.9591 34.6673 42.6663C34.6673 43.3736 34.3864 44.0519 33.8863 44.552C33.3862 45.0521 32.7079 45.333 32.0006 45.333Z" fill="#DC5A5A"/>
</svg>
