<svg width="30" height="26" viewBox="0 0 30 26" fill="none" xmlns="http://www.w3.org/2000/svg">
<path d="M20.2 6.12534L24.1 10.0253M24.1 10.0253L28 6.12534M24.1 10.0253V2.22534M20.2 24.3253V22.7653C20.2 20.5811 20.2 19.4891 19.7749 18.6547C19.401 17.9209 18.8045 17.3243 18.0706 16.9504C17.2363 16.5253 16.1443 16.5253 13.96 16.5253H8.24C6.05579 16.5253 4.96369 16.5253 4.12944 16.9504C3.3956 17.3243 2.79898 17.9209 2.42507 18.6547C2 19.4891 2 20.5811 2 22.7653V24.3253M15.65 6.77534C15.65 9.28824 13.6129 11.3253 11.1 11.3253C8.5871 11.3253 6.55 9.28824 6.55 6.77534C6.55 4.26244 8.5871 2.22534 11.1 2.22534C13.6129 2.22534 15.65 4.26244 15.65 6.77534Z" stroke="#47C0AC" stroke-width="3" stroke-linecap="round" stroke-linejoin="round"/>
</svg>
