<svg width="49" height="51" viewBox="0 0 49 51" fill="none" xmlns="http://www.w3.org/2000/svg">
<rect x="0.5" y="0.0078125" width="48" height="50.1818" rx="6.54545" fill="black"/>
<path d="M33.2741 26.1422C33.2375 22.0078 36.6029 19.9964 36.7568 19.9027C34.8508 17.0768 31.8966 16.6907 30.8585 16.6599C28.3773 16.3943 25.9705 18.1697 24.7066 18.1697C23.4175 18.1697 21.4711 16.6855 19.3734 16.7292C16.674 16.7715 14.1487 18.3608 12.7636 20.8289C9.9053 25.8612 12.0371 33.2564 14.7756 37.3241C16.1455 39.3175 17.7462 41.5406 19.8414 41.4623C21.8912 41.3777 22.6568 40.1347 25.1304 40.1347C27.5814 40.1347 28.3004 41.4623 30.4372 41.4123C32.6371 41.3777 34.0221 39.4112 35.344 37.4011C36.9271 35.119 37.5628 32.869 37.5881 32.7536C37.5376 32.7356 33.317 31.0962 33.2741 26.1422Z" fill="white"/>
<path d="M29.2424 13.9796C30.3449 12.5776 31.0992 10.6701 30.8898 8.73438C29.2942 8.80621 27.2986 9.8568 26.1495 11.2281C25.1328 12.4365 24.2246 14.4171 24.4592 16.2797C26.2517 16.4156 28.092 15.3599 29.2424 13.9796Z" fill="white"/>
</svg>
