<svg width="177" height="53" viewBox="0 0 177 53" fill="none" xmlns="http://www.w3.org/2000/svg">
<path d="M174.951 46.4981C174.951 49.2495 172.722 51.4782 169.965 51.4782H6.81992C4.06462 51.4782 1.82812 49.2495 1.82812 46.4981V6.78347C1.82812 4.03337 4.06462 1.79688 6.81992 1.79688H169.964C172.722 1.79688 174.949 4.03337 174.949 6.78347L174.951 46.4981Z" fill="white"/>
<path d="M169.965 52.6377H6.81995C3.4301 52.6377 0.670898 49.885 0.670898 46.4991V6.78577C0.670898 3.39723 3.4301 0.640625 6.81995 0.640625H169.964C173.35 0.640625 176.113 3.39723 176.113 6.78577V46.4991C176.116 49.885 173.353 52.6377 169.965 52.6377Z" fill="#A6A6A6"/>
<path d="M174.951 46.4981C174.951 49.2495 172.722 51.4782 169.965 51.4782H6.81992C4.06462 51.4782 1.82812 49.2495 1.82812 46.4981V6.78347C1.82812 4.03337 4.06462 1.79688 6.81992 1.79688H169.964C172.722 1.79688 174.949 4.03337 174.949 6.78347L174.951 46.4981Z" fill="black"/>
<path d="M39.8461 26.3657C39.8084 22.1749 43.2775 20.136 43.4362 20.0411C41.4714 17.1766 38.4262 16.7852 37.356 16.754C34.7984 16.4848 32.3174 18.2844 31.0145 18.2844C29.6856 18.2844 27.6793 16.78 25.5169 16.8242C22.7343 16.8671 20.1311 18.4782 18.7034 20.9799C15.757 26.0809 17.9545 33.5771 20.7774 37.7003C22.1895 39.7209 23.8396 41.9743 25.9993 41.895C28.1123 41.8092 28.9016 40.5492 31.4514 40.5492C33.9779 40.5492 34.719 41.895 36.9217 41.8443C39.1894 41.8092 40.6171 39.8159 41.9798 37.7783C43.6117 35.4651 44.267 33.1844 44.293 33.0674C44.241 33.0492 39.8903 31.3874 39.8461 26.3657Z" fill="white"/>
<path d="M35.685 14.0434C36.8214 12.6222 37.599 10.6887 37.3832 8.72656C35.7383 8.79938 33.6812 9.86431 32.4967 11.2543C31.4487 12.4792 30.5124 14.4868 30.7543 16.3748C32.602 16.5127 34.4991 15.4425 35.685 14.0434Z" fill="white"/>
<path d="M169.965 0.640625H82.5796L116.807 52.6377H169.965C173.351 52.6377 176.114 49.885 176.114 46.4952V6.78577C176.116 3.39723 173.353 0.640625 169.965 0.640625Z" fill="url(#paint0_linear_519_18490)"/>
<path d="M70.4505 41.6011H67.4976L65.88 36.5183H60.2576L58.7167 41.6011H55.8418L61.4135 24.2969H64.8541L70.4505 41.6011ZM65.3924 34.3858L63.9296 29.8673C63.7748 29.4057 63.4836 28.3187 63.0571 26.6075H63.0051C62.8334 27.3434 62.5591 28.4305 62.1833 29.8673L60.7452 34.3858H65.3924Z" fill="white"/>
<path d="M84.7511 35.2022C84.7511 37.3242 84.1751 39.0016 83.0217 40.233C81.9893 41.3291 80.7059 41.8765 79.1755 41.8765C77.5228 41.8765 76.3344 41.2875 75.6127 40.1068V46.6538H72.8405V33.2179C72.8405 31.8851 72.8054 30.5185 72.7378 29.1168H75.1758L75.3306 31.0946H75.3826C76.3071 29.6044 77.7101 28.8594 79.5929 28.8594C81.0648 28.8594 82.2936 29.4406 83.2766 30.6044C84.2583 31.7707 84.7511 33.3024 84.7511 35.2022ZM81.9269 35.3036C81.9269 34.0891 81.6539 33.0879 81.1051 32.2986C80.5057 31.4782 79.7008 31.0673 78.6918 31.0673C78.0078 31.0673 77.3863 31.2961 76.8311 31.7473C76.2746 32.2024 75.9105 32.7966 75.7402 33.5326C75.6543 33.8759 75.6114 34.1554 75.6114 34.3765V36.4582C75.6114 37.3645 75.8897 38.1304 76.4462 38.7571C77.0027 39.3813 77.7257 39.6947 78.6151 39.6947C79.6592 39.6947 80.4719 39.2903 81.0531 38.488C81.6356 37.6831 81.9269 36.6221 81.9269 35.3036Z" fill="white"/>
<path d="M99.1025 35.2022C99.1025 37.3242 98.5265 39.0016 97.3732 40.233C96.3394 41.3291 95.0573 41.8765 93.5256 41.8765C91.8729 41.8765 90.6845 41.2875 89.9628 40.1068V46.6538H87.1906V33.2179C87.1906 31.8851 87.1555 30.5185 87.0879 29.1168H89.5259L89.6807 31.0946H89.7327C90.6559 29.6044 92.0589 28.8594 93.943 28.8594C95.4136 28.8594 96.6424 29.4406 97.628 30.6044C98.6084 31.7707 99.1025 33.3024 99.1025 35.2022ZM96.277 35.3036C96.277 34.0891 96.0026 33.0879 95.4539 32.2986C94.8545 31.4782 94.0522 31.0673 93.0432 31.0673C92.3592 31.0673 91.7377 31.2961 91.1799 31.7473C90.6234 32.2024 90.2606 32.7966 90.0902 33.5326C90.0057 33.8759 89.9602 34.1554 89.9602 34.3765V36.4582C89.9602 37.3645 90.2398 38.1304 90.7937 38.7571C91.3502 39.38 92.0732 39.6947 92.9652 39.6947C94.0106 39.6947 94.8233 39.2903 95.4032 38.488C95.9857 37.6831 96.277 36.6221 96.277 35.3036Z" fill="white"/>
<path d="M115.148 36.7454C115.148 38.2187 114.633 39.4162 113.609 40.3407C112.483 41.3498 110.911 41.8556 108.896 41.8556C107.034 41.8556 105.541 41.4967 104.415 40.7776L105.056 38.467C106.272 39.1874 107.607 39.5463 109.061 39.5463C110.106 39.5463 110.919 39.3096 111.499 38.8402C112.08 38.3695 112.374 37.7402 112.374 36.9548C112.374 36.2513 112.131 35.6623 111.654 35.1825C111.174 34.704 110.381 34.258 109.266 33.8484C106.237 32.7185 104.721 31.0658 104.721 28.8917C104.721 27.4718 105.256 26.3094 106.325 25.4005C107.394 24.4929 108.811 24.0391 110.574 24.0391C112.149 24.0391 113.461 24.3134 114.503 24.8608L113.807 27.1207C112.827 26.5902 111.72 26.325 110.482 26.325C109.504 26.325 108.737 26.5655 108.188 27.044C107.727 27.4718 107.493 27.9932 107.493 28.6122C107.493 29.2948 107.759 29.8617 108.29 30.3064C108.75 30.716 109.59 31.162 110.805 31.6405C112.295 32.2413 113.39 32.9408 114.09 33.7444C114.797 34.548 115.148 35.5505 115.148 36.7454Z" fill="white"/>
<path d="M124.337 31.1999H121.281V37.2579C121.281 38.7987 121.819 39.5672 122.899 39.5672C123.394 39.5672 123.805 39.5256 124.13 39.4385L124.207 41.5436C123.661 41.7478 122.941 41.8505 122.051 41.8505C120.956 41.8505 120.1 41.5163 119.483 40.848C118.868 40.1796 118.558 39.0601 118.558 37.4841V31.1947H116.738V29.1142H118.558V26.8296L121.281 26.0078V29.1142H124.337V31.1999Z" fill="white"/>
<path d="M138.097 35.2568C138.097 37.1747 137.548 38.7494 136.453 39.9807C135.308 41.2485 133.784 41.8804 131.884 41.8804C130.051 41.8804 128.593 41.2732 127.506 40.06C126.419 38.8443 125.875 37.3125 125.875 35.4648C125.875 33.5313 126.437 31.9476 127.557 30.7162C128.679 29.4835 130.19 28.8672 132.09 28.8672C133.92 28.8672 135.391 29.4757 136.504 30.6902C137.568 31.8682 138.097 33.3896 138.097 35.2568ZM135.223 35.3205C135.223 34.1776 134.976 33.1971 134.481 32.3767C133.9 31.3858 133.067 30.8904 131.989 30.8904C130.879 30.8904 130.027 31.3858 129.447 32.3767C128.951 33.1971 128.704 34.1945 128.704 35.3725C128.704 36.5168 128.951 37.4998 129.447 38.3177C130.047 39.3085 130.883 39.8039 131.966 39.8039C133.026 39.8039 133.857 39.2981 134.457 38.293C134.967 37.453 135.223 36.4661 135.223 35.3205Z" fill="white"/>
<path d="M147.111 31.5549C146.837 31.5042 146.543 31.4782 146.238 31.4782C145.262 31.4782 144.508 31.8448 143.978 32.5834C143.517 33.2335 143.286 34.0553 143.286 35.0474V41.5944H140.514V33.0463C140.514 31.6095 140.486 30.2988 140.433 29.1181H142.848L142.949 31.5055H143.026C143.32 30.685 143.78 30.0231 144.412 29.5277C145.03 29.0817 145.697 28.8594 146.416 28.8594C146.672 28.8594 146.903 28.8776 147.109 28.9101L147.111 31.5549Z" fill="white"/>
<path d="M159.51 34.7692C159.51 35.2659 159.477 35.6846 159.408 36.0265H151.092C151.123 37.2592 151.526 38.2032 152.298 38.8533C152.999 39.4333 153.906 39.7245 155.019 39.7245C156.25 39.7245 157.373 39.5295 158.384 39.1355L158.818 41.0586C157.637 41.5735 156.243 41.8297 154.635 41.8297C152.7 41.8297 151.181 41.2602 150.076 40.1237C148.974 38.986 148.421 37.4568 148.421 35.5415C148.421 33.6613 148.935 32.0945 149.963 30.8449C151.04 29.5108 152.495 28.8438 154.325 28.8438C156.124 28.8438 157.485 29.5108 158.41 30.8449C159.142 31.902 159.51 33.2127 159.51 34.7692ZM156.866 34.0501C156.886 33.227 156.704 32.5184 156.328 31.9189C155.848 31.1466 155.11 30.7617 154.12 30.7617C153.214 30.7617 152.475 31.1375 151.913 31.8916C151.452 32.491 151.178 33.2114 151.093 34.0475L156.866 34.0501Z" fill="white"/>
<path d="M64.056 18.1067H62.6036L61.8091 15.6089H59.046L58.2879 18.1067H56.8745L59.6129 9.60156H61.3033L64.056 18.1067ZM61.5698 14.5609L60.8508 12.34C60.7754 12.1124 60.6362 11.5832 60.4217 10.738H60.3957C60.3073 11.1034 60.1811 11.6339 59.9913 12.34L59.2852 14.5609H61.5698Z" fill="white"/>
<path d="M70.9035 11.9688L68.5812 18.1009H67.2562L65.0093 11.9688H66.4734L67.5214 15.2117C67.6983 15.7539 67.8491 16.2714 67.9622 16.7629H67.9999C68.1014 16.3221 68.2522 15.8046 68.4407 15.2117L69.4758 11.9688H70.9035Z" fill="white"/>
<path d="M75.8468 18.102L75.7454 17.396H75.7077C75.2916 17.9642 74.6856 18.2412 73.9159 18.2412C72.8184 18.2412 72.0356 17.4714 72.0356 16.4364C72.0356 14.9228 73.3476 14.1401 75.6192 14.1401V14.0269C75.6192 13.2195 75.1901 12.8151 74.345 12.8151C73.739 12.8151 73.2085 12.9672 72.743 13.2702L72.466 12.3743C73.0343 12.0206 73.7403 11.8438 74.5738 11.8438C76.1758 11.8438 76.9845 12.6889 76.9845 14.3806V16.6392C76.9845 17.2581 77.0105 17.7379 77.0729 18.1033L75.8468 18.102ZM75.6569 15.0477C74.1421 15.0477 73.3853 15.4143 73.3853 16.2842C73.3853 16.9279 73.7767 17.2425 74.3189 17.2425C75.0133 17.2425 75.6569 16.7133 75.6569 15.9943V15.0477Z" fill="white"/>
<path d="M80.0199 10.9561C79.5661 10.9561 79.2124 10.6024 79.2124 10.1356C79.2124 9.6688 79.5778 9.32812 80.0459 9.32812C80.5127 9.32812 80.8911 9.6688 80.8781 10.1356C80.8781 10.6284 80.5257 10.9561 80.0199 10.9561ZM80.7272 18.0985H79.3645V11.9664H80.7272V18.0985Z" fill="white"/>
<path d="M84.5111 18.1022H83.1484V9.15625H84.5111V18.1022Z" fill="white"/>
<path d="M90.3023 18.1033L90.2009 17.3973H90.1632C89.7471 17.9655 89.1412 18.2425 88.3714 18.2425C87.274 18.2425 86.4912 17.4727 86.4912 16.4377C86.4912 14.9241 87.8032 14.1414 90.0748 14.1414V14.0282C90.0748 13.2208 89.6457 12.8164 88.8005 12.8164C88.1946 12.8164 87.6641 12.9685 87.1986 13.2715L86.9203 12.3743C87.4885 12.0206 88.1946 11.8438 89.0281 11.8438C90.63 11.8438 91.4388 12.6889 91.4388 14.3806V16.6392C91.4388 17.2581 91.4661 17.7379 91.5259 18.1033H90.3023ZM90.1125 15.049C88.5977 15.049 87.8409 15.4156 87.8409 16.2855C87.8409 16.9292 88.2323 17.2438 88.7745 17.2438C89.4689 17.2438 90.1125 16.7146 90.1125 15.9956V15.049Z" fill="white"/>
<path d="M96.9599 18.2413C96.09 18.2413 95.4477 17.8747 95.0316 17.1556H95.0043L94.9263 18.1022H93.7651C93.8028 17.6107 93.8158 17.0542 93.8158 16.4496V9.15625H95.1798V12.8673H95.2059C95.6102 12.1859 96.2643 11.8452 97.1615 11.8452C98.6386 11.8452 99.6736 13.1078 99.6736 14.949C99.6736 16.8526 98.5242 18.2413 96.9599 18.2413ZM96.683 12.9154C95.8989 12.9154 95.1811 13.5967 95.1811 14.5433V15.6161C95.1811 16.4613 95.8261 17.1556 96.6596 17.1556C97.6803 17.1556 98.2875 16.3234 98.2875 14.9984C98.2862 13.7619 97.6543 12.9154 96.683 12.9154Z" fill="white"/>
<path d="M103.05 18.1022H101.689V9.15625H103.05V18.1022Z" fill="white"/>
<path d="M110.468 15.361H106.378C106.405 16.5222 107.172 17.1775 108.309 17.1775C108.914 17.1775 109.47 17.0761 109.961 16.8875L110.173 17.8341C109.593 18.0864 108.912 18.2125 108.117 18.2125C106.198 18.2125 105.063 17.0007 105.063 15.1217C105.063 13.2415 106.225 11.8281 107.964 11.8281C109.528 11.8281 110.514 12.9893 110.514 14.7434C110.519 14.9826 110.507 15.1972 110.468 15.361ZM109.219 14.3897C109.219 13.4431 108.739 12.7747 107.868 12.7747C107.085 12.7747 106.469 13.4561 106.378 14.3897H109.219Z" fill="white"/>
<path d="M118.728 18.2412C116.936 18.2412 115.775 16.9032 115.775 15.0867C115.775 13.1934 116.961 11.8438 118.831 11.8438C120.595 11.8438 121.784 13.118 121.784 14.9865C121.784 16.9032 120.559 18.2412 118.728 18.2412ZM118.78 12.8398C117.796 12.8398 117.165 13.7604 117.165 15.0477C117.165 16.3102 117.809 17.2308 118.767 17.2308C119.725 17.2308 120.368 16.2465 120.368 15.0216C120.369 13.7734 119.738 12.8398 118.78 12.8398Z" fill="white"/>
<path d="M129.109 18.1033H127.748V14.5822C127.748 13.4977 127.332 12.9542 126.511 12.9542C125.704 12.9542 125.147 13.6485 125.147 14.456V18.1033H123.786V13.724C123.786 13.1817 123.772 12.6005 123.735 11.9699H124.934L124.998 12.9165H125.036C125.4 12.2611 126.146 11.8438 126.978 11.8438C128.264 11.8438 129.109 12.8281 129.109 14.43V18.1033Z" fill="white"/>
<path d="M138.025 12.9952H136.526V15.9728C136.526 16.7309 136.79 17.1093 137.319 17.1093C137.56 17.1093 137.763 17.0833 137.925 17.0456L137.963 18.0806C137.698 18.182 137.343 18.2327 136.905 18.2327C135.831 18.2327 135.19 17.6398 135.19 16.0872V12.9952H134.295V11.9731H135.19V10.8497L136.526 10.4453V11.9718H138.025V12.9952Z" fill="white"/>
<path d="M145.242 18.1022H143.878V14.607C143.878 13.5096 143.462 12.9544 142.641 12.9544C141.935 12.9544 141.28 13.4342 141.28 14.4055V18.1022H139.916V9.15625H141.28V12.84H141.306C141.735 12.1716 142.354 11.8426 143.149 11.8426C144.448 11.8426 145.242 12.8517 145.242 14.4549V18.1022Z" fill="white"/>
<path d="M152.205 15.361H148.116C148.142 16.5222 148.909 17.1775 150.045 17.1775C150.653 17.1775 151.206 17.0761 151.698 16.8875L151.911 17.8341C151.331 18.0864 150.649 18.2125 149.854 18.2125C147.935 18.2125 146.8 17.0007 146.8 15.1217C146.8 13.2415 147.962 11.8281 149.701 11.8281C151.265 11.8281 152.251 12.9893 152.251 14.7434C152.256 14.9826 152.243 15.1972 152.205 15.361ZM150.956 14.3897C150.956 13.4431 150.477 12.7747 149.606 12.7747C148.822 12.7747 148.205 13.4561 148.116 14.3897H150.956Z" fill="white"/>
<defs>
<linearGradient id="paint0_linear_519_18490" x1="129.348" y1="52.7784" x2="129.348" y2="5.90847" gradientUnits="userSpaceOnUse">
<stop stop-color="#1A1A1A" stop-opacity="0.1"/>
<stop offset="0.1235" stop-color="#212121" stop-opacity="0.1506"/>
<stop offset="0.3085" stop-color="#353535" stop-opacity="0.2265"/>
<stop offset="0.5321" stop-color="#575757" stop-opacity="0.3181"/>
<stop offset="0.7834" stop-color="#858585" stop-opacity="0.4212"/>
<stop offset="1" stop-color="#B3B3B3" stop-opacity="0.51"/>
</linearGradient>
</defs>
</svg>
