<svg width="25" height="26" viewBox="0 0 25 26" fill="none" xmlns="http://www.w3.org/2000/svg">
<path d="M12.0414 14.5661L17.5453 9.06213C17.755 8.85958 18.0359 8.74751 18.3274 8.75004C18.619 8.75258 18.8979 8.86951 19.104 9.07567C19.3102 9.28183 19.4271 9.56071 19.4296 9.85225C19.4322 10.1438 19.3201 10.4247 19.1176 10.6344L12.8275 16.9244C12.619 17.1329 12.3362 17.25 12.0414 17.25C11.7465 17.25 11.4638 17.1329 11.2552 16.9244L4.96516 10.6344C4.76261 10.4247 4.65054 10.1438 4.65307 9.85225C4.6556 9.56071 4.77254 9.28183 4.9787 9.07567C5.18486 8.86951 5.46374 8.75258 5.75528 8.75004C6.04682 8.74751 6.32769 8.85958 6.5374 9.06213L12.0414 14.5661Z" fill="#47C0AC"/>
</svg>
