<svg width="26" height="49" viewBox="0 0 26 49" fill="none" xmlns="http://www.w3.org/2000/svg">
<path d="M20.2109 24.5063L12.4406 16.736C12.1547 16.4399 11.9965 16.0434 12.0001 15.6318C12.0036 15.2202 12.1687 14.8265 12.4598 14.5355C12.7508 14.2444 13.1445 14.0793 13.5561 14.0757C13.9677 14.0722 14.3642 14.2304 14.6603 14.5163L23.5404 23.3964C23.8347 23.6908 24 24.09 24 24.5063C24 24.9225 23.8347 25.3217 23.5404 25.6161L14.6603 34.4962C14.3642 34.7821 13.9677 34.9404 13.5561 34.9368C13.1445 34.9332 12.7508 34.7681 12.4598 34.4771C12.1687 34.186 12.0036 33.7923 12.0001 33.3807C11.9965 32.9691 12.1547 32.5726 12.4406 32.2766L20.2109 24.5063Z" fill="black"/>
</svg>
