<svg width="22" height="24" viewBox="0 0 22 24" fill="none" xmlns="http://www.w3.org/2000/svg">
<path d="M8.66667 4.61133C9.09622 4.61133 9.44444 4.95955 9.44444 5.38911V6.16688H12.5556V5.38911C12.5556 4.95955 12.9038 4.61133 13.3333 4.61133C13.7629 4.61133 14.1111 4.95955 14.1111 5.38911V6.16688H16.4444C17.3036 6.16688 18 6.86333 18 7.72244V17.8335C18 18.6927 17.3036 19.3891 16.4444 19.3891H5.55556C4.69645 19.3891 4 18.6927 4 17.8335V7.72244C4 6.86333 4.69645 6.16688 5.55556 6.16688H7.88889V5.38911C7.88889 4.95955 8.23711 4.61133 8.66667 4.61133ZM7.88889 7.72244H5.55556V10.0558H16.4444V7.72244H14.1111V8.50022C14.1111 8.92977 13.7629 9.27799 13.3333 9.27799C12.9038 9.27799 12.5556 8.92977 12.5556 8.50022V7.72244H9.44444V8.50022C9.44444 8.92977 9.09622 9.27799 8.66667 9.27799C8.23711 9.27799 7.88889 8.92977 7.88889 8.50022V7.72244ZM16.4444 11.6113H5.55556V17.8335H16.4444V11.6113Z" fill="#47C0AC"/>
</svg>
