<svg width="25" height="26" viewBox="0 0 25 26" fill="none" xmlns="http://www.w3.org/2000/svg">
<path d="M9.03158 2.7915C9.58578 2.7915 10.035 3.24855 10.035 3.81234V4.83317H14.0489V3.81234C14.0489 3.24855 14.4982 2.7915 15.0524 2.7915C15.6066 2.7915 16.0559 3.24855 16.0559 3.81234V4.83317H19.0663C20.1747 4.83317 21.0732 5.74726 21.0732 6.87484V20.1457C21.0732 21.2733 20.1747 22.1873 19.0663 22.1873H5.01769C3.90928 22.1873 3.01074 21.2733 3.01074 20.1457V6.87484C3.01074 5.74726 3.90928 4.83317 5.01769 4.83317H8.0281V3.81234C8.0281 3.24855 8.47737 2.7915 9.03158 2.7915ZM8.0281 6.87484H5.01769V9.93734H19.0663V6.87484H16.0559V7.89567C16.0559 8.45946 15.6066 8.9165 15.0524 8.9165C14.4982 8.9165 14.0489 8.45946 14.0489 7.89567V6.87484H10.035V7.89567C10.035 8.45946 9.58578 8.9165 9.03158 8.9165C8.47737 8.9165 8.0281 8.45946 8.0281 7.89567V6.87484ZM19.0663 11.979H5.01769V20.1457H19.0663V11.979Z" fill="#47C0AC"/>
</svg>
