<svg width="41" height="41" viewBox="0 0 41 41" fill="none" xmlns="http://www.w3.org/2000/svg">
<ellipse cx="20.1836" cy="20.5803" rx="20" ry="20.2048" fill="#F2FAFF"/>
<path fill-rule="evenodd" clip-rule="evenodd" d="M25.2448 30.2979C23.3029 29.8114 19.3274 28.4398 15.7233 24.8357C12.1193 21.2317 10.7477 17.2562 10.2611 15.3143C9.98152 14.1983 10.485 13.1214 11.3388 12.5116L13.5769 10.9129C14.8865 9.97751 16.7083 10.2949 17.6243 11.6181L19.0334 13.6534C19.6315 14.5174 19.4251 15.7015 18.5702 16.3123L17.4466 17.1148C17.6166 17.7652 18.1455 19.101 19.8018 20.7573C21.4581 22.4136 22.7938 22.9425 23.4443 23.1126L24.2469 21.989C24.8576 21.1339 26.0417 20.9276 26.9056 21.5257L28.941 22.9348C30.2641 23.8509 30.5816 25.6726 29.6462 26.9822L28.0475 29.2203C27.4377 30.074 26.3608 30.5776 25.2448 30.2979ZM17.0828 23.4762C20.3603 26.7537 23.9771 27.9983 25.7121 28.433C25.9657 28.4965 26.2722 28.398 26.483 28.1028L28.0817 25.8647C28.3935 25.4282 28.2877 24.8209 27.8466 24.5156L25.8113 23.1065L24.95 24.3122C24.5981 24.8049 23.9472 25.1914 23.1893 25.0279C22.2434 24.8238 20.4948 24.1692 18.4423 22.1168C16.3899 20.0643 15.7353 18.3157 15.5312 17.3698C15.3677 16.6119 15.7542 15.961 16.2469 15.609L17.4526 14.7478L16.0435 12.7125C15.7382 12.2714 15.1309 12.1656 14.6944 12.4774L12.4563 14.0761C12.1611 14.2869 12.0626 14.5935 12.1261 14.847C12.5608 16.582 13.8054 20.1989 17.0828 23.4762Z" fill="#1984E5"/>
</svg>
