<svg width="16" height="16" viewBox="0 0 16 16" fill="none" xmlns="http://www.w3.org/2000/svg">
<path d="M6.73174 13.21C6.61354 13.2103 6.49645 13.1865 6.3872 13.14C6.27796 13.0934 6.17869 13.0252 6.09511 12.939L2.27535 9.0006C2.18929 8.91503 2.12062 8.81266 2.07335 8.69945C2.02608 8.58624 2.00116 8.46446 2.00004 8.34121C1.99892 8.21797 2.02162 8.09573 2.06681 7.98162C2.11201 7.86752 2.1788 7.76383 2.26329 7.67662C2.34778 7.5894 2.44827 7.52041 2.5589 7.47366C2.66953 7.42691 2.78808 7.40333 2.90764 7.40432C3.02721 7.4053 3.14538 7.43082 3.25527 7.47938C3.36517 7.52795 3.46458 7.59859 3.5477 7.68718L6.73084 10.9684L12.4623 5.06219C12.6311 4.88802 12.8602 4.79013 13.099 4.79004C13.3379 4.78995 13.567 4.88768 13.736 5.06173C13.9049 5.23578 13.9999 5.47188 14 5.71811C14.0001 5.96434 13.9053 6.20051 13.7364 6.37468L7.36836 12.939C7.28478 13.0252 7.18552 13.0934 7.07627 13.14C6.96702 13.1865 6.84994 13.2103 6.73174 13.21Z" fill="#47C0AC"/>
</svg>
