<svg width="32" height="32" viewBox="0 0 32 32" fill="none" xmlns="http://www.w3.org/2000/svg">
<path d="M7.05752 7.05727C7.57822 6.53657 8.42244 6.53657 8.94313 7.05727L16.0003 14.1145L23.0575 7.05727C23.5782 6.53657 24.4224 6.53657 24.9431 7.05727C25.4638 7.57797 25.4638 8.42219 24.9431 8.94289L17.8859 16.0001L24.9431 23.0573C25.4638 23.578 25.4638 24.4222 24.9431 24.9429C24.4224 25.4636 23.5782 25.4636 23.0575 24.9429L16.0003 17.8857L8.94313 24.9429C8.42244 25.4636 7.57822 25.4636 7.05752 24.9429C6.53682 24.4222 6.53682 23.578 7.05752 23.0573L14.1147 16.0001L7.05752 8.94289C6.53682 8.42219 6.53682 7.57797 7.05752 7.05727Z" fill="black"/>
</svg>
