<svg width="1440" height="1137" viewBox="0 0 1440 1137" fill="none" xmlns="http://www.w3.org/2000/svg">
<path d="M-36.0343 1051.63C-42.0852 1173.31 -8.94602 1251.53 73.3913 1348.68C155.729 1445.79 270.312 1512.52 386.759 1567.79C503.205 1623.09 624.579 1669.33 734.694 1735.98C795.79 1772.98 855.124 1807.25 927.096 1813.13C1007.93 1819.74 1107.09 1775.53 1187.56 1768.63C1326.73 1756.72 1453.21 1790.02 1530.93 1652.99C1568.87 1586.11 1559.73 1475.43 1559.19 1399.24C1558.68 1323.62 1554.6 1247.92 1551.02 1172.27C1536.9 873.735 1480.22 845.11 1504.76 630.942C1512.16 566.353 1526.92 485.11 1509.02 369.933C1497.99 298.891 1483.08 202.944 1417.26 125.865C1321.4 13.6021 1166.5 -1.28291 1086.64 -8.93362C664.79 -49.4252 332.454 258.789 297.936 291.734C-1.72091 577.803 -31.4643 943.684 -36.0343 1051.6" stroke="#C6D6F5" stroke-miterlimit="10"/>
<path d="M915.429 1737.49C949.232 1748.29 983.776 1755.47 1020.36 1753.34C1114.37 1747.9 1207.53 1718.86 1299.03 1697.75C1371.87 1680.97 1452.91 1655.72 1496.74 1589.11C1560.39 1492.38 1513.95 1337.6 1507.36 1231.66C1495.72 1043.8 1465.24 856.667 1470.8 668.522C1473.49 577.807 1484.57 487.143 1479.31 396.557C1474.05 305.972 1450.71 213.097 1393.11 143.876C1315.73 50.8701 1189.68 15.6091 1070.22 9.1034C656.214 -13.3803 325.766 299.44 289.691 335.872C214.375 411.911 -120.361 749.843 -51.2746 1133.19C-27.6074 1264.6 24.348 1393.62 125.042 1483.01C206.511 1555.35 309.503 1593.58 413.465 1617.76C494.628 1636.62 577.272 1647.37 659.201 1661.97C721.905 1673.13 782.771 1686.98 842.232 1710.29C866.563 1719.82 890.766 1729.6 915.378 1737.46L915.429 1737.49Z" stroke="#FFBF5E" stroke-opacity="0.5" stroke-miterlimit="10"/>
<path d="M1466.21 1491.02C1557.91 1408.12 1590.77 1328.88 1602.57 1201.6C1614.36 1074.32 1581.63 946.236 1539.35 824.996C1497.07 703.755 1444.86 585.56 1415.22 460.624C1395.67 378.158 1386.12 293.453 1363.27 211.846C1340.39 130.238 1302.09 49.5933 1237.32 -3.51933C1134.36 -87.8854 986.225 -84.6846 863.957 -40.1595C693.104 22.0611 554.676 152.175 435.421 291.918C316.165 431.66 210.646 584.545 79.0592 711.979C15.6148 773.418 -53.7018 828.769 -111.478 895.882C-169.255 962.995 -215.823 1044.84 -222.232 1134.98C-230.836 1256.09 -166.012 1372.15 -86.2793 1463.34C107.016 1684.37 398.911 1803.69 685.113 1801.01C971.315 1798.33 1249.22 1679.33 1466.23 1491.05" stroke="#CBE8E1" stroke-miterlimit="10"/>
</svg>
