<svg width="30" height="30" viewBox="0 0 30 30" fill="none" xmlns="http://www.w3.org/2000/svg">
<path d="M10.9146 6.81616C10.2405 6.81616 9.58163 6.61628 9.02117 6.24179C8.46072 5.86731 8.02389 5.33504 7.76594 4.71229C7.50799 4.08955 7.4405 3.4043 7.572 2.7432C7.70351 2.08209 8.02809 1.47483 8.50472 0.998204C8.98135 0.521576 9.58861 0.196988 10.2497 0.0654868C10.9108 -0.0660146 11.5961 0.00147667 12.2188 0.259426C12.8416 0.517375 13.3738 0.954197 13.7483 1.51465C14.1228 2.07511 14.3227 2.73403 14.3227 3.40808C14.3227 3.85563 14.2345 4.29881 14.0633 4.71229C13.892 5.12578 13.6409 5.50148 13.3245 5.81795C13.008 6.13442 12.6323 6.38546 12.2188 6.55673C11.8053 6.728 11.3622 6.81616 10.9146 6.81616ZM20.4572 17.722H13.6411C13.2795 17.722 12.9328 17.5784 12.6771 17.3227C12.4215 17.0671 12.2778 16.7203 12.2778 16.3588V14.9955H17.7308C18.0923 14.9955 18.439 14.8519 18.6947 14.5963C18.9504 14.3406 19.094 13.9939 19.094 13.6323C19.094 13.2708 18.9504 12.924 18.6947 12.6684C18.439 12.4127 18.0923 12.2691 17.7308 12.2691H12.2778V9.54262C12.2778 9.18107 12.1342 8.83432 11.8785 8.57867C11.6229 8.32301 11.2761 8.17939 10.9146 8.17939C10.553 8.17939 10.2063 8.32301 9.95065 8.57867C9.69499 8.83432 9.55137 9.18107 9.55137 9.54262V16.3588C9.55137 17.4434 9.98224 18.4837 10.7492 19.2506C11.5162 20.0176 12.5564 20.4485 13.6411 20.4485H19.8301L24.8741 26.3335C25.107 26.6061 25.4378 26.7759 25.7951 26.8063C26.1523 26.8367 26.5071 26.7251 26.7826 26.4958L29.5091 24.2233C29.7871 23.9915 29.9617 23.6588 29.9944 23.2983C30.0271 22.9378 29.9153 22.5791 29.6836 22.3011C29.4518 22.0231 29.1191 21.8485 28.7586 21.8158C28.3981 21.783 28.0394 21.8949 27.7614 22.1266L26.0683 23.5403L21.4933 18.1991C21.3653 18.0495 21.2064 17.9294 21.0275 17.847C20.8487 17.7646 20.6541 17.722 20.4572 17.722ZM10.9146 29.9911C12.6724 29.9902 14.4039 29.5649 15.9621 28.7513C17.5202 27.9377 18.8589 26.7598 19.8642 25.3179C20.0623 25.0212 20.1362 24.6587 20.07 24.3082C20.0039 23.9576 19.803 23.647 19.5104 23.4429C19.2178 23.2388 18.8569 23.1575 18.505 23.2165C18.1532 23.2755 17.8385 23.47 17.6285 23.7584C16.9118 24.7853 15.9688 25.634 14.8722 26.2389C13.7757 26.8439 12.5549 27.1889 11.3039 27.2476C10.053 27.3062 8.80526 27.0767 7.65697 26.5769C6.50868 26.0772 5.49049 25.3204 4.68088 24.3649C3.87127 23.4095 3.29187 22.2809 2.98733 21.0661C2.6828 19.8514 2.66126 18.5829 2.92439 17.3586C3.18751 16.1342 3.72828 14.9866 4.50499 14.0042C5.2817 13.0218 6.27362 12.2309 7.40428 11.6924C7.72218 11.5322 7.96476 11.2539 8.08018 10.9171C8.1956 10.5803 8.17468 10.2117 8.02191 9.89017C7.86914 9.5686 7.59663 9.31955 7.26264 9.19627C6.92865 9.07298 6.55969 9.08525 6.23463 9.23044C3.99621 10.2915 2.1857 12.0829 1.10105 14.31C0.016395 16.537 -0.277765 19.067 0.266977 21.4835C0.81172 23.9 2.16291 26.0591 4.09817 27.6054C6.03343 29.1517 8.43745 29.9931 10.9146 29.9911Z" fill="#47C0AC"/>
</svg>
