<svg width="41" height="42" viewBox="0 0 41 42" fill="none" xmlns="http://www.w3.org/2000/svg">
<ellipse cx="20.1836" cy="21.1801" rx="20" ry="20.1953" fill="#F2FAFF"/>
<path d="M14.4218 15.9849L19.5941 21.1049C19.7589 21.2679 19.9719 21.358 20.1926 21.358C20.4133 21.358 20.6263 21.2679 20.7911 21.1049L25.9643 15.9849H14.4218ZM27.3836 17.2579L21.989 22.5989C21.4944 23.0886 20.8551 23.3592 20.1926 23.3592C19.5301 23.3592 18.8908 23.0886 18.3962 22.5989L12.9836 17.2389V25.9849H27.3836V17.2579ZM12.9836 13.9849H27.3836C27.861 13.9849 28.3188 14.1956 28.6564 14.5706C28.9939 14.9457 29.1836 15.4544 29.1836 15.9849V25.9849C29.1836 26.5153 28.9939 27.024 28.6564 27.3991C28.3188 27.7741 27.861 27.9849 27.3836 27.9849H12.9836C12.5062 27.9849 12.0484 27.7741 11.7108 27.3991C11.3732 27.024 11.1836 26.5153 11.1836 25.9849V15.9849C11.1836 15.4544 11.3732 14.9457 11.7108 14.5706C12.0484 14.1956 12.5062 13.9849 12.9836 13.9849V13.9849Z" fill="#1984E5"/>
</svg>
