<svg width="68" height="58" viewBox="0 0 68 58" fill="none" xmlns="http://www.w3.org/2000/svg">
<path d="M40.2867 57.4375C24.981 57.4375 12.5733 44.6776 12.5733 28.9375C12.5733 13.1974 24.981 0.4375 40.2867 0.4375C55.5923 0.4375 68 13.1974 68 28.9375C68 44.6776 55.5923 57.4375 40.2867 57.4375Z" fill="#F2FAFF"/>
<path d="M20.5732 18.7708H11.2399C8.66258 18.7708 6.57324 20.8602 6.57324 23.4375V44.4375C6.57324 47.0149 8.66258 49.1042 11.2399 49.1042H43.9066C46.484 49.1042 48.5732 47.0149 48.5732 44.4375V23.4375C48.5732 20.8602 46.484 18.7708 43.9066 18.7708H34.5732M20.5732 18.7708V14.1042C20.5732 11.5268 22.6626 9.4375 25.2399 9.4375H29.9066C32.484 9.4375 34.5732 11.5268 34.5732 14.1042V18.7708M20.5732 18.7708H34.5732" stroke="#47C0AC" stroke-width="4.66667" stroke-linecap="round" stroke-linejoin="round"/>
</svg>
