<svg width="15" height="10" viewBox="0 0 15 10" fill="none" xmlns="http://www.w3.org/2000/svg">
<path d="M14.2172 5.00005C12.5372 7.80005 10.4372 9.20005 7.91719 9.20005C5.39719 9.20005 3.29719 7.80005 1.61719 5.00005C3.29719 2.20005 5.39719 0.800049 7.91719 0.800049C10.4372 0.800049 12.5372 2.20005 14.2172 5.00005Z" stroke="black" stroke-linecap="round" stroke-linejoin="round"/>
<path d="M6.5166 5.0001C6.5166 5.3714 6.6641 5.7275 6.92665 5.99005C7.1892 6.2526 7.5453 6.4001 7.9166 6.4001C8.2879 6.4001 8.644 6.2526 8.90655 5.99005C9.1691 5.7275 9.3166 5.3714 9.3166 5.0001C9.3166 4.62879 9.1691 4.2727 8.90655 4.01015C8.644 3.7476 8.2879 3.6001 7.9166 3.6001C7.5453 3.6001 7.1892 3.7476 6.92665 4.01015C6.6641 4.2727 6.5166 4.62879 6.5166 5.0001Z" stroke="black" stroke-linecap="round" stroke-linejoin="round"/>
</svg>
