<svg width="24" height="28" viewBox="0 0 24 28" fill="none" xmlns="http://www.w3.org/2000/svg">
<path d="M23.313 3.77095C23.313 3.43758 23.1805 3.11786 22.9448 2.88213C22.7091 2.6464 22.3893 2.51397 22.056 2.51397H18.285V1.25698C18.285 0.923611 18.1526 0.603892 17.9169 0.368162C17.6811 0.132432 17.3614 0 17.028 0H6.97217C6.6388 0 6.31908 0.132432 6.08335 0.368162C5.84762 0.603892 5.71519 0.923611 5.71519 1.25698V2.51397H1.94424C1.61087 2.51397 1.29115 2.6464 1.05542 2.88213C0.819688 3.11786 0.687256 3.43758 0.687256 3.77095V26.3966C0.687256 26.73 0.819688 27.0497 1.05542 27.2855C1.29115 27.5212 1.61087 27.6536 1.94424 27.6536H22.056C22.3893 27.6536 22.7091 27.5212 22.9448 27.2855C23.1805 27.0497 23.313 26.73 23.313 26.3966V3.77095ZM8.22916 2.51397H15.7711V5.02793H8.22916V2.51397ZM20.799 25.1397H3.20122V5.02793H5.71519V6.28492C5.71519 6.61829 5.84762 6.93801 6.08335 7.17374C6.31908 7.40947 6.6388 7.5419 6.97217 7.5419H17.028C17.3614 7.5419 17.6811 7.40947 17.9169 7.17374C18.1526 6.93801 18.285 6.61829 18.285 6.28492V5.02793H20.799V25.1397ZM13.2571 21.3687C13.2571 21.7021 13.1247 22.0218 12.8889 22.2575C12.6532 22.4933 12.3335 22.6257 12.0001 22.6257H6.97217C6.6388 22.6257 6.31908 22.4933 6.08335 22.2575C5.84762 22.0218 5.71519 21.7021 5.71519 21.3687C5.71519 21.0353 5.84762 20.7156 6.08335 20.4799C6.31908 20.2442 6.6388 20.1117 6.97217 20.1117H12.0001C12.3335 20.1117 12.6532 20.2442 12.8889 20.4799C13.1247 20.7156 13.2571 21.0353 13.2571 21.3687ZM18.285 16.3408C18.285 16.6742 18.1526 16.9939 17.9169 17.2296C17.6811 17.4653 17.3614 17.5978 17.028 17.5978H6.97217C6.6388 17.5978 6.31908 17.4653 6.08335 17.2296C5.84762 16.9939 5.71519 16.6742 5.71519 16.3408C5.71519 16.0074 5.84762 15.6877 6.08335 15.452C6.31908 15.2162 6.6388 15.0838 6.97217 15.0838H17.028C17.3614 15.0838 17.6811 15.2162 17.9169 15.452C18.1526 15.6877 18.285 16.0074 18.285 16.3408ZM18.285 11.3128C18.285 11.6462 18.1526 11.9659 17.9169 12.2017C17.6811 12.4374 17.3614 12.5698 17.028 12.5698H6.97217C6.6388 12.5698 6.31908 12.4374 6.08335 12.2017C5.84762 11.9659 5.71519 11.6462 5.71519 11.3128C5.71519 10.9795 5.84762 10.6598 6.08335 10.424C6.31908 10.1883 6.6388 10.0559 6.97217 10.0559H17.028C17.3614 10.0559 17.6811 10.1883 17.9169 10.424C18.1526 10.6598 18.285 10.9795 18.285 11.3128Z" fill="#47C0AC"/>
</svg>
