<svg width="18" height="22" viewBox="0 0 18 22" fill="none" xmlns="http://www.w3.org/2000/svg">
<path d="M5.625 3.125C5.00368 3.125 4.5 3.62868 4.5 4.25C4.5 4.87132 5.00368 5.375 5.625 5.375C6.24632 5.375 6.75 4.87132 6.75 4.25C6.75 3.62868 6.24632 3.125 5.625 3.125ZM2.44204 3.125C2.90536 1.81416 4.1555 0.875 5.625 0.875C7.0945 0.875 8.34464 1.81416 8.80796 3.125H16.875C17.4963 3.125 18 3.62868 18 4.25C18 4.87132 17.4963 5.375 16.875 5.375H8.80796C8.34464 6.68584 7.0945 7.625 5.625 7.625C4.1555 7.625 2.90536 6.68584 2.44204 5.375H1.125C0.50368 5.375 0 4.87132 0 4.25C0 3.62868 0.50368 3.125 1.125 3.125H2.44204ZM12.375 9.875C11.7537 9.875 11.25 10.3787 11.25 11C11.25 11.6213 11.7537 12.125 12.375 12.125C12.9963 12.125 13.5 11.6213 13.5 11C13.5 10.3787 12.9963 9.875 12.375 9.875ZM9.19204 9.875C9.65536 8.56416 10.9055 7.625 12.375 7.625C13.8445 7.625 15.0946 8.56416 15.558 9.875H16.875C17.4963 9.875 18 10.3787 18 11C18 11.6213 17.4963 12.125 16.875 12.125H15.558C15.0946 13.4358 13.8445 14.375 12.375 14.375C10.9055 14.375 9.65536 13.4358 9.19204 12.125H1.125C0.50368 12.125 0 11.6213 0 11C0 10.3787 0.50368 9.875 1.125 9.875H9.19204ZM5.625 16.625C5.00368 16.625 4.5 17.1287 4.5 17.75C4.5 18.3713 5.00368 18.875 5.625 18.875C6.24632 18.875 6.75 18.3713 6.75 17.75C6.75 17.1287 6.24632 16.625 5.625 16.625ZM2.44204 16.625C2.90536 15.3142 4.1555 14.375 5.625 14.375C7.0945 14.375 8.34464 15.3142 8.80796 16.625H16.875C17.4963 16.625 18 17.1287 18 17.75C18 18.3713 17.4963 18.875 16.875 18.875H8.80796C8.34464 20.1858 7.0945 21.125 5.625 21.125C4.1555 21.125 2.90536 20.1858 2.44204 18.875H1.125C0.50368 18.875 0 18.3713 0 17.75C0 17.1287 0.50368 16.625 1.125 16.625H2.44204Z" fill="#47C0AC"/>
</svg>
