<svg width="68" height="58" viewBox="0 0 68 58" fill="none" xmlns="http://www.w3.org/2000/svg">
<path d="M40.2867 57.7578C24.981 57.7578 12.5733 44.9979 12.5733 29.2578C12.5733 13.5177 24.981 0.757812 40.2867 0.757812C55.5923 0.757812 68 13.5177 68 29.2578C68 44.9979 55.5923 57.7578 40.2867 57.7578Z" fill="#F2FAFF"/>
<g clip-path="url(#clip0_1738_25117)">
<path d="M33.1642 11.7578H9.98233C9.07819 11.7578 8.21107 12.117 7.57174 12.7563C6.93241 13.3956 6.57324 14.2628 6.57324 15.1669V51.9851C6.57324 52.8892 6.93241 53.7563 7.57174 54.3957C8.21107 55.035 9.07819 55.3942 9.98233 55.3942H33.1642C34.0683 55.3942 34.9354 55.035 35.5747 54.3957C36.2141 53.7563 36.5732 52.8892 36.5732 51.9851V15.1669C36.5732 14.2628 36.2141 13.3956 35.5747 12.7563C34.9354 12.117 34.0683 11.7578 33.1642 11.7578ZM33.1642 51.9851H9.98233V15.1669H33.1642V51.9851Z" fill="#47C0AC"/>
<path d="M21.5734 48.5753C22.7784 48.5753 23.7552 47.6595 23.7552 46.5298C23.7552 45.4002 22.7784 44.4844 21.5734 44.4844C20.3684 44.4844 19.3916 45.4002 19.3916 46.5298C19.3916 47.6595 20.3684 48.5753 21.5734 48.5753Z" fill="#47C0AC"/>
<g clip-path="url(#clip1_1738_25117)">
<path d="M19.4773 37.6386L15.2856 35.5428V26.4609L19.4773 28.5567M19.4773 37.6386L23.6689 35.5428M19.4773 37.6386V28.5567M19.4773 28.5567L23.6689 26.4609M23.6689 35.5428L27.8605 37.6386V28.5567L23.6689 26.4609M23.6689 35.5428V26.4609" stroke="#47C0AC" stroke-width="1.3" stroke-linecap="round" stroke-linejoin="round"/>
</g>
</g>
<defs>
<clipPath id="clip0_1738_25117">
<rect width="30" height="43.6364" fill="white" transform="translate(6.57324 11.7578)"/>
</clipPath>
<clipPath id="clip1_1738_25117">
<rect width="14" height="12.5749" fill="white" transform="translate(14.5732 25.7578)"/>
</clipPath>
</defs>
</svg>
