<svg width="68" height="58" viewBox="0 0 68 58" fill="none" xmlns="http://www.w3.org/2000/svg">
<path d="M40.2867 57.7578C24.981 57.7578 12.5733 44.9979 12.5733 29.2578C12.5733 13.5177 24.981 0.757812 40.2867 0.757812C55.5923 0.757812 68 13.5177 68 29.2578C68 44.9979 55.5923 57.7578 40.2867 57.7578Z" fill="#F2FAFF"/>
<g clip-path="url(#clip0_1738_25010)">
<path d="M33.1642 11.7578H9.98233C9.07819 11.7578 8.21107 12.117 7.57174 12.7563C6.93241 13.3956 6.57324 14.2628 6.57324 15.1669V51.9851C6.57324 52.8892 6.93241 53.7563 7.57174 54.3957C8.21107 55.035 9.07819 55.3942 9.98233 55.3942H33.1642C34.0683 55.3942 34.9354 55.035 35.5747 54.3957C36.2141 53.7563 36.5732 52.8892 36.5732 51.9851V15.1669C36.5732 14.2628 36.2141 13.3956 35.5747 12.7563C34.9354 12.117 34.0683 11.7578 33.1642 11.7578ZM33.1642 51.9851H9.98233V15.1669H33.1642V51.9851Z" fill="#47C0AC"/>
<path d="M21.5734 48.5753C22.7784 48.5753 23.7552 47.6595 23.7552 46.5298C23.7552 45.4002 22.7784 44.4844 21.5734 44.4844C20.3684 44.4844 19.3916 45.4002 19.3916 46.5298C19.3916 47.6595 20.3684 48.5753 21.5734 48.5753Z" fill="#47C0AC"/>
<path d="M20.526 33.0985C20.503 33.1591 20.4727 33.2115 20.4351 33.2552C20.3979 33.2996 20.3525 33.3341 20.2987 33.3589C20.245 33.3837 20.1792 33.3957 20.1024 33.3957C19.9946 33.3957 19.9054 33.3723 19.8338 33.3258C19.7622 33.2786 19.705 33.217 19.6623 33.1395C19.6196 33.0627 19.5886 32.9752 19.5693 32.8791C19.5497 32.7831 19.5404 32.6849 19.5404 32.5857C19.5404 32.4862 19.5497 32.3887 19.5693 32.292C19.5886 32.1952 19.6196 32.1084 19.6623 32.0316C19.705 31.9541 19.7622 31.8925 19.8338 31.8453C19.9054 31.7981 19.995 31.7754 20.1024 31.7754C20.1958 31.7754 20.2726 31.7929 20.3318 31.8284C20.391 31.8646 20.4386 31.9059 20.4744 31.9527C20.5102 31.9999 20.535 32.0467 20.5488 32.0953C20.5625 32.1432 20.5722 32.1814 20.5777 32.209H21.4621C21.4235 31.837 21.2933 31.5498 21.0712 31.3473C20.8494 31.1448 20.5346 31.0418 20.1272 31.0391C19.8986 31.0391 19.6923 31.0759 19.5094 31.1506C19.3262 31.2247 19.1691 31.3297 19.0383 31.4647C18.9074 31.5997 18.8068 31.7619 18.7366 31.9524C18.6663 32.1421 18.6309 32.3536 18.6309 32.5847C18.6309 32.802 18.6643 33.0059 18.73 33.1943C18.7962 33.3833 18.8936 33.5459 19.0217 33.684C19.1499 33.8221 19.3059 33.9309 19.4905 34.0108C19.6751 34.09 19.8872 34.1307 20.1272 34.1307C20.3421 34.1307 20.5336 34.0945 20.7017 34.0232C20.8694 33.9512 21.0106 33.8572 21.1249 33.7401C21.2393 33.623 21.3261 33.4911 21.3853 33.3454C21.4445 33.2001 21.4745 33.052 21.4745 32.9036H20.5815C20.5681 32.9725 20.5498 33.0382 20.526 33.0985Z" fill="#47C0AC"/>
<path d="M22.9576 32.8832H22.9493L22.4658 31.0938H21.5483L22.4286 34.0445H23.4452L24.3672 31.0938H23.4328L22.9576 32.8832Z" fill="#47C0AC"/>
<path d="M25.4079 24.2439L25.3642 24.2016H25.3034H15.5737H15.4237V24.3516V39.8688V40.0188H15.5737H27.5237H27.6737V39.8688V26.5043V26.4409L27.6281 26.3967L25.4079 24.2439ZM26.3402 27.174L26.3406 38.6852H16.7569V25.5347H24.621V27.024V27.174H24.771H26.3402Z" fill="#47C0AC" stroke="#47C0AC" stroke-width="0.3"/>
</g>
<defs>
<clipPath id="clip0_1738_25010">
<rect width="30" height="43.6364" fill="white" transform="translate(6.57324 11.7578)"/>
</clipPath>
</defs>
</svg>
