<svg width="1423" height="532" viewBox="0 0 1423 532" fill="none" xmlns="http://www.w3.org/2000/svg">
<path d="M924.176 466.405C729.453 480.231 610.304 541.366 469.048 675.393C327.833 809.416 240.263 983.35 171.227 1157.81C102.149 1332.27 48.292 1512.02 -39.8815 1679.64C-88.8475 1772.64 -133.75 1862.66 -131.391 1965.29C-128.75 2080.55 -42.2055 2212.33 -18.119 2324.61C23.524 2518.78 -8.90894 2703.36 221.932 2787.83C334.592 2829.06 509.315 2795.83 630.541 2781.07C750.861 2766.45 870.722 2746.77 990.584 2727.82C1463.6 2653.03 1499.94 2567.8 1844.93 2563.06C1948.97 2561.64 2080.72 2567.52 2261.19 2521.1C2372.5 2492.49 2522.83 2453.81 2634.84 2346.78C2797.96 2190.88 2796.43 1969.6 2795.61 1855.51C2791.37 1252.87 2246.51 840.604 2188.44 797.956C1684.16 427.734 1096.78 453.014 924.217 466.4" stroke="#1984E5" stroke-width="1.72695" stroke-miterlimit="10"/>
<path d="M3.22352 1942.38C-8.46532 1992.06 -14.2744 2042.12 -4.9181 2093.35C19.0521 2224.98 80.4644 2351.09 128.969 2476.32C167.557 2576.01 220.945 2685.7 334.151 2735.31C498.522 2807.34 737.398 2713.36 904.996 2684.6C1202.2 2633.65 1495.18 2556.24 1795.64 2529.52C1940.51 2516.63 2086.66 2515.6 2230.03 2491.53C2373.4 2467.46 2517.47 2417.46 2618.3 2323.47C2753.78 2197.19 2789.39 2012.87 2780.29 1843.12C2748.66 1254.85 2196.78 846.098 2132.9 801.893C1999.56 709.602 1407 299.417 807.916 467.349C602.537 524.895 405.578 621.914 279.658 780.417C177.745 908.661 133.655 1061 112.097 1212.13C95.2782 1330.12 91.6272 1448.7 81.7276 1566.98C74.1659 1657.5 62.0374 1745.92 34.5987 1834.1C23.3973 1870.18 11.7606 1906.13 3.25659 1942.3L3.22352 1942.38Z" stroke="#FFE539" stroke-width="1.72695" stroke-miterlimit="10"/>
<path d="M1049.01 2866.07C1214.94 2957.79 1351.01 2970.68 1552.73 2935.46C1754.46 2900.24 1939.12 2803.93 2109.28 2697.36C2279.44 2590.79 2440.81 2471.89 2621.88 2381.08C2741.4 2321.14 2868.49 2273.96 2985.33 2209.88C3102.16 2145.76 3211.16 2060.99 3266.7 1951.19C3354.88 1776.68 3289.05 1575.84 3169.93 1426.95C3003.47 1218.89 2745.32 1082.46 2480.15 976.07C2214.99 869.68 1935.14 787.331 1683.95 659.152C1562.84 597.35 1448.73 525.08 1321.18 473.299C1193.62 421.517 1047.89 390.968 905.825 418.567C714.956 455.654 562.073 590.901 453.799 736.464C191.338 1089.34 126.746 1535.75 248.515 1925.21C370.284 2314.66 668.569 2645.9 1048.98 2866.12" stroke="#47C0AC" stroke-width="1.72695" stroke-miterlimit="10"/>
</svg>
