<svg width="1423" height="532" viewBox="0 0 1423 532" fill="none" xmlns="http://www.w3.org/2000/svg">
<path d="M23.1759 503.405C-171.547 517.231 -290.696 578.366 -431.952 712.393C-573.167 846.416 -660.737 1020.35 -729.773 1194.81C-798.851 1369.27 -852.708 1549.02 -940.882 1716.64C-989.847 1809.64 -1034.75 1899.66 -1032.39 2002.29C-1029.75 2117.55 -943.206 2249.33 -919.119 2361.61C-877.476 2555.78 -909.909 2740.36 -679.068 2824.83C-566.408 2866.06 -391.685 2832.83 -270.459 2818.07C-150.139 2803.45 -30.2776 2783.77 89.5841 2764.82C562.597 2690.03 598.941 2604.8 943.925 2600.06C1047.97 2598.64 1179.72 2604.52 1360.19 2558.1C1471.5 2529.49 1621.83 2490.81 1733.84 2383.78C1896.96 2227.88 1895.43 2006.6 1894.61 1892.51C1890.37 1289.87 1345.51 877.604 1287.44 834.956C783.165 464.734 195.782 490.014 23.2174 503.4" stroke="#1984E5" stroke-width="1.72695" stroke-miterlimit="10"/>
<path d="M-897.776 1979.38C-909.465 2029.06 -915.274 2079.12 -905.918 2130.35C-881.948 2261.98 -820.536 2388.09 -772.031 2513.32C-733.443 2613.01 -680.055 2722.7 -566.849 2772.31C-402.478 2844.34 -163.602 2750.36 3.99623 2721.6C301.2 2670.65 594.175 2593.24 894.638 2566.52C1039.51 2553.63 1185.66 2552.6 1329.03 2528.53C1472.4 2504.46 1616.47 2454.46 1717.3 2360.47C1852.78 2234.19 1888.39 2049.87 1879.29 1880.12C1847.66 1291.85 1295.78 883.098 1231.9 838.893C1098.56 746.602 506.004 336.417 -93.0839 504.349C-298.463 561.895 -495.422 658.914 -621.342 817.417C-723.255 945.661 -767.345 1098 -788.903 1249.13C-805.722 1367.12 -809.373 1485.7 -819.272 1603.98C-826.834 1694.5 -838.963 1782.92 -866.401 1871.1C-877.603 1907.18 -889.239 1943.13 -897.743 1979.3L-897.776 1979.38Z" stroke="#FFE539" stroke-width="1.72695" stroke-miterlimit="10"/>
<path d="M148.01 2903.07C313.943 2994.79 450.014 3007.68 651.735 2972.46C853.455 2937.24 1038.12 2840.93 1208.28 2734.36C1378.44 2627.79 1539.81 2508.89 1720.88 2418.08C1840.4 2358.14 1967.49 2310.96 2084.33 2246.88C2201.16 2182.76 2310.16 2097.99 2365.7 1988.19C2453.88 1813.68 2388.05 1612.84 2268.93 1463.95C2102.47 1255.89 1844.32 1119.46 1579.15 1013.07C1313.99 906.68 1034.14 824.331 782.946 696.152C661.837 634.35 547.733 562.08 420.178 510.299C292.623 458.517 146.892 427.968 4.8253 455.567C-186.044 492.654 -338.927 627.901 -447.201 773.464C-709.662 1126.34 -774.254 1572.75 -652.485 1962.21C-530.716 2351.66 -232.431 2682.9 147.981 2903.12" stroke="#47C0AC" stroke-width="1.72695" stroke-miterlimit="10"/>
</svg>
