<svg width="176" height="53" viewBox="0 0 176 53" fill="none" xmlns="http://www.w3.org/2000/svg">
<g clip-path="url(#clip0_3455_32028)">
<path d="M169.129 52.6264H6.674C3.09998 52.6264 0.175781 49.7022 0.175781 46.1281V7.13884C0.175781 3.56482 3.09998 0.640625 6.674 0.640625H169.129C172.703 0.640625 175.628 3.56482 175.628 7.13884V46.1281C175.628 49.7022 172.703 52.6264 169.129 52.6264Z" fill="black"/>
<path d="M169.129 1.68034C170.577 1.68034 171.966 2.25543 172.989 3.2791C174.013 4.30277 174.588 5.69116 174.588 7.13884V46.1281C174.588 47.5758 174.013 48.9642 172.989 49.9879C171.966 51.0116 170.577 51.5866 169.129 51.5866H6.674C5.22631 51.5866 3.83792 51.0116 2.81425 49.9879C1.79059 48.9642 1.2155 47.5758 1.2155 46.1281V7.13884C1.2155 5.69116 1.79059 4.30277 2.81425 3.2791C3.83792 2.25543 5.22631 1.68034 6.674 1.68034H169.129ZM169.129 0.640625H6.674C3.09998 0.640625 0.175781 3.56482 0.175781 7.13884V46.1281C0.175781 49.7022 3.09998 52.6264 6.674 52.6264H169.129C172.703 52.6264 175.628 49.7022 175.628 46.1281V7.13884C175.628 3.56482 172.703 0.640625 169.129 0.640625Z" fill="#A6A6A6"/>
<path d="M61.8045 13.9475C61.8045 15.0392 61.4796 15.9099 60.8298 16.5468C60.102 17.3136 59.1533 17.7034 57.9706 17.7034C56.8399 17.7034 55.8782 17.3136 55.0984 16.5338C54.3186 15.754 53.9287 14.7793 53.9287 13.6356C53.9287 12.4919 54.3186 11.5171 55.0984 10.7374C55.8782 9.95758 56.8399 9.55469 57.9706 9.55469C58.5424 9.55469 59.0883 9.65866 59.5952 9.8536C60.102 10.0615 60.5179 10.3475 60.8428 10.7114L60.128 11.4262C59.8941 11.1403 59.5822 10.9063 59.1923 10.7504C58.807 10.5827 58.3907 10.4986 57.9706 10.5034C57.1258 10.5034 56.398 10.8023 55.8132 11.3872C55.2284 11.985 54.9424 12.7258 54.9424 13.6226C54.9424 14.5193 55.2284 15.2601 55.8132 15.858C56.398 16.4428 57.1128 16.7417 57.9706 16.7417C58.7504 16.7417 59.3872 16.5208 59.9071 16.0919C60.4269 15.663 60.7258 15.0522 60.8038 14.2984H57.9706V13.3626H61.7526C61.7786 13.5706 61.8045 13.7655 61.8045 13.9475ZM67.7959 9.73664V10.6984H64.2479V13.1677H67.445V14.1034H64.2479V16.5728H67.7959V17.5345H63.2472V9.73664H67.7959ZM72.0197 10.6984V17.5345H71.019V10.6984H68.8356V9.73664H74.1901V10.6984H72.0197ZM79.0768 17.5345H78.0761V9.73664H79.0768V17.5345ZM83.5216 10.6984V17.5345H82.5209V10.6984H80.3375V9.73664H85.692V10.6984H83.5216ZM96.9859 13.6356C96.9859 14.7922 96.596 15.754 95.8292 16.5338C95.0494 17.3136 94.1007 17.7034 92.97 17.7034C91.8393 17.7034 90.8906 17.3136 90.1108 16.5338C89.344 15.754 88.9541 14.7922 88.9541 13.6356C88.9541 12.4789 89.344 11.5171 90.1108 10.7374C90.8776 9.95758 91.8263 9.55469 92.97 9.55469C94.1007 9.55469 95.0494 9.94458 95.8292 10.7374C96.609 11.5301 96.9859 12.4919 96.9859 13.6356ZM89.9938 13.6356C89.9938 14.5323 90.2797 15.2861 90.8386 15.871C91.4104 16.4558 92.1252 16.7547 92.97 16.7547C93.8148 16.7547 94.5296 16.4558 95.0884 15.871C95.6603 15.2861 95.9462 14.5453 95.9462 13.6356C95.9462 12.7258 95.6603 11.985 95.0884 11.4002C94.5166 10.8153 93.8148 10.5164 92.97 10.5164C92.1252 10.5164 91.4104 10.8153 90.8386 11.4002C90.2797 11.985 89.9938 12.7388 89.9938 13.6356ZM99.3902 17.5345H98.3895V9.73664H99.6112L103.406 15.806H103.445L103.406 14.2984V9.73664H104.407V17.5345H103.367L99.4032 11.1792H99.3642L99.4032 12.6868V17.5345H99.3902Z" fill="white" stroke="white" stroke-width="0.259929" stroke-miterlimit="10"/>
<path d="M88.7335 28.9052C85.6794 28.9052 83.184 31.2316 83.184 34.4287C83.184 37.6128 85.6794 39.9522 88.7335 39.9522C91.7877 39.9522 94.283 37.6128 94.283 34.4287C94.283 31.2316 91.7877 28.9052 88.7335 28.9052ZM88.7335 37.7818C87.057 37.7818 85.6144 36.4041 85.6144 34.4287C85.6144 32.4402 87.057 31.0756 88.7335 31.0756C90.4101 31.0756 91.8527 32.4402 91.8527 34.4287C91.8527 36.4041 90.3971 37.7818 88.7335 37.7818ZM76.6208 28.9052C73.5667 28.9052 71.0714 31.2316 71.0714 34.4287C71.0714 37.6128 73.5667 39.9522 76.6208 39.9522C79.675 39.9522 82.1703 37.6128 82.1703 34.4287C82.1703 31.2316 79.675 28.9052 76.6208 28.9052ZM76.6208 37.7818C74.9443 37.7818 73.5017 36.4041 73.5017 34.4287C73.5017 32.4402 74.9443 31.0756 76.6208 31.0756C78.2974 31.0756 79.74 32.4402 79.74 34.4287C79.74 36.4041 78.2974 37.7818 76.6208 37.7818ZM62.2208 30.6077V32.9471H67.8353C67.6663 34.2597 67.2244 35.2345 66.5616 35.8973C65.7428 36.7161 64.4692 37.6128 62.2338 37.6128C58.7767 37.6128 56.0735 34.8316 56.0735 31.3745C56.0735 27.9175 58.7767 25.1362 62.2338 25.1362C64.0923 25.1362 65.4569 25.864 66.4576 26.8128L68.1082 25.1622C66.7046 23.8236 64.8461 22.7969 62.2208 22.7969C57.4901 22.7969 53.5132 26.6438 53.5132 31.3875C53.5132 36.1182 57.4901 39.9782 62.2208 39.9782C64.7811 39.9782 66.7046 39.1464 68.2121 37.5738C69.7587 36.0272 70.2396 33.8438 70.2396 32.0893C70.2396 31.5435 70.2006 31.0366 70.1096 30.6207H62.2208V30.6077ZM121.108 32.4272C120.653 31.1926 119.249 28.9052 116.377 28.9052C113.531 28.9052 111.165 31.1406 111.165 34.4287C111.165 37.5218 113.505 39.9522 116.65 39.9522C119.184 39.9522 120.653 38.4056 121.251 37.5088L119.366 36.2482C118.742 37.1709 117.885 37.7818 116.65 37.7818C115.415 37.7818 114.531 37.2229 113.973 36.1052L121.368 33.0511L121.108 32.4272ZM113.57 34.2727C113.505 32.1413 115.22 31.0496 116.455 31.0496C117.417 31.0496 118.235 31.5305 118.508 32.2193L113.57 34.2727ZM107.565 39.6273H109.996V23.3817H107.565V39.6273ZM103.588 30.1399H103.497C102.952 29.49 101.912 28.9052 100.586 28.9052C97.818 28.9052 95.2837 31.3355 95.2837 34.4547C95.2837 37.5478 97.818 39.9652 100.586 39.9652C101.899 39.9652 102.952 39.3803 103.497 38.7045H103.575V39.4973C103.575 41.6157 102.445 42.7464 100.625 42.7464C99.1437 42.7464 98.2209 41.6807 97.844 40.7839L95.7256 41.6677C96.3364 43.1363 97.948 44.9298 100.625 44.9298C103.471 44.9298 105.876 43.2533 105.876 39.1724V29.2431H103.575V30.1399H103.588ZM100.794 37.7818C99.1177 37.7818 97.7141 36.3782 97.7141 34.4547C97.7141 32.5052 99.1177 31.0886 100.794 31.0886C102.445 31.0886 103.744 32.5182 103.744 34.4547C103.757 36.3782 102.458 37.7818 100.794 37.7818ZM132.493 23.3817H126.683V39.6273H129.113V33.4669H132.506C135.196 33.4669 137.834 31.5175 137.834 28.4243C137.821 25.3312 135.17 23.3817 132.493 23.3817ZM132.544 31.2056H129.1V25.6301H132.544C134.364 25.6301 135.391 27.1377 135.391 28.4113C135.391 29.685 134.364 31.2056 132.544 31.2056ZM147.542 28.8792C145.788 28.8792 143.968 29.659 143.215 31.3615L145.372 32.2583C145.827 31.3615 146.685 31.0626 147.581 31.0626C148.829 31.0626 150.116 31.8164 150.129 33.155V33.324C149.687 33.0771 148.751 32.7002 147.594 32.7002C145.268 32.7002 142.916 33.9738 142.916 36.3522C142.916 38.5226 144.813 39.9262 146.945 39.9262C148.569 39.9262 149.479 39.1984 150.038 38.3406H150.116V39.5883H152.455V33.363C152.468 30.4908 150.311 28.8792 147.542 28.8792ZM147.243 37.7818C146.451 37.7818 145.346 37.3789 145.346 36.4041C145.346 35.1565 146.724 34.6756 147.919 34.6756C148.985 34.6756 149.492 34.9096 150.129 35.2215C150.039 35.9249 149.697 36.5719 149.166 37.0426C148.636 37.5133 147.953 37.7759 147.243 37.7818ZM160.994 29.2301L158.212 36.2742H158.134L155.249 29.2301H152.637L156.965 39.0814L154.495 44.5529H157.03L163.697 29.2301H160.994ZM139.16 39.6273H141.59V23.3817H139.16V39.6273Z" fill="white"/>
<path d="M27.1044 25.8828L13.2632 40.5688V40.5818C13.413 41.1381 13.6893 41.6523 14.0705 42.0842C14.4518 42.5161 14.9277 42.8541 15.4612 43.0718C15.9946 43.2894 16.5711 43.3809 17.1457 43.339C17.7203 43.297 18.2775 43.1229 18.7737 42.8302L18.8127 42.8042L34.3824 33.8236L27.1044 25.8828Z" fill="#EA4335"/>
<path d="M41.1016 23.3885L41.0886 23.3755L34.3694 19.4766L26.7925 26.2217L34.3954 33.8246L41.0886 29.9647C41.6806 29.6442 42.1752 29.17 42.5203 28.592C42.8655 28.014 43.0483 27.3536 43.0497 26.6805C43.051 26.0073 42.8707 25.3462 42.5279 24.7668C42.1851 24.1875 41.6923 23.7113 41.1016 23.3885Z" fill="#FBBC04"/>
<path d="M13.2633 12.7031C13.1853 13.015 13.1333 13.327 13.1333 13.6649V39.6187C13.1333 39.9566 13.1723 40.2686 13.2633 40.5805L27.5723 26.2714L13.2633 12.7031Z" fill="#4285F4"/>
<path d="M27.2084 26.6346L34.3694 19.4736L18.8127 10.454C18.3154 10.1567 17.756 9.97843 17.1783 9.93329C16.6006 9.88814 16.0204 9.97731 15.4829 10.1938C14.9454 10.4103 14.4654 10.7483 14.0803 11.1812C13.6952 11.6142 13.4155 12.1304 13.2632 12.6894L27.2084 26.6346Z" fill="#34A853"/>
</g>
<defs>
<clipPath id="clip0_3455_32028">
<rect width="175.538" height="51.9857" fill="white" transform="translate(0.132324 0.640625)"/>
</clipPath>
</defs>
</svg>
