<svg width="49" height="51" viewBox="0 0 49 51" fill="none" xmlns="http://www.w3.org/2000/svg">
<rect x="0.5" y="0.0078125" width="48" height="50.1818" rx="6.54545" fill="black"/>
<path d="M23.6291 24.4375L11.5156 36.9095V36.9205C11.6467 37.3929 11.8885 37.8296 12.2222 38.1964C12.5559 38.5632 12.9724 38.8503 13.4392 39.0351C13.9061 39.2199 14.4106 39.2976 14.9135 39.262C15.4164 39.2264 15.904 39.0785 16.3383 38.8299L16.3724 38.8078L29.9987 31.1812L23.6291 24.4375Z" fill="#EA4335"/>
<path d="M35.8824 22.3534L35.871 22.3424L29.9905 19.0312L23.3594 24.7595L30.0133 31.2162L35.871 27.9382C36.3891 27.6661 36.822 27.2633 37.124 26.7725C37.4261 26.2816 37.5861 25.7208 37.5873 25.1491C37.5885 24.5774 37.4307 24.016 37.1307 23.524C36.8306 23.032 36.3994 22.6276 35.8824 22.3534Z" fill="#FBBC04"/>
<path d="M11.52 13.2734C11.4517 13.5383 11.4062 13.8032 11.4062 14.0902V36.1313C11.4062 36.4183 11.4404 36.6832 11.52 36.9481L24.043 24.7962L11.52 13.2734Z" fill="#4285F4"/>
<path d="M23.7201 25.1072L29.9873 19.0258L16.3724 11.366C15.9372 11.1135 15.4476 10.9621 14.942 10.9238C14.4365 10.8854 13.9286 10.9611 13.4583 11.145C12.9879 11.3289 12.5677 11.6159 12.2307 11.9835C11.8937 12.3512 11.6489 12.7896 11.5156 13.2644L23.7201 25.1072Z" fill="#34A853"/>
</svg>
