<svg width="69" height="58" viewBox="0 0 69 58" fill="none" xmlns="http://www.w3.org/2000/svg">
<path d="M41.2867 57.4375C25.981 57.4375 13.5733 44.6776 13.5733 28.9375C13.5733 13.1974 25.981 0.4375 41.2867 0.4375C56.5923 0.4375 69 13.1974 69 28.9375C69 44.6776 56.5923 57.4375 41.2867 57.4375Z" fill="#F2FAFF"/>
<path d="M1.86454 27.7982L1.86451 27.7982C1.26472 27.5092 0.883301 26.9023 0.883301 26.2364V25.0321C0.883301 24.3662 1.26468 23.7591 1.86454 23.4702C1.86455 23.4702 1.86455 23.4702 1.86456 23.4702L28.677 10.5546L28.677 10.5545C29.1524 10.3256 29.7062 10.3256 30.1817 10.5545L30.1818 10.5545L57.0181 23.4815L57.0181 23.4815C57.6179 23.7705 57.9993 24.3776 57.9993 25.0434V26.225C57.9993 26.891 57.6179 27.4979 57.0181 27.7869L56.9096 27.5617L57.0181 27.7869L53.9585 29.2608V39.589C54.4593 39.9572 54.8404 40.4847 55.0264 41.1165L56.3374 45.5677C56.3374 45.5677 56.3374 45.5677 56.3374 45.5677C56.5204 46.1886 56.4904 46.8613 56.2531 47.4635C56.253 47.4635 56.253 47.4635 56.253 47.4635L54.8469 51.0327C54.4044 52.156 53.337 52.8828 52.13 52.8828H52.1295C52.1221 52.8828 52.1126 52.8828 52.1028 52.8827L52.0658 52.8821L52.0653 52.8821C52.0583 52.8819 52.0492 52.8818 52.0397 52.8815C52.0396 52.8815 52.0395 52.8815 52.0394 52.8815L52.0474 52.6316C50.9241 52.5971 49.9363 51.8556 49.5894 50.7866L1.86454 27.7982ZM1.86454 27.7982L10.1727 31.8003M1.86454 27.7982L48.4856 39.1592M11.2625 39.7556C10.7491 39.5082 10.4227 38.9887 10.4227 38.4189V31.6432M11.2625 39.7556L1.97304 23.6955C1.4597 23.9427 1.1333 24.4622 1.1333 25.0321V26.2364C1.1333 26.8062 1.4597 27.3256 1.97304 27.573L10.4227 31.6432M11.2625 39.7556L27.4274 47.5423L11.2625 39.7556ZM10.4227 31.6432H10.1727V31.8003M10.4227 31.6432L10.3142 31.8684L10.1727 31.8003M10.1727 31.8003V38.4189C10.1727 39.0848 10.5541 39.6918 11.154 39.9808L11.154 39.9808L27.3189 47.7675L27.319 47.7676C27.5537 47.8805 27.8108 47.9391 28.0713 47.9391H30.7877C31.0483 47.9391 31.3052 47.8804 31.54 47.7676L31.5402 47.7675L47.6604 40.0022L47.6605 40.0021C48.0255 39.8261 48.3175 39.5279 48.4856 39.1592M48.4856 39.1592C48.5072 39.1117 48.5276 39.0643 48.5468 39.0194L48.547 39.0191C48.6389 38.8038 48.6864 38.5721 48.6864 38.3381V31.8002L50.4912 30.9308V39.5909C49.9999 39.9525 49.6223 40.4676 49.4328 41.0848L49.6718 41.1582L49.4328 41.0848L48.1214 45.3579L48.1214 45.358C47.9448 45.934 47.9496 46.5425 48.1355 47.1157L48.3733 47.0386L48.4856 39.1592ZM30.1819 40.7141L30.0734 40.4889L30.1819 40.7141L45.2191 33.4708L45.219 37.3298L30.3918 44.4721H28.467L13.64 37.3298V33.4706L28.6771 40.7141C28.6771 40.7141 28.6771 40.7141 28.6771 40.7141C28.9149 40.8287 29.1722 40.8858 29.4295 40.8858C29.6868 40.8858 29.944 40.8287 30.1819 40.7141ZM46.2006 29.1311L46.2002 29.1313L29.4294 37.21L12.6586 29.1313L12.6584 29.1312C12.5875 29.0971 12.5164 29.0699 12.4468 29.0471L5.36171 25.6341L29.4294 14.0407L53.4973 25.6343L46.4123 29.0471C46.3426 29.0699 46.2715 29.0971 46.2006 29.1311ZM52.9584 46.3676L52.1795 48.3448L51.4868 46.21L52.2139 43.8406L52.9584 46.3676Z" fill="#47C0AC" stroke="#47C0AC" stroke-width="0.5"/>
</svg>
