<svg width="40" height="41" viewBox="0 0 40 41" fill="none" xmlns="http://www.w3.org/2000/svg">
<ellipse cx="20" cy="20.4235" rx="20" ry="20.2048" fill="#F0F9FF"/>
<path d="M27.0867 13.166C25.2843 11.3451 22.7944 10.2188 20.0439 10.2188C14.5435 10.2188 10.0838 14.7235 10.0838 20.2809C10.0838 22.1302 10.5776 23.8624 11.4386 25.3515L11.4131 25.3041L10 30.5176L15.2792 29.1185C16.6535 29.8895 18.2931 30.343 20.0379 30.343H20.0419C25.5422 30.341 30 25.8355 30 20.2788C30 17.5015 28.8864 14.9875 27.086 13.1667L27.0867 13.166ZM20.0419 28.6433H20.0385C18.4847 28.6433 17.0301 28.2101 15.7885 27.4567L15.826 27.4777L15.5238 27.2969L12.3914 28.1275L13.2269 25.0415L13.0299 24.7254C12.2359 23.465 11.7642 21.9291 11.7642 20.2815C11.7642 15.6637 15.4702 11.9198 20.0412 11.9198C24.6122 11.9198 28.3182 15.6637 28.3182 20.2815C28.3182 24.8994 24.6136 28.6433 20.0419 28.6433ZM24.5821 22.3813C24.3335 22.2554 23.11 21.6482 22.8822 21.5636C22.6537 21.4797 22.4875 21.4384 22.3214 21.6902C22.1565 21.9413 21.6795 22.5072 21.5341 22.6751C21.3893 22.8436 21.2433 22.8639 20.9947 22.7387C20.2241 22.4233 19.5621 22.0029 18.9866 21.4851L18.9933 21.4912C18.4579 20.9903 17.9989 20.4169 17.6284 19.7847L17.6096 19.7495C17.4649 19.4984 17.5942 19.3623 17.7182 19.2371C17.8301 19.1247 17.9674 18.9433 18.0914 18.7971C18.1892 18.6759 18.273 18.5372 18.3366 18.3883L18.3406 18.3768C18.3695 18.3179 18.3862 18.2495 18.3862 18.1764C18.3862 18.0877 18.3614 18.0051 18.3185 17.9347L18.3199 17.9368C18.2569 17.8109 17.7597 16.5735 17.5527 16.0699C17.3503 15.5798 17.1446 15.6468 16.9925 15.6387C16.8478 15.6319 16.6816 15.6306 16.5155 15.6306C16.2508 15.6373 16.0156 15.7578 15.8535 15.944L15.8528 15.9453C15.3154 16.4604 14.9817 17.1868 14.9817 17.9916C14.9817 18.0092 14.9817 18.0275 14.9824 18.0451V18.0424C15.0702 19.0354 15.4387 19.9269 16.0056 20.6532L15.9975 20.643C17.0723 22.2534 18.5048 23.5415 20.1859 24.4093L20.2489 24.4384C20.6161 24.6063 21.0865 24.7856 21.5676 24.9393L21.6674 24.9671C21.9636 25.0618 22.3046 25.1166 22.6584 25.1166C22.8614 25.1166 23.0611 25.0984 23.254 25.0638L23.2333 25.0666C23.9495 24.9156 24.5439 24.479 24.9064 23.8827L24.9124 23.8712C25.0229 23.6234 25.0873 23.3344 25.0873 23.0304C25.0873 22.9052 25.0766 22.7827 25.0558 22.6636L25.0578 22.6764C24.9961 22.5715 24.83 22.5092 24.5807 22.3826L24.5821 22.3813Z" fill="#47C0AC"/>
</svg>
