<svg width="41" height="42" viewBox="0 0 41 42" fill="none" xmlns="http://www.w3.org/2000/svg">
<ellipse cx="20.1836" cy="21.1899" rx="20" ry="20.2048" fill="#F2FAFF"/>
<path d="M29.6735 14.4554L29.6734 14.4552C29.4189 13.7798 29.0202 13.168 28.5051 12.6625C27.9996 12.1474 27.3878 11.7487 26.7124 11.4943L26.7122 11.4942C25.9315 11.2019 25.1069 11.044 24.2735 11.0272C23.2136 10.9787 22.8739 10.9677 20.1826 10.9677C17.4913 10.9677 17.1515 10.9787 16.0928 11.0272C15.259 11.0439 14.434 11.2018 13.6529 11.4942L13.6528 11.4942C12.977 11.7486 12.3648 12.1473 11.8589 12.6625C11.3442 13.1682 10.9459 13.78 10.6918 14.4553L10.6917 14.4554C10.3994 15.2361 10.2415 16.0607 10.2247 16.8942C10.1762 17.954 10.1652 18.2938 10.1652 20.9851C10.1652 23.6763 10.1762 24.0161 10.2247 25.0749C10.2414 25.9087 10.3993 26.7336 10.6917 27.5147L10.6918 27.5149C10.9462 28.1903 11.3449 28.8021 11.86 29.3076C12.3655 29.8227 12.9773 30.2214 13.6527 30.4759L13.6529 30.476C14.4336 30.7682 15.2582 30.9261 16.0916 30.9429C17.1515 30.9915 17.4913 31.0025 20.1826 31.0025C22.8738 31.0025 23.2136 30.9915 24.2724 30.9429C25.1062 30.9262 25.9311 30.7683 26.7122 30.476L26.7132 30.4756C27.3856 30.2156 27.9962 29.8181 28.5059 29.3084C29.0156 28.7987 29.4131 28.1881 29.6731 27.5157L29.6735 27.5147C29.9657 26.734 30.1236 25.9094 30.1404 25.076C30.189 24.0161 30.2 23.6764 30.2 20.9851C30.2 18.2938 30.189 17.954 30.1404 16.8953C30.1238 16.0615 29.9659 15.2365 29.6735 14.4554ZM28.1476 24.9863L28.1475 24.9863L28.1475 24.9898C28.14 25.6057 28.0268 26.2158 27.8128 26.7935C27.6532 27.2074 27.4088 27.5833 27.0952 27.8971C26.7817 28.2108 26.4059 28.4555 25.9921 28.6152C25.4141 28.8294 24.8036 28.9426 24.1873 28.9499L24.1873 28.9499L24.1838 28.95C23.1399 28.9973 22.8289 29.0072 20.1826 29.0072C17.5362 29.0072 17.2242 28.9973 16.1813 28.95L16.1813 28.95L16.1779 28.9499C15.5617 28.9425 14.9513 28.8292 14.3734 28.615L14.3732 28.6149C13.9569 28.4617 13.5802 28.2169 13.2709 27.8988L13.2709 27.8988L13.2688 27.8967C12.9508 27.5878 12.7061 27.2114 12.5527 26.7955L12.5526 26.7953C12.3383 26.2171 12.225 25.6064 12.2177 24.9898L12.2178 24.9898L12.2176 24.9863C12.1703 23.9423 12.1604 23.6314 12.1604 20.9851C12.1604 18.3387 12.1703 18.0267 12.2176 16.9838L12.2177 16.9838L12.2177 16.9804C12.2252 16.3641 12.3385 15.7538 12.5527 15.1759L12.5527 15.1757C12.706 14.7593 12.9507 14.3827 13.2688 14.0734L13.2688 14.0734L13.2709 14.0713C13.5799 13.7533 13.9562 13.5086 14.3722 13.3552L14.3723 13.3551C14.9505 13.1408 15.5613 13.0275 16.1778 13.0202L16.1778 13.0202L16.1813 13.0201C17.2253 12.9728 17.5362 12.9629 20.1826 12.9629C22.8289 12.9629 23.141 12.9728 24.1838 13.0201L24.1838 13.0201L24.1873 13.0202C24.8035 13.0277 25.4139 13.141 25.9917 13.3551L25.9919 13.3552C26.4083 13.5085 26.785 13.7532 27.0942 14.0713L27.0942 14.0713L27.0964 14.0734C27.4143 14.3824 27.659 14.7587 27.8124 15.1747L27.8125 15.1748C28.0268 15.753 28.1401 16.3638 28.1475 16.9803L28.1474 16.9803L28.1476 16.9838C28.1948 18.0278 28.2047 18.3387 28.2047 20.9851C28.2047 23.6314 28.1948 23.9434 28.1476 24.9863ZM20.1826 15.7898C19.1551 15.7898 18.1506 16.0945 17.2963 16.6654C16.4419 17.2362 15.776 18.0476 15.3828 18.9969C14.9896 19.9462 14.8867 20.9908 15.0872 21.9986C15.2876 23.0064 15.7824 23.9321 16.509 24.6587C17.2355 25.3852 18.1613 25.88 19.169 26.0805C20.1768 26.2809 21.2214 26.1781 22.1707 25.7848C23.12 25.3916 23.9314 24.7257 24.5023 23.8714C25.0731 23.017 25.3778 22.0126 25.3778 20.9851C25.3778 19.6072 24.8305 18.2858 23.8562 17.3115C22.8819 16.3372 21.5604 15.7898 20.1826 15.7898ZM20.1826 24.1851C19.5497 24.1851 18.931 23.9974 18.4048 23.6458C17.8785 23.2941 17.4684 22.7944 17.2262 22.2097C16.984 21.6249 16.9206 20.9815 17.0441 20.3608C17.1675 19.74 17.4723 19.1699 17.9198 18.7223C18.3674 18.2748 18.9375 17.97 19.5583 17.8466C20.179 17.7231 20.8224 17.7865 21.4072 18.0287C21.9919 18.2709 22.4917 18.681 22.8433 19.2072C23.1949 19.7335 23.3826 20.3522 23.3826 20.9851C23.3826 21.8338 23.0454 22.6477 22.4453 23.2478C21.8452 23.8479 21.0313 24.1851 20.1826 24.1851ZM26.5498 16.4126C26.692 16.1998 26.7679 15.9496 26.7679 15.6937C26.7679 15.3505 26.6315 15.0214 26.3889 14.7788C26.1462 14.5361 25.8171 14.3998 25.4739 14.3998C25.218 14.3998 24.9679 14.4757 24.7551 14.6179C24.5423 14.76 24.3765 14.9621 24.2785 15.1985C24.1806 15.435 24.155 15.6951 24.2049 15.9461C24.2548 16.1971 24.378 16.4277 24.559 16.6086C24.74 16.7896 24.9705 16.9128 25.2215 16.9628C25.4725 17.0127 25.7327 16.9871 25.9691 16.8891C26.2055 16.7912 26.4076 16.6253 26.5498 16.4126Z" fill="#47C0AC" stroke="#47C0AC" stroke-width="0.208696"/>
</svg>
