<svg width="66" height="57" viewBox="0 0 66 57" fill="none" xmlns="http://www.w3.org/2000/svg">
<path d="M37.7134 57C22.4077 57 10.0001 44.2401 10.0001 28.5C10.0001 12.7599 22.4077 0 37.7134 0C53.0191 0 65.4268 12.7599 65.4268 28.5C65.4268 44.2401 53.0191 57 37.7134 57Z" fill="#F2FAFF"/>
<g clip-path="url(#clip0_1746_24638)">
<path fill-rule="evenodd" clip-rule="evenodd" d="M25.6362 8.56988C25.6362 8.15352 25.4708 7.75422 25.1764 7.45981C24.882 7.1654 24.4827 7 24.0663 7C23.65 7 23.2507 7.1654 22.9562 7.45981C22.6618 7.75422 22.4964 8.15352 22.4964 8.56988V12.2329H18.3645C17.6292 12.2326 16.9108 12.4536 16.3027 12.8672L12.7548 15.2827C12.6677 15.3417 12.5649 15.373 12.4597 15.3727H3.8735C3.45715 15.3727 3.05784 15.5381 2.76343 15.8325C2.46902 16.1269 2.30363 16.5262 2.30363 16.9426C2.30363 17.3589 2.46902 17.7582 2.76343 18.0526C3.05784 18.347 3.45715 18.5124 3.8735 18.5124H7.17443L0.12673 34.588C-0.00639305 34.9017 -0.0355389 35.2498 0.0435641 35.5813C0.122667 35.9127 0.30586 36.2102 0.566296 36.43C0.733749 36.5639 0.903296 36.6916 1.21309 36.8926C1.60242 37.1458 2.1592 37.4745 2.87088 37.7989C4.29423 38.4499 6.34972 39.0967 8.89083 39.0967C10.9673 39.1006 13.0204 38.6581 14.9108 37.7989C15.6225 37.4745 16.1793 37.1458 16.5686 36.8926C16.8826 36.6895 17.05 36.5618 17.2175 36.4258C17.48 36.2085 17.6647 35.9116 17.7436 35.58C17.8225 35.2485 17.7914 34.9003 17.6549 34.588L10.6051 18.5124H12.4597C13.1944 18.5124 13.9123 18.2906 14.5194 17.8782L18.0694 15.4627C18.1559 15.4041 18.2579 15.3728 18.3624 15.3727H22.4964V45.7236H13.1044C12.688 45.7236 12.2887 45.889 11.9943 46.1834C11.6999 46.4779 11.5345 46.8772 11.5345 47.2935C11.5345 47.7099 11.6999 48.1092 11.9943 48.4036C12.2887 48.698 12.688 48.8634 13.1044 48.8634H35.0282C35.4446 48.8634 35.8439 48.698 36.1383 48.4036C36.4327 48.1092 36.5981 47.7099 36.5981 47.2935C36.5981 46.8772 36.4327 46.4779 36.1383 46.1834C35.8439 45.889 35.4446 45.7236 35.0282 45.7236H25.6362V15.3727H29.7681C29.8728 15.3727 29.9774 15.4041 30.0612 15.4627L33.6133 17.8782C34.2203 18.2906 34.9382 18.5124 35.6729 18.5124H37.5275L30.4777 34.588C30.3367 34.9094 30.3076 35.2688 30.3948 35.6088C30.4821 35.9487 30.6808 36.2497 30.9591 36.4635C30.9842 36.4823 30.9591 36.4635 30.9633 36.4635C31.1709 36.6198 31.3876 36.7638 31.6122 36.8946C31.9994 37.1291 32.5541 37.4305 33.2658 37.7319C35.1585 38.523 37.1904 38.9273 39.2418 38.9208C41.294 38.9269 43.3267 38.5219 45.2199 37.7298C45.9274 37.4305 46.4842 37.1291 46.8735 36.8946C47.0973 36.7625 47.3139 36.6186 47.5224 36.4635C47.8007 36.2497 47.9994 35.9487 48.0867 35.6088C48.1739 35.2688 48.1448 34.9094 48.0038 34.588L40.9582 18.5124H44.2612C44.6776 18.5124 45.0769 18.347 45.3713 18.0526C45.6657 17.7582 45.8311 17.3589 45.8311 16.9426C45.8311 16.5262 45.6657 16.1269 45.3713 15.8325C45.0769 15.5381 44.6776 15.3727 44.2612 15.3727H35.675C35.5706 15.3726 35.4685 15.3413 35.382 15.2827L31.8299 12.8672C31.2225 12.454 30.5048 12.233 29.7702 12.2329H25.6362V8.56988ZM3.5386 34.6257C5.18613 35.5023 7.02457 35.9589 8.89083 35.9548C10.7571 35.9589 12.5955 35.5023 14.2431 34.6257L8.89083 22.4225L3.5386 34.6257ZM33.9105 34.5754C34.0821 34.6591 34.2747 34.7492 34.4861 34.8392C35.5955 35.3059 37.2177 35.7811 39.2418 35.7811C41.0871 35.7863 42.9096 35.3741 44.5731 34.5754L39.2418 22.4204L33.9105 34.5754Z" fill="#47C0AC"/>
</g>
<defs>
<clipPath id="clip0_1746_24638">
<rect width="48.136" height="41.8634" fill="white" transform="translate(0 7)"/>
</clipPath>
</defs>
</svg>
