<svg width="106" height="91" viewBox="0 0 106 91" fill="none" xmlns="http://www.w3.org/2000/svg">
<mask id="mask0_179_18764" style="mask-type:alpha" maskUnits="userSpaceOnUse" x="0" y="0" width="106" height="91">
<rect x="0.330078" width="105" height="91" rx="3.40299" fill="#D9D9D9"/>
</mask>
<g mask="url(#mask0_179_18764)">
<mask id="mask1_179_18764" style="mask-type:alpha" maskUnits="userSpaceOnUse" x="0" y="0" width="196" height="91">
<rect x="0.330078" width="195" height="91" rx="4" fill="#FBFBFB"/>
</mask>
<g mask="url(#mask1_179_18764)">
<path d="M-79.2095 227.245C-80.7247 257.847 -72.4261 277.519 -51.8073 301.949C-31.1885 326.373 -2.49484 343.153 26.6655 357.053C55.8259 370.96 86.22 382.589 113.795 399.349C129.094 408.655 143.953 417.274 161.976 418.753C182.217 420.416 207.049 409.297 227.201 407.562C262.052 404.565 293.725 412.942 313.186 378.479C322.687 361.66 320.398 333.827 320.264 314.665C320.136 295.647 319.113 276.61 318.218 257.585C314.682 182.508 300.489 175.309 306.633 121.449C308.487 105.206 312.182 84.7745 307.701 55.8091C304.939 37.943 301.205 13.8138 284.723 -5.57057C260.716 -33.803 221.927 -37.5464 201.928 -39.4704C96.2897 -49.6534 13.0666 27.8581 4.42274 36.1433C-70.6168 108.086 -78.065 200.099 -79.2095 227.239" stroke="#1984E5" stroke-width="0.618075" stroke-miterlimit="10"/>
<path d="M159.054 399.73C167.519 402.446 176.17 404.252 185.331 403.715C208.872 402.348 232.202 395.044 255.116 389.737C273.356 385.515 293.649 379.167 304.626 362.414C320.565 338.088 308.935 299.163 307.286 272.52C304.37 225.277 296.737 178.216 298.13 130.9C298.802 108.087 301.577 85.2859 300.259 62.505C298.942 39.724 293.099 16.3672 278.675 -1.04085C259.297 -24.4304 227.733 -33.2981 197.818 -34.9342C94.1422 -40.5885 11.3922 38.0814 2.35831 47.2435C-16.5023 66.3661 -100.326 151.351 -83.0257 247.756C-77.099 280.805 -64.0884 313.252 -38.8728 335.732C-18.4714 353.926 7.31966 363.539 33.3536 369.619C53.6783 374.364 74.3738 377.067 94.8903 380.738C110.592 383.546 125.834 387.027 140.725 392.891C146.818 395.286 152.878 397.747 159.042 399.723L159.054 399.73Z" stroke="#FFDE00" stroke-width="0.154519" stroke-miterlimit="10"/>
<path d="M296.978 337.748C319.943 316.897 328.171 296.97 331.125 264.961C334.079 232.953 325.882 200.741 315.295 170.251C304.707 139.761 291.633 110.036 284.21 78.6167C279.313 57.8776 276.922 36.5757 271.2 16.0525C265.471 -4.47062 255.881 -24.7516 239.661 -38.1087C213.876 -59.3255 176.782 -58.5206 146.164 -47.3232C103.379 -31.6756 68.7138 1.04626 38.8502 36.1895C8.98652 71.3328 -17.4375 109.781 -50.3892 141.829C-66.2768 157.28 -83.6349 171.2 -98.1032 188.078C-112.572 204.956 -124.233 225.538 -125.838 248.207C-127.992 278.665 -111.76 307.853 -91.7929 330.784C-43.3884 386.372 29.7075 416.378 101.378 415.704C173.048 415.03 242.64 385.103 296.984 337.754" stroke="#47C0AC" stroke-width="0.154519" stroke-miterlimit="10"/>
</g>
</g>
</svg>
