<svg width="361" height="373" viewBox="0 0 361 373" fill="none" xmlns="http://www.w3.org/2000/svg">
<path d="M14.2663 165.742V212.066C14.2663 215.97 14.3964 222.346 9.06135 222.346C3.72625 222.346 0.733396 222.346 0.603271 222.346V237.831H9.19148C24.6763 237.831 32.4837 227.942 32.4837 213.107V165.742H14.2663Z" fill="#161650"/>
<path d="M68.9188 165.742C53.5642 165.742 40.1614 174.981 40.1614 191.247C40.1614 207.512 53.6943 216.621 68.9188 216.621C84.1433 216.621 97.6763 207.382 97.6763 191.247C97.6763 175.111 84.2735 165.742 68.9188 165.742ZM68.9188 180.446C75.8154 180.446 79.8493 185.391 79.8493 191.247C79.8493 197.102 75.8154 201.917 68.9188 201.917C62.0222 201.917 57.9884 197.232 57.9884 191.247C57.9884 185.261 62.0222 180.446 68.9188 180.446Z" fill="#161650"/>
<path d="M104.703 215.067H121.619V209.732H121.749C124.872 214.417 130.598 216.629 136.193 216.629C150.377 216.629 160.266 204.918 160.266 191.124C160.266 177.331 150.507 165.75 136.323 165.75C122.14 165.75 125.133 167.832 121.489 171.996V137.773H104.573V215.067H104.703ZM132.029 180.454C138.926 180.454 142.96 185.399 142.96 191.254C142.96 197.11 138.926 201.925 132.029 201.925C125.133 201.925 121.099 197.24 121.099 191.254C121.099 185.269 125.133 180.454 132.029 180.454Z" fill="#161650"/>
<path d="M185.12 167.309H168.204V238.877H185.12V210.51C188.763 214.674 194.489 216.626 199.954 216.626C214.137 216.626 223.897 205.045 223.897 191.252C223.897 177.458 214.007 165.617 199.824 165.617C185.64 165.617 188.503 167.829 185.38 172.644H185.25V167.309H185.12ZM195.4 180.451C202.296 180.451 206.33 185.396 206.33 191.252C206.33 197.107 202.296 201.922 195.4 201.922C188.503 201.922 184.469 197.237 184.469 191.252C184.469 185.266 188.503 180.451 195.4 180.451Z" fill="#161650"/>
<path d="M249.271 137.898H232.354V215.192H249.271V137.898Z" fill="#161650"/>
<path d="M260.071 167.305V196.062C260.071 211.807 271.132 216.622 285.445 216.622C299.759 216.622 310.819 211.807 310.819 196.062V167.305H293.903V192.809C293.903 198.795 292.472 203.089 285.445 203.089C278.419 203.089 276.987 198.795 276.987 192.809V167.305H260.071Z" fill="#161650"/>
<path d="M358.965 168.865C354.021 166.653 348.686 165.742 343.22 165.742C332.81 165.742 322.14 170.947 322.14 182.658C322.14 194.37 327.475 193.849 332.81 195.28C338.146 196.712 343.481 196.842 343.481 200.615C343.481 204.389 340.358 204.259 338.146 204.259C333.982 204.259 328.126 201.787 324.743 199.444L318.627 211.286C324.352 214.799 331.119 216.751 337.885 216.751C348.946 216.751 360.397 211.546 360.397 198.924C360.397 186.302 354.411 186.302 346.474 184.74C344.131 184.22 338.796 183.829 338.796 180.576C338.796 177.323 342.179 177.323 344.131 177.323C346.994 177.323 350.638 178.234 353.24 179.665L358.965 168.865Z" fill="#161650"/>
<path d="M23.375 156.246C29.4836 156.246 34.4356 151.294 34.4356 145.186C34.4356 139.077 29.4836 134.125 23.375 134.125C17.2664 134.125 12.3145 139.077 12.3145 145.186C12.3145 151.294 17.2664 156.246 23.375 156.246Z" fill="#00CCFF"/>
<path d="M356.753 143.238C357.144 143.238 357.404 143.498 357.404 143.889C357.404 144.279 357.014 144.539 356.753 144.539H355.712V143.238H356.753ZM357.404 146.621H358.055L357.014 145.06C357.274 145.06 357.924 144.8 357.924 143.889C357.924 142.978 357.404 142.718 356.623 142.718H355.062V146.491H355.582V144.93H356.233L357.274 146.491L357.404 146.621ZM356.493 141.807C358.055 141.807 359.356 143.108 359.356 144.67C359.356 146.231 358.055 147.532 356.493 147.532C354.932 147.532 353.63 146.231 353.63 144.67C353.63 143.108 354.932 141.807 356.493 141.807ZM356.493 147.923C358.315 147.923 359.876 146.491 359.876 144.539C359.876 142.588 358.445 141.156 356.493 141.156C354.541 141.156 353.11 142.588 353.11 144.539C353.11 146.491 354.541 147.923 356.493 147.923Z" fill="#161650"/>
</svg>
