<svg width="41" height="42" viewBox="0 0 41 42" fill="none" xmlns="http://www.w3.org/2000/svg">
<ellipse cx="20.1836" cy="20.809" rx="20" ry="20.2048" fill="#F2FAFF"/>
<g clip-path="url(#clip0_3411_31920)">
<path d="M16.7463 16.0203C16.7463 16.6525 16.2338 17.165 15.6016 17.165C14.9693 17.165 14.4568 16.6525 14.4568 16.0203C14.4568 15.388 14.9693 14.8755 15.6016 14.8755C16.2338 14.8755 16.7463 15.388 16.7463 16.0203Z" fill="#47C0AC" stroke="#47C0AC" stroke-width="0.210526"/>
<path d="M14.4568 18.9373C14.4568 18.5352 14.7828 18.2093 15.1849 18.2093H16.0182C16.4203 18.2093 16.7463 18.5352 16.7463 18.9373V25.604C16.7463 26.0061 16.4203 26.3321 16.0182 26.3321H15.1849C14.7828 26.3321 14.4568 26.0061 14.4568 25.604V18.9373Z" fill="#47C0AC" stroke="#47C0AC" stroke-width="0.210526"/>
<path d="M20.9143 19.3542L21.1189 19.3875C21.1194 19.3876 21.1194 19.3876 21.1194 19.3876L21.1194 19.3876L21.1194 19.3875L21.12 19.3859L21.1231 19.3774C21.126 19.3696 21.1308 19.3576 21.1374 19.342C21.1508 19.3108 21.1721 19.2652 21.2027 19.2101C21.264 19.0997 21.3626 18.9517 21.5106 18.8037C21.8047 18.5096 22.2993 18.2095 23.1029 18.2095C23.9201 18.2095 24.6236 18.414 25.1204 18.8114C25.6141 19.2064 25.9143 19.8 25.9143 20.6042V25.6042C25.9143 26.0064 25.5883 26.3323 25.1862 26.3323H24.3529C23.9507 26.3323 23.6248 26.0066 23.6248 25.6046V21.4376C23.6248 20.992 23.4554 20.6924 23.1819 20.5329C22.9155 20.3774 22.5721 20.368 22.244 20.45C21.9142 20.5325 21.585 20.7106 21.3368 20.952C21.0886 21.1932 20.9143 21.5052 20.9143 21.8542V25.6042C20.9143 26.0064 20.5883 26.3323 20.1862 26.3323H19.3529C18.9507 26.3323 18.6248 26.0064 18.6248 25.6042V18.9376C18.6248 18.5355 18.9508 18.2095 19.3529 18.2095H20.1862C20.5883 18.2095 20.9143 18.5355 20.9143 18.9376V19.3542Z" fill="#47C0AC" stroke="#47C0AC" stroke-width="0.210526"/>
<path d="M29.4581 13.9373C29.4581 12.4984 28.2918 11.332 26.8529 11.332H13.5195C12.0807 11.332 10.9143 12.4984 10.9143 13.9373V27.2706C10.9143 28.7095 12.0807 29.8759 13.5195 29.8759H26.8529C28.2918 29.8759 29.4581 28.7095 29.4581 27.2706V13.9373ZM26.8529 13.2092C27.255 13.2092 27.5809 13.5352 27.5809 13.9373V27.2706C27.5809 27.6727 27.255 27.9987 26.8529 27.9987H13.5195C13.1174 27.9987 12.7915 27.6727 12.7915 27.2706V13.9373C12.7915 13.5352 13.1174 13.2092 13.5195 13.2092H26.8529Z" fill="#47C0AC" stroke="#47C0AC" stroke-width="0.210526"/>
</g>
<defs>
<clipPath id="clip0_3411_31920">
<rect width="20" height="20" fill="white" transform="translate(10.1836 10.6042)"/>
</clipPath>
</defs>
</svg>
