<svg width="41" height="41" viewBox="0 0 41 41" fill="none" xmlns="http://www.w3.org/2000/svg">
<ellipse cx="20.1836" cy="20.3994" rx="20" ry="20.2048" fill="#F2FAFF"/>
<path d="M22.6999 23.4702H22.8413V25.9805V25.9807C22.8414 26.0913 22.874 26.1994 22.9351 26.2916C22.9957 26.3829 23.0815 26.4545 23.1821 26.4978C23.2527 26.5297 23.3296 26.5454 23.407 26.5439M22.6999 23.4702L16.338 27.9174L16.3392 28.1299C16.3384 28.1299 16.3375 28.1299 16.3367 28.1299C16.1942 28.13 16.0571 28.0755 15.9538 27.9774C15.9534 27.977 15.9531 27.9767 15.9527 27.9764L13.135 25.3509H12.3696C11.0856 25.3509 9.97113 24.4854 9.97113 23.3384V17.7876C9.97113 16.6406 11.0856 15.7751 12.3696 15.7751H16.4167V15.149C16.4167 13.9173 17.6194 12.9821 19.0082 12.9821H27.8046C29.1934 12.9821 30.3961 13.9173 30.3961 15.149V21.2998C30.3961 22.5348 29.1936 23.4702 27.8046 23.4702H26.9339L23.7915 26.3957L23.7874 26.3996L23.7873 26.3995C23.6823 26.4922 23.5471 26.5435 23.407 26.5439M22.6999 23.4702C22.6184 24.5511 21.5407 25.3509 20.3064 25.3509H16.9013L22.6999 23.4702ZM23.407 26.5439C23.4061 26.5439 23.4051 26.5439 23.4041 26.5439L23.4046 26.3314L23.4101 26.5438C23.4091 26.5438 23.408 26.5439 23.407 26.5439ZM13.3555 24.2242H13.3563C13.4984 24.2247 13.6352 24.279 13.739 24.376L13.7389 24.3759L13.3555 24.2242ZM13.3555 24.2242H12.3696C12.0017 24.2242 11.676 24.1134 11.4471 23.9443C11.2183 23.7752 11.0978 23.5586 11.0978 23.3384V17.7876C11.0978 17.5694 11.2181 17.3527 11.4473 17.1829C11.6763 17.0133 12.002 16.9018 12.3696 16.9018H16.4167V21.2998C16.4167 22.5348 17.6192 23.4702 19.0082 23.4702H21.5627C21.5232 23.6388 21.4084 23.8038 21.2235 23.9404C20.9918 24.1117 20.6656 24.2242 20.3064 24.2242H16.338C16.1886 24.2242 16.0453 24.2836 15.9396 24.3892L16.0899 24.5395L15.9396 24.3892C15.834 24.4949 15.7746 24.6382 15.7746 24.7876V26.2714M13.3555 24.2242L15.7746 26.2714M15.7746 26.2714L13.7393 24.3763L15.7746 26.2714ZM26.3292 22.4892L26.3293 22.4892C26.4339 22.3952 26.5696 22.3432 26.7103 22.3435M26.3292 22.4892L23.7555 24.8867L23.968 24.6888M26.3292 22.4892L26.3265 22.4917L23.968 24.6888M26.3292 22.4892L23.968 24.9791V24.6888M26.7103 22.3435L26.7099 22.556V22.3435H26.7103ZM26.7103 22.3435H27.8046C28.2242 22.3435 28.5979 22.2148 28.8619 22.0171C29.1261 21.8192 29.2694 21.563 29.2694 21.2998V15.149C29.2694 14.886 29.1263 14.6307 28.8623 14.4337C28.5983 14.2368 28.2246 14.1088 27.8046 14.1088H19.0082C18.5883 14.1088 18.2145 14.2368 17.9506 14.4337C17.6865 14.6307 17.5434 14.886 17.5434 15.149V21.2998C17.5434 21.563 17.6867 21.8192 17.9509 22.0171C18.2149 22.2148 18.5886 22.3435 19.0082 22.3435H23.4036H23.4046V22.556C23.4509 22.5555 23.4967 22.5643 23.5395 22.5817C23.5823 22.5992 23.6211 22.625 23.6538 22.6577C23.6865 22.6904 23.7123 22.7293 23.7298 22.772L23.9265 22.6917C23.9545 22.7603 23.9686 22.8338 23.968 22.9079M23.968 22.9079C23.968 22.9083 23.968 22.9086 23.968 22.909L23.7555 22.9069H23.968V22.9079ZM23.968 22.9079V24.6888" fill="#1984E5" stroke="#1984E5" stroke-width="0.424929"/>
</svg>
