<svg width="19" height="19" viewBox="0 0 19 19" fill="none" xmlns="http://www.w3.org/2000/svg">
<path fill-rule="evenodd" clip-rule="evenodd" d="M11 1.5C11 2.05228 11.4477 2.5 12 2.5H17L17 16.5H12C11.4477 16.5 11 16.9477 11 17.5C11 18.0523 11.4477 18.5 12 18.5H17C18.1046 18.5 19 17.6046 19 16.5L19 2.5C19 1.39543 18.1046 0.5 17 0.5H12C11.4477 0.5 11 0.947716 11 1.5Z" fill="#DC5A5A"/>
<path d="M0.286396 8.79945C0.193743 8.8938 0.123569 9.00195 0.0758781 9.11722C0.0273457 9.23425 0.000398636 9.3625 3.8147e-06 9.497L0 9.5L3.8147e-06 9.503C0.000762939 9.75792 0.0983925 10.0126 0.292892 10.2071L4.29289 14.2071C4.68342 14.5976 5.31658 14.5976 5.70711 14.2071C6.09763 13.8166 6.09763 13.1834 5.70711 12.7929L3.41421 10.5L13 10.5C13.5523 10.5 14 10.0523 14 9.5C14 8.94771 13.5523 8.5 13 8.5L3.41421 8.5L5.70711 6.20711C6.09763 5.81658 6.09763 5.18342 5.70711 4.79289C5.31658 4.40237 4.68342 4.40237 4.29289 4.79289L0.293606 8.79218L0.286396 8.79945Z" fill="#DC5A5A"/>
</svg>
