<svg width="74" height="74" viewBox="0 0 74 74" fill="none" xmlns="http://www.w3.org/2000/svg">
<path d="M37 74C57.4345 74 74 57.4345 74 37C74 16.5655 57.4345 0 37 0C16.5655 0 0 16.5655 0 37C0 57.4345 16.5655 74 37 74Z" fill="#1984E5"/>
<path d="M49.5 20.5002C45 17.0005 37 17.5002 37 17.5002L14 40.5002V45.0002L18.5 50.5002L40 57.0002L57 37.0002C55.8757 37.0074 58.9868 27.5031 57 28.0002C55.0132 28.4974 54 24 49.5 20.5002Z" fill="white"/>
<path d="M58.6988 19.7472L37.253 15.0725C36.6104 14.9118 35.9518 14.8797 35.2771 14.9761C34.3454 15.1689 33.5582 15.6187 32.9157 16.3255L15.4217 35.1207C14.3293 36.3094 13.4859 37.6669 12.8916 39.193C12.2972 40.7191 12 42.2853 12 43.8918V44.6628C12 46.3335 12.4819 47.8355 13.4458 49.1689C14.4096 50.5022 15.6787 51.4259 17.253 51.9399L37.8313 58.9761C38.6024 59.2331 39.3815 59.2492 40.1687 59.0243C40.9558 58.7994 41.6064 58.3657 42.1205 57.7231L59.0843 36.9038C59.4056 36.4861 59.5181 36.0042 59.4217 35.458C59.261 34.8476 59.004 34.205 58.6506 33.5303C58.3293 33.0163 58.1526 32.5905 58.1205 32.2532C58.0884 31.9159 58.0884 31.5705 58.1205 31.2171C58.1526 31.0243 58.2169 30.703 58.3133 30.2532L58.4578 29.7713C58.5542 29.2572 58.498 28.8074 58.2892 28.4219C58.0803 28.0363 57.7028 27.7954 57.1566 27.699C56.739 27.6026 56.3695 27.6829 56.0482 27.9399C55.7912 28.1327 55.4859 28.4861 55.1325 29.0002C54.8755 29.45 54.7068 30.0765 54.6265 30.8797C54.5462 31.6829 54.6024 32.4379 54.7952 33.1448C54.9237 33.4982 55.0843 33.9801 55.2771 34.5906C55.4056 34.944 55.3414 35.2652 55.0843 35.5544L40 54.0604C39.743 54.3496 39.4137 54.5584 39.012 54.6869C38.6104 54.8154 38.2169 54.8154 37.8313 54.6869L18.7952 48.711C17.9277 48.4219 17.2209 47.9159 16.6747 47.193C16.1285 46.4701 15.8554 45.6428 15.8554 44.711V43.1689C15.7912 42.5263 15.8875 41.9962 16.1446 41.5785C16.4016 41.1608 16.755 40.8797 17.2048 40.7351C17.6546 40.5905 18.1044 40.5825 18.5542 40.711L37.4458 46.3978C37.6707 46.462 37.8956 46.4942 38.1205 46.4942H38.1687C38.8434 46.4942 39.4217 46.2211 39.9036 45.6749L59.5663 22.6387C59.8554 22.3175 60 21.948 60 21.5303V21.4339C60 21.0484 59.8795 20.695 59.6386 20.3737C59.3976 20.0524 59.0843 19.8436 58.6988 19.7472ZM32.3373 36.1809C31.8233 36.7592 31.1486 37.1849 30.3133 37.458C29.4779 37.7311 28.7229 37.7954 28.0482 37.6508C27.3735 37.5062 26.9799 37.1849 26.8675 36.6869C26.755 36.1889 26.9558 35.6588 27.4699 35.0966C27.9839 34.5343 28.6586 34.1167 29.494 33.8436C30.3293 33.5705 31.0843 33.5142 31.759 33.6749C32.4337 33.8355 32.8273 34.1568 32.9398 34.6387C33.0522 35.1207 32.8514 35.6347 32.3373 36.1809ZM47.9036 25.7231C47.1325 26.5584 46.2329 27.2171 45.2048 27.699C44.0482 28.2452 42.3454 28.7432 40.0964 29.193C38.6827 29.4821 37.6546 29.7873 37.012 30.1086C36.5622 30.3335 35.8715 30.8958 34.9398 31.7954C34.6827 32.0524 34.3775 32.1327 34.0241 32.0363L33.4458 31.8918C33.3494 31.8596 33.2851 31.7954 33.253 31.699C33.2209 31.6026 33.2369 31.5223 33.3012 31.458C34.008 30.6869 34.6024 30.1247 35.0843 29.7713C35.6305 29.3215 36.5462 28.7673 37.8313 28.1086C39.1165 27.45 40.0643 26.8958 40.6747 26.446L41.253 26.0604C42.0884 25.5142 42.6667 25.0644 42.988 24.711C43.502 24.1648 43.8635 23.699 44.0723 23.3134C44.2811 22.9279 44.3454 22.5825 44.2651 22.2773C44.1847 21.9721 43.9759 21.699 43.6386 21.458C43.3012 21.2171 42.9398 21.0644 42.5542 21.0002C41.9759 20.8717 41.4137 20.8877 40.8675 21.0484C40.6426 21.0805 40.4096 21.1608 40.1687 21.2893C39.9277 21.4179 39.751 21.5464 39.6386 21.6749C39.5261 21.8034 39.4377 22.0283 39.3735 22.3496L39.3253 22.5905C39.2289 22.944 39.1647 23.1849 39.1325 23.3134C39.0361 23.5705 38.9076 23.7793 38.747 23.9399C38.2651 24.454 37.7992 24.7753 37.3494 24.9038C36.7711 25.0966 36.2169 25.1367 35.6867 25.0243C35.1566 24.9118 34.8434 24.6468 34.747 24.2291C34.7149 23.9721 34.7149 23.699 34.747 23.4098C34.8434 23.0564 35.004 22.7512 35.2289 22.4942C35.6466 22.0444 36.2088 21.6588 36.9157 21.3375C37.494 21.0805 38.2651 20.8074 39.2289 20.5183C40.1285 20.2612 41.0843 20.1167 42.0964 20.0845C43.1084 20.0524 44.0643 20.1327 44.9639 20.3255C46.7309 20.7432 47.8715 21.4661 48.3855 22.4942C48.6104 23.0082 48.7068 23.5383 48.6747 24.0845C48.6104 24.695 48.3534 25.2412 47.9036 25.7231Z" fill="#47C0AC"/>
</svg>
