<svg width="74" height="74" viewBox="0 0 74 74" fill="none" xmlns="http://www.w3.org/2000/svg">
<g clip-path="url(#clip0_404_7900)">
<path d="M37 74C57.4345 74 74 57.4345 74 37C74 16.5655 57.4345 0 37 0C16.5655 0 0 16.5655 0 37C0 57.4345 16.5655 74 37 74Z" fill="#1984E5"/>
<path d="M48.6534 66.367L11.77 55.9953C11.0125 55.7622 10.6046 55.0047 10.7794 54.2473L23.5983 8.56537C23.8314 7.80789 24.5889 7.40002 25.3463 7.57482L62.1715 17.9465C62.929 18.1795 63.3369 18.937 63.1621 19.6945L50.3432 65.3764C50.1684 66.1339 49.3526 66.5418 48.6534 66.367Z" fill="#E2E2E2"/>
<path d="M56.1118 62.1135H17.8882C17.1307 62.1135 16.4897 61.4725 16.4897 60.7151V13.2851C16.4897 12.5277 17.1307 11.8867 17.8882 11.8867H56.1701C56.9275 11.8867 57.5685 12.5277 57.5685 13.2851V60.7151C57.5102 61.4725 56.9275 62.1135 56.1118 62.1135Z" fill="white"/>
<path d="M19.2866 19.5195C19.2866 19.2864 19.4614 19.0533 19.7528 19.0533C20.3354 19.0533 20.3937 18.4707 20.3937 18.4124V15.0911C20.3937 14.8581 20.5685 14.625 20.8598 14.625C21.0929 14.625 21.326 14.7998 21.326 15.0911V18.4124C21.326 18.4707 21.326 18.8203 21.1512 19.1699C20.9181 19.6943 20.3937 19.9856 19.811 19.9856C19.4614 19.9856 19.2866 19.7526 19.2866 19.5195Z" fill="#47C0AC"/>
<path d="M21.9087 17.3053C21.9087 15.8486 23.074 14.625 24.4725 14.625C25.8709 14.625 27.0363 15.7904 27.0363 17.3053C27.0363 18.762 25.8709 19.9856 24.4725 19.9856C23.0158 19.9856 21.9087 18.762 21.9087 17.3053ZM22.7827 17.3053C22.7827 18.2959 23.5402 19.0533 24.4142 19.0533C25.3465 19.0533 26.104 18.2376 26.104 17.3053C26.104 16.3148 25.3465 15.5573 24.4142 15.5573C23.5402 15.5573 22.7827 16.3148 22.7827 17.3053Z" fill="#47C0AC"/>
<path d="M31.1731 18.2959C31.1731 19.3447 30.3574 19.9856 29.5999 19.9856H28.0267C27.7936 19.9856 27.5605 19.8108 27.5605 19.5195V15.0911C27.5605 14.8581 27.7353 14.625 28.0267 14.625H29.2503C29.3086 14.625 29.5999 14.625 29.9495 14.7998C30.4157 15.0329 30.707 15.499 30.707 16.0817C30.707 16.373 30.6487 16.6644 30.4739 16.8974C30.9401 17.247 31.1731 17.7132 31.1731 18.2959ZM28.4928 16.6644H29.1338C29.2503 16.6644 29.7747 16.6644 29.7747 16.0817C29.7747 15.5573 29.4251 15.499 29.3086 15.499C29.2503 15.499 29.2503 15.499 29.2503 15.499H28.4928V16.6644ZM30.2991 18.2959C30.2991 18.0045 30.1243 17.5384 29.5999 17.5384H28.5511V19.1116H29.5999C29.5999 19.1116 29.833 19.1116 30.0078 18.9951C30.2409 18.8203 30.2991 18.5289 30.2991 18.2959Z" fill="#47C0AC"/>
<path d="M35.6016 23.1323H18.5874V24.4142H35.6016V23.1323Z" fill="#E2E2E2"/>
<path d="M55.4126 23.1323H38.3984V24.4142H55.4126V23.1323Z" fill="#E2E2E2"/>
<path d="M35.6016 26.9199H18.5874V28.2018H35.6016V26.9199Z" fill="#E2E2E2"/>
<path d="M55.4126 26.9199H38.3984V28.2018H55.4126V26.9199Z" fill="#E2E2E2"/>
<path d="M35.6016 30.7651H18.5874V32.047H35.6016V30.7651Z" fill="#E2E2E2"/>
<path d="M55.4126 30.7651H38.3984V32.047H55.4126V30.7651Z" fill="#E2E2E2"/>
<path d="M35.6016 34.6108H18.5874V35.8927H35.6016V34.6108Z" fill="#E2E2E2"/>
<path d="M55.4126 34.6108H38.3984V35.8927H55.4126V34.6108Z" fill="#E2E2E2"/>
<path d="M35.6016 38.4565H18.5874V39.7384H35.6016V38.4565Z" fill="#E2E2E2"/>
<path d="M55.4126 38.4565H38.3984V39.7384H55.4126V38.4565Z" fill="#E2E2E2"/>
<path d="M35.6016 42.3022H18.5874V43.5841H35.6016V42.3022Z" fill="#E2E2E2"/>
<path d="M55.4126 42.3022H38.3984V43.5841H55.4126V42.3022Z" fill="#E2E2E2"/>
<path d="M35.6016 46.1479H18.5874V47.4298H35.6016V46.1479Z" fill="#E2E2E2"/>
<path d="M55.4126 46.1479H38.3984V47.4298H55.4126V46.1479Z" fill="#E2E2E2"/>
<path d="M35.6016 49.9937H18.5874V51.2755H35.6016V49.9937Z" fill="#E2E2E2"/>
<path d="M55.4126 49.9937H38.3984V51.2755H55.4126V49.9937Z" fill="#E2E2E2"/>
<path d="M35.6016 53.8394H18.5874V55.1212H35.6016V53.8394Z" fill="#E2E2E2"/>
<path d="M55.4126 53.8394H38.3984V55.1212H55.4126V53.8394Z" fill="#E2E2E2"/>
<path d="M35.6016 57.6851H18.5874V58.9669H35.6016V57.6851Z" fill="#E2E2E2"/>
<path d="M55.4126 57.6851H38.3984V58.9669H55.4126V57.6851Z" fill="#E2E2E2"/>
</g>
<defs>
<clipPath id="clip0_404_7900">
<rect width="74" height="74" fill="white"/>
</clipPath>
</defs>
</svg>
