<svg width="39" height="42" viewBox="0 0 39 42" fill="none" xmlns="http://www.w3.org/2000/svg">
<path d="M23.3059 26.9722H29.2782L27.6001 25.2941C27.145 24.839 26.8893 24.2218 26.8893 23.5781V19.8056C26.8893 16.6851 24.895 14.0305 22.1115 13.0467V12.6389C22.1115 11.3195 21.0419 10.25 19.7226 10.25C18.4032 10.25 17.3337 11.3195 17.3337 12.6389V13.0467C14.5502 14.0305 12.5559 16.6851 12.5559 19.8056V23.5781C12.5559 24.2218 12.3002 24.839 11.8451 25.2941L10.167 26.9722H16.1392M23.3059 26.9722V28.1667C23.3059 30.1457 21.7016 31.75 19.7226 31.75C17.7436 31.75 16.1392 30.1457 16.1392 28.1667V26.9722M23.3059 26.9722H16.1392" stroke="#1984E5" stroke-width="2.3889" stroke-linecap="round" stroke-linejoin="round"/>
<circle cx="26.2227" cy="13.6943" r="3" fill="#FF9900"/>
</svg>
