<svg width="1440" height="1210" viewBox="0 0 1440 1210" fill="none" xmlns="http://www.w3.org/2000/svg">
<path d="M99.8238 1169.83C93.181 1303.41 129.562 1389.29 219.955 1495.94C310.349 1602.56 436.142 1675.81 563.982 1736.49C691.822 1797.2 825.07 1847.96 945.959 1921.13C1013.03 1961.75 1078.17 1999.38 1157.18 2005.84C1245.92 2013.09 1354.79 1964.55 1443.13 1956.98C1595.92 1943.9 1734.78 1980.47 1820.1 1830.02C1861.75 1756.6 1851.71 1635.1 1851.12 1551.45C1850.56 1468.43 1846.08 1385.32 1842.15 1302.27C1826.65 974.528 1764.43 943.103 1791.37 707.981C1799.49 637.073 1815.69 547.881 1796.05 421.436C1783.94 343.443 1767.57 238.109 1695.31 153.488C1590.06 30.2421 1420.01 13.9008 1332.34 5.50153C869.216 -38.9516 504.364 299.418 466.469 335.586C137.494 649.644 104.841 1051.32 99.8238 1169.8" stroke="#1984E5" stroke-miterlimit="10"/>
<path d="M1144.38 1922.79C1181.49 1934.65 1219.41 1942.53 1259.58 1940.19C1362.78 1934.22 1465.06 1902.33 1565.51 1879.17C1645.48 1860.74 1734.44 1833.03 1782.57 1759.89C1852.44 1653.7 1801.46 1483.77 1794.23 1367.47C1781.45 1161.23 1747.98 955.791 1754.09 749.238C1757.03 649.647 1769.2 550.113 1763.42 450.665C1757.65 351.217 1732.03 249.254 1668.8 173.261C1583.84 71.1562 1445.46 32.4453 1314.32 25.3031C859.801 0.619562 497.023 344.046 457.419 384.042C374.733 467.521 7.24732 838.516 83.0934 1259.36C109.076 1403.64 166.115 1545.28 276.661 1643.41C366.101 1722.84 479.169 1764.8 593.303 1791.34C682.406 1812.06 773.136 1823.86 863.081 1839.88C931.919 1852.14 998.74 1867.34 1064.02 1892.94C1090.73 1903.39 1117.3 1914.13 1144.32 1922.76L1144.38 1922.79Z" stroke="#FFE539" stroke-miterlimit="10"/>
<path d="M1876.85 1381.49C1961.98 1275.79 1983.94 1184.21 1974.78 1044.18C1965.61 904.148 1908.04 770.923 1841.29 646.766C1774.54 522.608 1697.54 403.465 1643.86 273.121C1608.43 187.083 1583.47 96.8934 1544.62 12.355C1505.74 -72.1791 1450.31 -153.01 1370.93 -199.423C1244.74 -273.135 1084.69 -244.116 959.804 -174.754C785.296 -77.827 657.652 87.1184 552.456 259.196C447.261 431.274 359.224 615.231 238.535 776.09C180.345 853.646 114.738 925.613 63.6715 1008.34C12.6049 1091.07 -23.7696 1187.84 -15.1704 1286.67C-3.61084 1419.47 86.6881 1534.12 188.862 1619.23C436.556 1825.55 773.609 1904.56 1083.45 1852.3C1393.29 1800.03 1674.07 1623.07 1876.88 1381.52" stroke="#47C0AC" stroke-miterlimit="10"/>
</svg>
