<svg width="1440" height="982" viewBox="0 0 1440 982" fill="none" xmlns="http://www.w3.org/2000/svg">
<path d="M-11.6853 601.553C-17.7843 724.205 15.6188 803.053 98.612 900.97C181.605 998.861 297.101 1066.11 414.475 1121.83C531.85 1177.57 654.19 1224.18 765.182 1291.35C826.764 1328.65 886.571 1363.2 959.116 1369.13C1040.59 1375.79 1140.54 1331.22 1221.66 1324.27C1361.94 1312.26 1489.42 1345.83 1567.76 1207.7C1606 1140.29 1596.79 1028.74 1596.25 951.935C1595.73 875.711 1591.61 799.407 1588.01 723.156C1573.78 422.244 1516.65 393.391 1541.38 177.517C1548.84 112.414 1563.72 30.5238 1545.68 -85.5707C1534.56 -157.179 1519.53 -253.889 1453.19 -331.583C1356.56 -444.74 1200.43 -459.743 1119.93 -467.455C694.722 -508.269 359.738 -197.599 324.945 -164.392C22.9015 123.955 -7.07884 492.751 -11.6853 601.527" stroke="#1984E5" stroke-miterlimit="10"/>
<path d="M947.358 1292.88C981.43 1303.76 1016.25 1311 1053.13 1308.85C1147.88 1303.37 1241.78 1274.1 1334.02 1252.82C1407.44 1235.91 1489.12 1210.46 1533.3 1143.31C1597.46 1045.82 1550.65 889.799 1544.01 783.017C1532.27 593.661 1501.55 405.04 1507.16 215.397C1509.86 123.958 1521.03 32.5727 1515.73 -58.7343C1510.42 -150.041 1486.9 -243.657 1428.85 -313.429C1350.85 -407.175 1223.8 -442.717 1103.39 -449.275C686.077 -471.937 352.998 -156.625 316.635 -119.903C240.719 -43.2586 -96.6835 297.366 -27.0465 683.762C-3.19074 816.224 49.1785 946.273 150.675 1036.37C232.793 1109.29 336.605 1147.82 441.395 1172.19C523.205 1191.21 606.507 1202.04 689.088 1216.76C752.292 1228.01 813.642 1241.96 873.577 1265.47C898.102 1275.07 922.498 1284.93 947.306 1292.85L947.358 1292.88Z" stroke="#FFE539" stroke-miterlimit="10"/>
<path d="M1619.87 795.893C1698.03 698.84 1718.19 614.758 1709.78 486.191C1701.37 357.625 1648.5 235.307 1587.22 121.313C1525.93 7.31952 1455.24 -102.071 1405.95 -221.744C1373.42 -300.738 1350.51 -383.545 1314.84 -461.163C1279.14 -538.777 1228.25 -612.99 1155.36 -655.604C1039.5 -723.281 892.555 -696.638 777.894 -632.954C617.671 -543.962 500.477 -392.52 403.893 -234.529C307.309 -76.5377 226.479 92.3599 115.671 240.051C62.2442 311.258 2.00795 377.333 -44.8782 453.289C-91.7644 529.246 -125.161 618.089 -117.266 708.837C-106.653 830.758 -23.7459 936.027 70.0636 1014.17C297.481 1203.59 606.941 1276.14 891.416 1228.15C1175.89 1180.17 1433.69 1017.7 1619.9 795.915" stroke="#47C0AC" stroke-miterlimit="10"/>
</svg>
