<svg width="24" height="24" viewBox="0 0 24 24" fill="none" xmlns="http://www.w3.org/2000/svg">
<path d="M12 0L14.7732 1.60691H17.987L19.594 4.40605L22.3931 6.01296V9.22678L24 12L22.3931 14.7732V17.987L19.594 19.594L17.987 22.3931H14.7732L12 24L9.22678 22.3931H6.01296L4.40605 19.594L1.60691 17.987V14.7732L0 12L1.60691 9.22678V6.01296L4.40605 4.40605L6.01296 1.60691H9.22678L12 0Z" fill="#47C0AC"/>
<path d="M12 20.7833C7.15339 20.7833 3.21387 16.8438 3.21387 11.9971C3.21387 7.15046 7.15339 3.21094 12 3.21094C16.8467 3.21094 20.7862 7.15046 20.7862 11.9971C20.7862 16.8438 16.8467 20.7833 12 20.7833ZM12 3.96256C7.56808 3.96256 3.96549 7.56515 3.96549 11.9971C3.96549 16.4291 7.56808 20.0317 12 20.0317C16.432 20.0317 20.0346 16.4291 20.0346 11.9971C20.0346 7.56515 16.432 3.96256 12 3.96256Z" fill="white"/>
<path d="M11.0412 15.2656L7.23129 12.2332C6.92027 11.974 6.86844 11.5334 7.12762 11.2224C7.3868 10.9114 7.8274 10.8596 8.13842 11.1187L11.4041 13.7364L15.7583 8.86387C16.0175 8.57878 16.484 8.55286 16.7691 8.81204C17.0542 9.07122 17.0801 9.53774 16.8209 9.82284L12.0261 15.1878C11.7669 15.4729 11.3263 15.4989 11.0412 15.2656Z" fill="#FFE539"/>
</svg>
