<svg width="74" height="74" viewBox="0 0 74 74" fill="none" xmlns="http://www.w3.org/2000/svg">
<path d="M37 0L45.5508 4.95464H55.46L60.4147 13.5853L69.0454 18.54V28.4492L74 37L69.0454 45.5508V55.46L60.4147 60.4147L55.46 69.0454H45.5508L37 74L28.4492 69.0454H18.54L13.5853 60.4147L4.95464 55.46V45.5508L0 37L4.95464 28.4492V18.54L13.5853 13.5853L18.54 4.95464H28.4492L37 0Z" fill="#1984E5"/>
<path d="M36.9996 64.0906C22.0558 64.0906 9.90894 51.9437 9.90894 36.9999C9.90894 22.056 22.0558 9.90918 36.9996 9.90918C51.9435 9.90918 64.0904 22.056 64.0904 36.9999C64.0904 51.9437 51.9435 64.0906 36.9996 64.0906ZM36.9996 12.2267C23.3344 12.2267 12.2264 23.3347 12.2264 36.9999C12.2264 50.6651 23.3344 61.7731 36.9996 61.7731C50.6649 61.7731 61.7729 50.6651 61.7729 36.9999C61.7729 23.3347 50.6649 12.2267 36.9996 12.2267Z" fill="white"/>
<path d="M34.0435 47.0693L22.2962 37.7194C21.3372 36.9202 21.1774 35.5617 21.9765 34.6027C22.7756 33.6438 24.1342 33.484 25.0931 34.2831L35.1623 42.3544L48.5877 27.3306C49.3869 26.4516 50.8253 26.3716 51.7044 27.1708C52.5834 27.9699 52.6633 29.4084 51.8642 30.2874L37.0802 46.8295C36.281 47.7086 34.9225 47.7885 34.0435 47.0693Z" fill="#FFE539"/>
</svg>
