<svg width="10" height="14" viewBox="0 0 10 14" fill="none" xmlns="http://www.w3.org/2000/svg">
<path d="M0 2C0 1.30964 0.559644 0.75 1.25 0.75H8.75C9.44036 0.75 10 1.30964 10 2V12.625C10 12.8591 9.86916 13.0736 9.66099 13.1807C9.45282 13.2879 9.20224 13.2697 9.01173 13.1336L5 10.2681L0.988274 13.1336C0.797765 13.2697 0.547181 13.2879 0.339012 13.1807C0.130842 13.0736 0 12.8591 0 12.625V2ZM8.75 2L1.25 2V11.4105L4.63673 8.99142C4.85404 8.83619 5.14596 8.83619 5.36327 8.99142L8.75 11.4105V2Z" fill="#FF9900"/>
</svg>
