<svg width="68" height="57" viewBox="0 0 68 57" fill="none" xmlns="http://www.w3.org/2000/svg">
<path d="M40.2867 57C24.981 57 12.5733 44.2401 12.5733 28.5C12.5733 12.7599 24.981 0 40.2867 0C55.5923 0 68 12.7599 68 28.5C68 44.2401 55.5923 57 40.2867 57Z" fill="#F2FAFF"/>
<path d="M40.8578 17.1723L39.0123 7.26285L16.0203 20.4519L12.3515 21.1352L12.0357 19.4393L8.64401 20.071L8.95985 21.7668L7.26401 22.0827C4.45872 22.6052 2.60154 25.3124 3.12401 28.1177L4.80849 37.1622C5.22752 39.4121 7.05252 41.0509 9.20575 41.3425L13.1409 56.0814L23.326 54.1845L19.4582 39.6978L19.5999 39.6714L45.7983 43.699L43.9527 33.7895C47.6716 32.2818 49.9512 28.3123 49.1886 24.2176C48.426 20.1228 44.8702 17.2403 40.8578 17.1723ZM15.6501 52.1048L12.6749 40.9611L16.0565 40.3313L19.0317 51.4749L15.6501 52.1048ZM17.5605 36.5419L10.2118 37.9105C9.27675 38.0847 8.37432 37.4656 8.20016 36.5305L6.51569 27.486C6.34153 26.5509 6.96059 25.6485 7.89569 25.4744L15.2443 24.1057L17.5605 36.5419ZM41.5163 39.5502L21.0439 36.4029L18.5442 22.9814L36.5109 12.675L41.5163 39.5502ZM43.2985 30.2767L41.5121 20.6851C43.6162 21.0175 45.3852 22.6384 45.7969 24.8493C46.2087 27.0601 45.1418 29.2091 43.2985 30.2767Z" fill="#47C0AC"/>
</svg>
