<svg width="66" height="57" viewBox="0 0 66 57" fill="none" xmlns="http://www.w3.org/2000/svg">
<path d="M37.7134 57C22.4077 57 10.0001 44.2401 10.0001 28.5C10.0001 12.7599 22.4077 0 37.7134 0C53.0191 0 65.4268 12.7599 65.4268 28.5C65.4268 44.2401 53.0191 57 37.7134 57Z" fill="#F2FAFF"/>
<path d="M31.8051 28.5646C29.0509 27.1875 22.4373 22.7097 18.9244 22.7097C15.4114 22.7097 6.47118 29.1908 8.39568 32.0775C10.7376 35.5904 15.7759 29.0929 18.9244 29.7356C22.0729 30.3782 24.7893 33.2485 24.7893 35.5904C24.7893 37.9324 22.0729 41.3024 18.9244 40.2743C15.7759 39.2462 14.4535 35.2192 11.8985 34.4195C8.89385 33.4789 6.19057 35.864 7.2247 37.9324C8.25884 40.0008 10.9879 42.8519 14.2405 46.1292C17.1599 49.0709 22.4373 51.9841 29.4631 48.4711C36.489 44.9582 37.67 39.6884 37.67 32.0775C37.67 28.5646 26.5064 14.2055 22.4373 12.171C20.0953 11 17.7635 13.3419 20.0953 16.8549C21.5434 19.0364 25.9603 23.3586 27.1312 25.9301M30.6442 20.3678C30.6442 20.3678 30.3413 19.1968 29.4631 15.6839C28.2921 11 31.8051 9.82903 32.976 12.171C34.4571 15.1333 37.1716 27.1939 37.6599 32.0775" stroke="#47C0AC" stroke-width="2.81034"/>
</svg>
