<svg width="61" height="58" viewBox="0 0 61 58" fill="none" xmlns="http://www.w3.org/2000/svg">
<path d="M32.7134 57.4375C17.4077 57.4375 5.00006 44.6776 5.00006 28.9375C5.00006 13.1974 17.4077 0.4375 32.7134 0.4375C48.0191 0.4375 60.4268 13.1974 60.4268 28.9375C60.4268 44.6776 48.0191 57.4375 32.7134 57.4375Z" fill="#F2FAFF"/>
<g clip-path="url(#clip0_1738_24772)">
<path d="M9.51779 27.3002C10.565 27.3002 11.414 26.4513 11.414 25.404C11.414 24.3568 10.565 23.5078 9.51779 23.5078C8.47054 23.5078 7.62158 24.3568 7.62158 25.404C7.62158 26.4513 8.47054 27.3002 9.51779 27.3002Z" fill="#47C0AC"/>
<path d="M9.51779 34.894C10.565 34.894 11.414 34.045 11.414 32.9978C11.414 31.9505 10.565 31.1016 9.51779 31.1016C8.47054 31.1016 7.62158 31.9505 7.62158 32.9978C7.62158 34.045 8.47054 34.894 9.51779 34.894Z" fill="#47C0AC"/>
<path d="M9.51779 42.4721C10.565 42.4721 11.414 41.6231 11.414 40.5759C11.414 39.5286 10.565 38.6797 9.51779 38.6797C8.47054 38.6797 7.62158 39.5286 7.62158 40.5759C7.62158 41.6231 8.47054 42.4721 9.51779 42.4721Z" fill="#47C0AC"/>
<path d="M28.6216 27.3002H17.1779C16.1312 27.3002 15.2817 26.4507 15.2817 25.404C15.2817 24.3573 16.1312 23.5078 17.1779 23.5078H28.6216C29.6702 23.5078 30.5178 24.3573 30.5178 25.404C30.5178 26.4507 29.6702 27.3002 28.6216 27.3002ZM28.6216 34.8851H17.1779C16.1312 34.8851 15.2817 34.0356 15.2817 32.9888C15.2817 31.9421 16.1312 31.0926 17.1779 31.0926H28.6216C29.6702 31.0926 30.5178 31.9421 30.5178 32.9888C30.5178 34.0356 29.6702 34.8851 28.6216 34.8851ZM28.6216 42.4699H17.1779C16.1312 42.4699 15.2817 41.6223 15.2817 40.5737C15.2817 39.5251 16.1312 38.6775 17.1779 38.6775H28.6216C29.6702 38.6775 30.5178 39.5251 30.5178 40.5737C30.5178 41.6223 29.6702 42.4699 28.6216 42.4699Z" fill="#47C0AC"/>
<path d="M34.1698 10.2377H28.4812C28.4812 8.1519 26.7746 6.44531 24.6888 6.44531H13.3115C11.2257 6.44531 9.51912 8.1519 9.51912 10.2377H3.8305C1.74467 10.2377 0.0380859 11.9443 0.0380859 14.0301V48.1619C0.0380859 50.2477 1.74467 51.9543 3.8305 51.9543H34.1698C36.2556 51.9543 37.9622 50.2477 37.9622 48.1619V14.0301C37.9622 11.9443 36.2556 10.2377 34.1698 10.2377ZM13.3115 13.082V11.1858C13.3115 10.6625 13.7363 10.2377 14.2596 10.2377H23.7407C24.264 10.2377 24.6888 10.6625 24.6888 11.1858V13.082C24.6888 13.6054 24.264 14.0301 23.7407 14.0301H14.2596C13.7363 14.0301 13.3115 13.6054 13.3115 13.082ZM34.1698 47.2138V47.2195C34.1641 47.7409 33.7432 48.1619 33.2217 48.1619H4.80705L4.7786 48.1676C4.25525 48.1676 3.8305 47.7428 3.8305 47.2195V14.9782C3.8305 14.4549 4.25525 14.0301 4.7786 14.0301H9.51912C9.51912 16.116 11.2257 17.8226 13.3115 17.8226H24.6888C26.7746 17.8226 28.4812 16.116 28.4812 14.0301H33.2217C33.747 14.0301 34.1698 14.4549 34.1698 14.9782V47.2138Z" fill="#47C0AC"/>
</g>
<defs>
<clipPath id="clip0_1738_24772">
<rect width="38" height="45.509" fill="white" transform="translate(0 6.4375)"/>
</clipPath>
</defs>
</svg>
