<svg width="145" height="146" viewBox="0 0 145 146" fill="none" xmlns="http://www.w3.org/2000/svg">
<path d="M61.4012 80.459L46.0552 71.5995V53.8828L61.4012 62.7401V80.459Z" fill="#0F024B"/>
<path d="M61.4012 27.3125L46.0552 36.1719V53.8886L61.4012 45.0314V27.3125Z" fill="#0F024B"/>
<path d="M76.7458 0.71875L61.4019 9.57818V27.2949L76.7458 18.4355V0.71875Z" fill="#0F024B"/>
<path d="M30.7108 27.3125L15.3647 36.1719V53.8886L30.7108 45.0314V27.3125Z" fill="#0F024B"/>
<path d="M46.0544 53.8908L30.7104 45.0314V27.3125L46.0544 36.1719V53.8908Z" fill="#652C90"/>
<path d="M107.435 53.8908L92.0913 45.0314V27.3125L107.435 36.1719V53.8908Z" fill="#0070B9"/>
<path d="M0.0209961 80.4376L15.3671 89.2948L30.711 80.4376L15.3671 71.5781" fill="#91268F"/>
<path d="M30.7104 80.4376L46.0565 89.2948L61.4004 80.4376L46.0565 71.5781" fill="#91268F"/>
<path d="M46.0552 53.8672L61.4012 62.7245L76.7452 53.8672L61.4012 45.0078" fill="#42C7F4"/>
<path d="M76.7456 53.8672L92.0917 62.7245L107.436 53.8672L92.0917 45.0078" fill="#42C7F4"/>
<mask id="mask0_1752_24451" style="mask-type:luminance" maskUnits="userSpaceOnUse" x="40" y="76" width="105" height="49">
<path d="M40.4233 76.5625H144.212V124.712H40.4233V76.5625Z" fill="white"/>
</mask>
<g mask="url(#mask0_1752_24451)">
<path d="M61.4017 93.0103C61.3995 95.9764 61.3974 111.475 61.3974 115.65L45.9475 115.647C45.8135 115.647 45.6837 115.695 45.5843 115.792L41.0073 123.547C40.8689 123.802 40.8235 123.91 40.8992 124.098C40.9748 124.289 41.1586 124.41 41.3662 124.41H94.1975C96.593 124.349 98.6945 123.21 100.059 121.467C101.419 123.21 103.511 124.349 105.903 124.412L143.699 124.41C143.976 124.41 144.205 124.189 144.205 123.917V116.142C144.205 116.008 144.147 115.887 144.056 115.794C143.959 115.706 143.829 115.65 143.699 115.65H123.631L123.633 103.364C123.633 102.274 124.49 101.394 125.581 101.359L139.075 101.366C139.211 101.366 139.343 101.316 139.442 101.219L144.062 93.3929C144.201 93.14 144.251 93.0319 144.173 92.8395C144.095 92.6471 143.909 92.5217 143.701 92.5217H123.281C118.678 92.5217 114.795 96.1709 114.795 100.484V115.65H107.185V77.0944C107.185 76.8912 107.064 76.7074 106.873 76.6296C106.683 76.5539 106.577 76.6015 106.322 76.7399L98.5561 81.3209C98.461 81.4203 98.4134 81.5501 98.4134 81.6819V115.65H90.8074V100.4C90.8074 96.132 86.9547 92.5173 82.395 92.5173H61.8989C61.4255 92.5173 61.4017 93.0103 61.4017 93.0103ZM82.049 115.65H72.1621C71.0897 115.65 70.199 114.781 70.1795 113.715V101.359H80.1184C81.2015 101.394 82.049 102.263 82.049 103.344" fill="#808284"/>
</g>
<mask id="mask1_1752_24451" style="mask-type:luminance" maskUnits="userSpaceOnUse" x="109" y="129" width="12" height="17">
<path d="M109.608 129.68H120.124V145.044H109.608V129.68Z" fill="white"/>
</mask>
<g mask="url(#mask1_1752_24451)">
<path d="M109.86 130.419C109.86 130.29 109.946 130.203 110.076 130.203H119.5C119.63 130.203 119.719 130.29 119.719 130.419V132.733C119.719 132.862 119.63 132.949 119.5 132.949H113.168C113.081 132.949 113.038 132.992 113.038 133.078V135.997C113.038 136.081 113.081 136.127 113.168 136.127H118.443C118.571 136.127 118.657 136.213 118.657 136.343V138.632C118.657 138.764 118.571 138.849 118.443 138.849H113.168C113.081 138.849 113.038 138.894 113.038 138.98V142.027C113.038 142.113 113.081 142.156 113.168 142.156H119.5C119.63 142.156 119.719 142.241 119.719 142.372V144.683C119.719 144.813 119.63 144.9 119.5 144.9H110.076C109.946 144.9 109.86 144.813 109.86 144.683" fill="#808284"/>
</g>
<mask id="mask2_1752_24451" style="mask-type:luminance" maskUnits="userSpaceOnUse" x="121" y="129" width="6" height="17">
<path d="M121.786 129.68H126.767V145.044H121.786V129.68Z" fill="white"/>
</mask>
<g mask="url(#mask2_1752_24451)">
<path d="M125.231 145.032C122.917 145.032 121.988 144.015 121.988 141.702V130.419C121.988 130.29 122.074 130.203 122.204 130.203H124.798C124.928 130.203 125.015 130.29 125.015 130.419V141.464C125.015 142.178 125.296 142.459 125.923 142.459H126.377C126.506 142.459 126.593 142.545 126.593 142.675V144.813C126.593 144.945 126.506 145.032 126.377 145.032" fill="#808284"/>
</g>
<mask id="mask3_1752_24451" style="mask-type:luminance" maskUnits="userSpaceOnUse" x="128" y="134" width="17" height="12">
<path d="M128.428 134.109H144.213V145.046H128.428V134.109Z" fill="white"/>
</mask>
<g mask="url(#mask3_1752_24451)">
<path d="M141.4 144.936C141.27 144.936 141.184 144.849 141.184 144.717V138.709C141.184 137.564 140.622 136.807 139.541 136.807C138.503 136.807 137.919 137.564 137.919 138.709V144.717C137.919 144.849 137.833 144.936 137.703 144.936H135.109C134.981 144.936 134.895 144.849 134.895 144.717V138.709C134.895 137.564 134.354 136.807 133.273 136.807C132.235 136.807 131.63 137.564 131.63 138.709V144.717C131.63 144.849 131.543 144.936 131.414 144.936H128.821C128.692 144.936 128.603 144.849 128.603 144.717V134.691C128.603 134.561 128.692 134.472 128.821 134.472H131.414C131.543 134.472 131.63 134.561 131.63 134.691V135.423H131.651C132.127 134.775 133.014 134.234 134.354 134.234C135.627 134.234 136.557 134.691 137.162 135.553H137.184C137.962 134.734 139 134.234 140.47 134.234C142.935 134.234 144.211 135.813 144.211 138.126V144.717C144.211 144.849 144.124 144.936 143.995 144.936" fill="#808284"/>
</g>
</svg>
