<svg width="1423" height="122" viewBox="0 0 1423 122" fill="none" xmlns="http://www.w3.org/2000/svg">
<path d="M1254.57 9.21484C1411.24 27.7089 1662.54 174.506 1662.54 174.506L-222.54 193C-222.54 193 -186.192 84.9251 -89.6818 30.5986C6.82825 -23.7278 323.306 70.4766 517.579 70.4766C711.853 70.4766 1097.89 -9.27927 1254.57 9.21484Z" stroke="#1984E5" stroke-width="1.30908" stroke-linecap="round"/>
<path d="M1662.54 124.803C1662.54 124.803 1467.64 134.05 1276.5 52.5602C1085.36 -28.9295 736.92 -42.2221 511.939 1.7014C286.958 45.6249 21.2421 73.3661 -74.0146 73.3661C-169.271 73.3661 -222.54 143.297 -222.54 143.297L1662.54 124.803Z" stroke="#47C0AC" stroke-width="1.30908" stroke-linecap="round"/>
<path d="M1662.54 164.107C1662.54 164.107 1467.64 173.355 1276.5 91.8649C1085.36 10.3752 736.92 -2.9174 511.939 41.0061C286.958 84.9296 21.2421 112.671 -74.0146 112.671C-169.271 112.671 -222.54 182.602 -222.54 182.602L1662.54 164.107Z" stroke="#FFE539" stroke-width="1.30908" stroke-linecap="round"/>
</svg>
