<svg width="30" height="30" viewBox="0 0 30 30" fill="none" xmlns="http://www.w3.org/2000/svg">
<path d="M3.75 18.7444L12.5 19.994L11.25 26.2421H25C25.3315 26.2421 25.6495 26.1105 25.8839 25.8761C26.1183 25.6418 26.25 25.3239 26.25 24.9925V11.2466H3.75V18.7444Z" fill="#F3F9F8"/>
<path d="M11.25 26.2423L12.5 19.9942L3.75 18.7446M11.25 26.2423L3.75 18.7446M11.25 26.2423H25C25.3315 26.2423 25.6495 26.1107 25.8839 25.8763C26.1183 25.642 26.25 25.3241 26.25 24.9927V6.24828M3.75 18.7446V6.24828M3.75 6.24828C3.75 5.91686 3.8817 5.59901 4.11612 5.36466C4.35054 5.13031 4.66848 4.99865 5 4.99865H25C25.3315 4.99865 25.6495 5.13031 25.8839 5.36466C26.1183 5.59901 26.25 5.91686 26.25 6.24828M3.75 6.24828V11.2468H26.25V6.24828M8.75 3.74902V6.24828M15 3.74902V6.24828M21.25 3.74902V6.24828" stroke="#47C0AC" stroke-width="2.5" stroke-linecap="round" stroke-linejoin="round"/>
</svg>
