<svg width="41" height="42" viewBox="0 0 41 42" fill="none" xmlns="http://www.w3.org/2000/svg">
<ellipse cx="20.1836" cy="21.1899" rx="20" ry="20.2048" fill="#F2FAFF"/>
<path d="M11.2299 11.8351H10.9304L11.1098 12.0749L18.3707 21.7834L11.0735 29.6665L10.8403 29.9183H11.1836H12.845H12.9105L12.9551 29.8702L19.2957 23.0204L24.4097 29.8582L24.4547 29.9183H24.5298H30.1836H30.4831L30.3037 29.6785L22.6301 19.4183L29.4164 12.087L29.6495 11.8351H29.3063H27.6449H27.5793L27.5348 11.8832L21.7051 18.1813L17.0038 11.8953L16.9588 11.8351H16.8837H11.2299ZM25.2178 28.3944L13.9726 13.3589H16.1954L27.4405 28.3944H25.2178Z" fill="#47C0AC" stroke="#47C0AC" stroke-width="0.3"/>
</svg>
