<svg width="66" height="57" viewBox="0 0 66 57" fill="none" xmlns="http://www.w3.org/2000/svg">
<path d="M37.7134 57C22.4077 57 10.0001 44.2401 10.0001 28.5C10.0001 12.7599 22.4077 0 37.7134 0C53.0191 0 65.4268 12.7599 65.4268 28.5C65.4268 44.2401 53.0191 57 37.7134 57Z" fill="#F2FAFF"/>
<path d="M21.5817 51.2505C23.93 53.5987 26.0748 53.5803 28.4046 51.2505L31.252 48.4215C31.5478 48.1442 31.8067 48.0332 32.195 48.0332H36.1888C39.4984 48.0332 41.0333 46.5171 41.0333 43.1889V39.195C41.0333 38.8067 41.1442 38.5479 41.4214 38.252L44.2319 35.4045C46.5986 33.0748 46.5801 30.93 44.2319 28.5817L41.4214 25.7342C41.1442 25.4569 41.0333 25.1796 41.0333 24.8098V20.7974C41.0333 17.5062 39.5171 15.953 36.1888 15.953H32.195C31.8067 15.953 31.5478 15.8606 31.252 15.5832L28.4046 12.7543C26.0748 10.406 23.93 10.4245 21.5817 12.7543L18.7342 15.5832C18.4569 15.8606 18.1795 15.953 17.8097 15.953H13.7974C10.4877 15.953 8.95301 17.4692 8.95301 20.7974V24.8098C8.95301 25.1796 8.86055 25.4569 8.58325 25.7342L5.75422 28.5817C3.40604 30.93 3.4245 33.0748 5.75422 35.4045L8.58325 38.252C8.86055 38.5479 8.95301 38.8067 8.95301 39.195V43.1889C8.95301 46.4986 10.4877 48.0332 13.7974 48.0332H17.8097C18.1795 48.0332 18.4569 48.1442 18.7342 48.4215L21.5817 51.2505ZM23.6526 49.1796L20.1764 45.685C19.7697 45.2597 19.3444 45.0934 18.7712 45.0934H13.7974C12.1518 45.0934 11.8929 44.8344 11.8929 43.1889V38.215C11.8929 37.6603 11.7265 37.2351 11.3197 36.8283L7.82511 33.3521C6.66029 32.1687 6.66029 31.836 7.82511 30.6526L11.3197 27.1765C11.7265 26.7697 11.8929 26.3445 11.8929 25.7712V20.7974C11.8929 19.1333 12.1333 18.893 13.7974 18.893H18.7712C19.3444 18.893 19.7697 18.745 20.1764 18.3198L23.6526 14.8251C24.836 13.6602 25.1688 13.6602 26.3522 14.8251L29.8282 18.3198C30.235 18.745 30.6603 18.893 31.215 18.893H36.1888C37.8345 18.893 38.0933 19.1518 38.0933 20.7974V25.7712C38.0933 26.3445 38.2782 26.7697 38.6851 27.1765L42.1795 30.6526C43.3443 31.836 43.3443 32.1687 42.1795 33.3521L38.6851 36.8283C38.2782 37.2351 38.0933 37.6603 38.0933 38.215V43.1889C38.0933 44.8344 37.8345 45.0934 36.1888 45.0934H31.215C30.6603 45.0934 30.235 45.2597 29.8282 45.685L26.3522 49.1796C25.1688 50.3445 24.836 50.3445 23.6526 49.1796ZM22.1179 40.8591C22.6541 40.8591 23.0609 40.6372 23.3383 40.3044L33.6003 25.9562C33.8036 25.6602 33.9146 25.3275 33.9146 25.0132C33.9146 24.1996 33.286 23.5524 32.4354 23.5524C31.8252 23.5524 31.4924 23.7558 31.1226 24.292L22.0625 37.0502L17.3845 31.8914C17.0702 31.5401 16.7189 31.3922 16.2566 31.3922C15.3506 31.3922 14.7034 32.0024 14.7034 32.853C14.7034 33.2227 14.8328 33.574 15.0917 33.8329L20.9716 40.3784C21.2489 40.6742 21.6002 40.8591 22.1179 40.8591Z" fill="#47C0AC"/>
</svg>
