<svg width="41" height="42" viewBox="0 0 41 42" fill="none" xmlns="http://www.w3.org/2000/svg">
<ellipse cx="20.1836" cy="20.9897" rx="20" ry="20.2048" fill="#F2FAFF"/>
<path d="M27.2703 13.7321C25.4679 11.9113 22.978 10.7849 20.2275 10.7849C14.7271 10.7849 10.2673 15.2897 10.2673 20.847C10.2673 22.6963 10.7612 24.4285 11.6222 25.9177L11.5967 25.8703L10.1836 31.0838L15.4628 29.6846C16.8371 30.4556 18.4767 30.9092 20.2215 30.9092H20.2255C25.7258 30.9071 30.1836 26.4017 30.1836 20.845C30.1836 18.0677 29.07 15.5537 27.2696 13.7328L27.2703 13.7321ZM20.2255 29.2095H20.2221C18.6683 29.2095 17.2136 28.7762 15.9721 28.0229L16.0096 28.0438L15.7074 27.8631L12.575 28.6937L13.4105 25.6077L13.2135 25.2916C12.4195 24.0312 11.9478 22.4953 11.9478 20.8477C11.9478 16.2299 15.6538 12.486 20.2248 12.486C24.7958 12.486 28.5018 16.2299 28.5018 20.8477C28.5018 25.4655 24.7971 29.2095 20.2255 29.2095ZM24.7657 22.9475C24.5171 22.8216 23.2936 22.2144 23.0658 22.1298C22.8373 22.0458 22.6711 22.0045 22.5049 22.2563C22.3401 22.5075 21.863 23.0734 21.7176 23.2412C21.5729 23.4098 21.4269 23.4301 21.1783 23.3049C20.4077 22.9894 19.7457 22.5691 19.1702 22.0512L19.1769 22.0573C18.6415 21.5564 18.1825 20.9831 17.812 20.3509L17.7932 20.3157C17.6485 20.0645 17.7778 19.9285 17.9018 19.8033C18.0137 19.6909 18.151 19.5095 18.275 19.3633C18.3728 19.2421 18.4566 19.1033 18.5202 18.9544L18.5242 18.9429C18.5531 18.884 18.5698 18.8157 18.5698 18.7426C18.5698 18.6539 18.545 18.5713 18.5021 18.5009L18.5035 18.5029C18.4405 18.377 17.9433 17.1397 17.7363 16.636C17.5339 16.146 17.3282 16.213 17.1761 16.2049C17.0314 16.1981 16.8652 16.1967 16.6991 16.1967C16.4344 16.2035 16.1992 16.324 16.0371 16.5101L16.0364 16.5115C15.499 17.0266 15.1653 17.7529 15.1653 18.5578C15.1653 18.5754 15.1653 18.5936 15.166 18.6112V18.6085C15.2538 19.6015 15.6223 20.493 16.1892 21.2193L16.1811 21.2092C17.2559 22.8195 18.6884 24.1077 20.3695 24.9754L20.4325 25.0046C20.7997 25.1724 21.2701 25.3518 21.7512 25.5055L21.851 25.5332C22.1471 25.628 22.4882 25.6828 22.842 25.6828C23.045 25.6828 23.2447 25.6645 23.4376 25.63L23.4169 25.6327C24.1331 25.4818 24.7275 25.0452 25.09 24.4488L25.096 24.4373C25.2065 24.1896 25.2709 23.9005 25.2709 23.5966C25.2709 23.4714 25.2601 23.3489 25.2394 23.2297L25.2414 23.2426C25.1797 23.1377 25.0136 23.0754 24.7643 22.9488L24.7657 22.9475Z" fill="#1984E5"/>
</svg>
