<svg width="135" height="40" viewBox="0 0 135 40" fill="none" xmlns="http://www.w3.org/2000/svg">
<path d="M5.10759 11.8694V29.1866C5.10759 30.646 5.15623 33.0295 3.16184 33.0295C1.16745 33.0295 0.0486437 33.0295 0 33.0295V38.8181H3.21048C8.99908 38.8181 11.9177 35.1212 11.9177 29.5758V11.8694H5.10759Z" fill="white"/>
<path d="M25.5374 11.8694C19.7974 11.8694 14.7871 15.3231 14.7871 21.4036C14.7871 27.4841 19.8461 30.8892 25.5374 30.8892C31.2287 30.8892 36.2876 27.4354 36.2876 21.4036C36.2876 15.3718 31.2773 11.8694 25.5374 11.8694ZM25.5374 17.3662C28.1155 17.3662 29.6234 19.2146 29.6234 21.4036C29.6234 23.5926 28.1155 25.3924 25.5374 25.3924C22.9593 25.3924 21.4513 23.6412 21.4513 21.4036C21.4513 19.166 22.9593 17.3662 25.5374 17.3662Z" fill="white"/>
<path d="M38.9158 30.3055H45.2395V28.3111H45.2882C46.4556 30.0623 48.5959 30.8892 50.6876 30.8892C55.9898 30.8892 59.6867 26.5113 59.6867 21.355C59.6867 16.1988 56.0384 11.8695 50.7363 11.8695C45.4341 11.8695 46.5529 12.6478 45.1909 14.2044V1.41101H38.8672V30.3055H38.9158ZM49.131 17.3662C51.7091 17.3662 53.2171 19.2147 53.2171 21.4037C53.2171 23.5927 51.7091 25.3925 49.131 25.3925C46.5529 25.3925 45.0449 23.6413 45.0449 21.4037C45.0449 19.1661 46.5529 17.3662 49.131 17.3662Z" fill="white"/>
<path d="M68.976 12.4528H62.6523V39.207H68.976V28.6026C70.338 30.1592 72.4784 30.8889 74.5214 30.8889C79.8236 30.8889 83.4718 26.5595 83.4718 21.4033C83.4718 16.247 79.7749 11.8204 74.4728 11.8204C69.1706 11.8204 70.2408 12.6474 69.0733 14.4472H69.0247V12.4528H68.976ZM72.8189 17.3658C75.397 17.3658 76.9049 19.2143 76.9049 21.4033C76.9049 23.5923 75.397 25.3921 72.8189 25.3921C70.2408 25.3921 68.7328 23.6409 68.7328 21.4033C68.7328 19.1657 70.2408 17.3658 72.8189 17.3658Z" fill="white"/>
<path d="M92.9096 1.41101H86.5859V30.3055H92.9096V1.41101Z" fill="white"/>
<path d="M96.9961 12.4528V23.2031C96.9961 29.089 101.131 30.8888 106.482 30.8888C111.832 30.8888 115.967 29.089 115.967 23.2031V12.4528H109.643V21.987C109.643 24.2246 109.108 25.8298 106.482 25.8298C103.855 25.8298 103.32 24.2246 103.32 21.987V12.4528H96.9961Z" fill="white"/>
<path d="M133.964 12.9879C132.116 12.1609 130.121 11.8204 128.078 11.8204C124.187 11.8204 120.198 13.7662 120.198 18.1441C120.198 22.5221 122.193 22.3275 124.187 22.8626C126.181 23.3977 128.176 23.4463 128.176 24.857C128.176 26.2677 127.008 26.219 126.181 26.219C124.625 26.219 122.436 25.2948 121.171 24.4192L118.885 28.8458C121.025 30.1592 123.555 30.8889 126.084 30.8889C130.219 30.8889 134.499 28.9431 134.499 24.2246C134.499 19.5062 132.262 19.5062 129.295 18.9224C128.419 18.7279 126.425 18.5819 126.425 17.3658C126.425 16.1497 127.689 16.1497 128.419 16.1497C129.489 16.1497 130.851 16.4902 131.824 17.0253L133.964 12.9879Z" fill="white"/>
<path d="M8.51362 8.26959C10.7972 8.26959 12.6483 6.41841 12.6483 4.13486C12.6483 1.85131 10.7972 0.00012207 8.51362 0.00012207C6.23008 0.00012207 4.37891 1.85131 4.37891 4.13486C4.37891 6.41841 6.23008 8.26959 8.51362 8.26959Z" fill="#00CCFF"/>
</svg>
